TiroTelugu-Regular.ufo
<glyph name="dUdatta" format="2">
  <unicode hex="0951"/>
  <outline>
    <contour>
      <point x="21" y="765" type="line"/>
      <point x="21" y="1017" type="line"/>
      <point x="-21" y="1017" type="line"/>
      <point x="-21" y="765" type="line"/>
    </contour>
  </outline>
</glyph>
<glyph name="Danda" format="2">
  <advance width="210"/>
  <unicode hex="0964"/>
  <outline>
    <contour>
      <point x="80" y="525" type="line"/>
      <point x="80" y="-15" type="line"/>
      <point x="130" y="-15" type="line"/>
      <point x="130" y="525" type="line"/>
    </contour>
  </outline>
</glyph>
<glyph name="DoubleDanda" format="2">
  <advance width="390"/>
  <unicode hex="0965"/>
  <outline>
    <contour>
      <point x="80" y="525" type="line"/>
      <point x="80" y="-15" type="line"/>
      <point x="130" y="-15" type="line"/>
      <point x="130" y="525" type="line"/>
    </contour>
    <contour>
      <point x="260" y="525" type="line"/>
      <point x="260" y="-15" type="line"/>
      <point x="310" y="-15" type="line"/>
      <point x="310" y="525" type="line"/>
    </contour>
  </outline>
</glyph>
<glyph name="tCandrabindu" format="2">
  <unicode hex="0C00"/>
  <outline>
    <contour>
      <point x="0" y="755" type="curve" smooth="yes"/>
      <point x="129" y="755"/>
      <point x="179" y="870"/>
      <point x="181" y="955" type="curve"/>
      <point x="144" y="955" type="line"/>
      <point x="139" y="894"/>
      <point x="94" y="827"/>
      <point x="0" y="827" type="curve" smooth="yes"/>
      <point x="-94" y="827"/>
      <point x="-139" y="894"/>
      <point x="-144" y="955" type="curve"/>
      <point x="-181" y="955" type="line"/>
      <point x="-179" y="870"/>
      <point x="-129" y="755"/>
    </contour>
    <contour>
      <point x="0" y="894" type="curve" smooth="yes"/>
      <point x="33" y="894"/>
      <point x="58" y="921"/>
      <point x="58" y="953" type="curve" smooth="yes"/>
      <point x="58" y="986"/>
      <point x="33" y="1012"/>
      <point x="0" y="1012" type="curve" smooth="yes"/>
      <point x="-32" y="1012"/>
      <point x="-58" y="986"/>
      <point x="-58" y="953" type="curve" smooth="yes"/>
      <point x="-58" y="921"/>
      <point x="-32" y="894"/>
    </contour>
  </outline>
</glyph>
<glyph name="tArasunna" format="2">
  <advance width="471"/>
  <unicode hex="0C01"/>
  <outline>
    <contour>
      <point x="350" y="-15" type="curve" smooth="yes"/>
      <point x="374" y="-15"/>
      <point x="398" y="-12"/>
      <point x="421" y="-6" type="curve"/>
      <point x="410" y="35" type="line"/>
      <point x="393" y="30"/>
      <point x="375" y="29"/>
      <point x="362" y="29" type="curve" smooth="yes"/>
      <point x="246" y="29"/>
      <point x="166" y="128"/>
      <point x="166" y="256" type="curve" smooth="yes"/>
      <point x="166" y="384"/>
      <point x="247" y="481"/>
      <point x="360" y="481" type="curve" smooth="yes"/>
      <point x="376" y="481"/>
      <point x="393" y="479"/>
      <point x="410" y="475" type="curve"/>
      <point x="418" y="517" type="line"/>
      <point x="396" y="523"/>
      <point x="373" y="525"/>
      <point x="354" y="525" type="curve" smooth="yes"/>
      <point x="208" y="525"/>
      <point x="70" y="413"/>
      <point x="70" y="253" type="curve" smooth="yes"/>
      <point x="70" y="93"/>
      <point x="207" y="-15"/>
    </contour>
  </outline>
  <guideline angle="0" x="0" y="255"/>
  <guideline angle="90" x="343" y="0"/>
  <guideline angle="90" x="412" y="0"/>
</glyph>
<glyph name="tAnusvara" format="2">
  <advance width="680"/>
  <unicode hex="0C02"/>
  <outline>
    <contour>
      <point x="344" y="-15" type="curve" smooth="yes"/>
      <point x="491" y="-15"/>
      <point x="607" y="104"/>
      <point x="607" y="255" type="curve" smooth="yes"/>
      <point x="607" y="409"/>
      <point x="490" y="525"/>
      <point x="343" y="525" type="curve" smooth="yes"/>
      <point x="200" y="525"/>
      <point x="73" y="416"/>
      <point x="73" y="262" type="curve" smooth="yes"/>
      <point x="73" y="115"/>
      <point x="188" y="-15"/>
    </contour>
    <contour>
      <point x="341" y="92" type="curve" smooth="yes"/>
      <point x="218" y="92"/>
      <point x="127" y="175"/>
      <point x="127" y="283" type="curve" smooth="yes"/>
      <point x="127" y="392"/>
      <point x="224" y="482"/>
      <point x="342" y="482" type="curve" smooth="yes"/>
      <point x="463" y="482"/>
      <point x="554" y="388"/>
      <point x="554" y="281" type="curve" smooth="yes"/>
      <point x="554" y="171"/>
      <point x="460" y="92"/>
    </contour>
  </outline>
</glyph>
<glyph name="tVisarga" format="2">
  <advance width="364"/>
  <unicode hex="0C03"/>
  <outline>
    <contour>
      <point x="183" y="294" type="curve" smooth="yes"/>
      <point x="250" y="294"/>
      <point x="301" y="342"/>
      <point x="301" y="409" type="curve" smooth="yes"/>
      <point x="301" y="476"/>
      <point x="250" y="525"/>
      <point x="183" y="525" type="curve" smooth="yes"/>
      <point x="112" y="525"/>
      <point x="63" y="473"/>
      <point x="63" y="409" type="curve" smooth="yes"/>
      <point x="63" y="345"/>
      <point x="112" y="294"/>
    </contour>
    <contour>
      <point x="183" y="-15" type="curve" smooth="yes"/>
      <point x="250" y="-15"/>
      <point x="301" y="33"/>
      <point x="301" y="100" type="curve" smooth="yes"/>
      <point x="301" y="167"/>
      <point x="250" y="216"/>
      <point x="183" y="216" type="curve" smooth="yes"/>
      <point x="112" y="216"/>
      <point x="63" y="164"/>
      <point x="63" y="100" type="curve" smooth="yes"/>
      <point x="63" y="36"/>
      <point x="112" y="-15"/>
    </contour>
    <contour>
      <point x="191" y="33" type="curve" smooth="yes"/>
      <point x="150" y="33"/>
      <point x="122" y="63"/>
      <point x="122" y="100" type="curve" smooth="yes"/>
      <point x="122" y="137"/>
      <point x="150" y="168"/>
      <point x="191" y="168" type="curve" smooth="yes"/>
      <point x="232" y="168"/>
      <point x="260" y="137"/>
      <point x="260" y="100" type="curve" smooth="yes"/>
      <point x="260" y="63"/>
      <point x="232" y="33"/>
    </contour>
    <contour>
      <point x="191" y="342" type="curve" smooth="yes"/>
      <point x="150" y="342"/>
      <point x="122" y="372"/>
      <point x="122" y="409" type="curve" smooth="yes"/>
      <point x="122" y="446"/>
      <point x="150" y="477"/>
      <point x="191" y="477" type="curve" smooth="yes"/>
      <point x="232" y="477"/>
      <point x="260" y="446"/>
      <point x="260" y="409" type="curve" smooth="yes"/>
      <point x="260" y="372"/>
      <point x="232" y="342"/>
    </contour>
  </outline>
</glyph>
<glyph name="tAnusvaraAbove" format="2">
  <unicode hex="0C04"/>
  <outline>
    <contour>
      <point x="0" y="755" type="curve" smooth="yes"/>
      <point x="59" y="755"/>
      <point x="103" y="800"/>
      <point x="103" y="858" type="curve" smooth="yes"/>
      <point x="103" y="917"/>
      <point x="56" y="959"/>
      <point x="-1" y="959" type="curve" smooth="yes"/>
      <point x="-58" y="959"/>
      <point x="-104" y="916"/>
      <point x="-104" y="857" type="curve" smooth="yes"/>
      <point x="-104" y="799"/>
      <point x="-59" y="755"/>
    </contour>
    <contour>
      <point x="-2" y="793" type="curve" smooth="yes"/>
      <point x="-34" y="793"/>
      <point x="-60" y="816"/>
      <point x="-60" y="851" type="curve" smooth="yes"/>
      <point x="-60" y="887"/>
      <point x="-34" y="910"/>
      <point x="-1" y="910" type="curve" smooth="yes"/>
      <point x="32" y="910"/>
      <point x="59" y="887"/>
      <point x="59" y="852" type="curve" smooth="yes"/>
      <point x="59" y="817"/>
      <point x="32" y="793"/>
    </contour>
  </outline>
  <guideline angle="90" x="-360" y="0"/>
</glyph>
<glyph name="tA" format="2">
  <advance width="921"/>
  <unicode hex="0C05"/>
  <outline>
    <contour>
      <point x="459" y="-15" type="curve" smooth="yes"/>
      <point x="732" y="-15"/>
      <point x="848" y="140"/>
      <point x="848" y="287" type="curve" smooth="yes"/>
      <point x="848" y="425"/>
      <point x="747" y="525"/>
      <point x="640" y="525" type="curve" smooth="yes"/>
      <point x="560" y="525"/>
      <point x="506" y="468"/>
      <point x="506" y="399" type="curve" smooth="yes"/>
      <point x="506" y="339"/>
      <point x="545" y="284"/>
      <point x="631" y="253" type="curve"/>
      <point x="702" y="257" type="line"/>
      <point x="665" y="269"/>
      <point x="588" y="299"/>
      <point x="588" y="378" type="curve" smooth="yes"/>
      <point x="588" y="432"/>
      <point x="625" y="458"/>
      <point x="667" y="458" type="curve" smooth="yes"/>
      <point x="729" y="458"/>
      <point x="798" y="403"/>
      <point x="798" y="308" type="curve" smooth="yes"/>
      <point x="798" y="203"/>
      <point x="714" y="92"/>
      <point x="461" y="92" type="curve" smooth="yes"/>
      <point x="232" y="92"/>
      <point x="123" y="184"/>
      <point x="123" y="299" type="curve" smooth="yes"/>
      <point x="123" y="366"/>
      <point x="161" y="444"/>
      <point x="242" y="482" type="curve"/>
      <point x="292" y="482" type="line"/>
      <point x="330" y="482"/>
      <point x="362" y="452"/>
      <point x="362" y="413" type="curve" smooth="yes"/>
      <point x="362" y="374"/>
      <point x="330" y="344"/>
      <point x="292" y="344" type="curve" smooth="yes"/>
      <point x="252" y="344"/>
      <point x="221" y="374"/>
      <point x="221" y="413" type="curve" smooth="yes"/>
      <point x="221" y="452"/>
      <point x="254" y="482"/>
      <point x="292" y="482" type="curve"/>
      <point x="296" y="509" type="line"/>
      <point x="159" y="459" type="line"/>
      <point x="187" y="440" type="line"/>
      <point x="182" y="428"/>
      <point x="179" y="416"/>
      <point x="179" y="403" type="curve" smooth="yes"/>
      <point x="179" y="349"/>
      <point x="228" y="300"/>
      <point x="301" y="300" type="curve" smooth="yes"/>
      <point x="376" y="300"/>
      <point x="424" y="352"/>
      <point x="424" y="411" type="curve" smooth="yes"/>
      <point x="424" y="471"/>
      <point x="376" y="525"/>
      <point x="293" y="525" type="curve" smooth="yes"/>
      <point x="184" y="525"/>
      <point x="73" y="429"/>
      <point x="73" y="282" type="curve" smooth="yes"/>
      <point x="73" y="122"/>
      <point x="202" y="-15"/>
    </contour>
    <contour>
      <point x="705" y="216" type="line"/>
      <point x="702" y="257" type="line"/>
      <point x="611" y="277" type="line"/>
      <point x="611" y="257" type="line"/>
      <point x="221" y="257" type="line"/>
      <point x="224" y="216" type="line"/>
    </contour>
  </outline>
</glyph>
<glyph name="tAa" format="2">
  <advance width="898"/>
  <unicode hex="0C06"/>
  <outline>
    <contour>
      <point x="456" y="-15" type="curve" smooth="yes"/>
      <point x="689" y="-15"/>
      <point x="828" y="105"/>
      <point x="828" y="208" type="curve" smooth="yes"/>
      <point x="828" y="256"/>
      <point x="798" y="303"/>
      <point x="729" y="315" type="curve" smooth="yes"/>
      <point x="704" y="320" type="line" smooth="yes"/>
      <point x="630" y="333"/>
      <point x="588" y="354"/>
      <point x="588" y="405" type="curve" smooth="yes"/>
      <point x="588" y="449"/>
      <point x="618" y="480"/>
      <point x="664" y="480" type="curve" smooth="yes"/>
      <point x="713" y="480"/>
      <point x="744" y="441"/>
      <point x="744" y="400" type="curve" smooth="yes"/>
      <point x="744" y="368"/>
      <point x="727" y="335"/>
      <point x="694" y="303" type="curve" smooth="yes"/>
      <point x="656" y="267"/>
      <point x="617" y="257"/>
      <point x="561" y="257" type="curve" smooth="yes"/>
      <point x="222" y="257" type="line"/>
      <point x="225" y="216" type="line"/>
      <point x="553" y="216" type="line" smooth="yes"/>
      <point x="648" y="216"/>
      <point x="699" y="246"/>
      <point x="732" y="283" type="curve" smooth="yes"/>
      <point x="773" y="329"/>
      <point x="786" y="364"/>
      <point x="786" y="399" type="curve" smooth="yes"/>
      <point x="786" y="465"/>
      <point x="735" y="525"/>
      <point x="648" y="525" type="curve" smooth="yes"/>
      <point x="574" y="525"/>
      <point x="514" y="482"/>
      <point x="514" y="411" type="curve" smooth="yes"/>
      <point x="514" y="318"/>
      <point x="620" y="299"/>
      <point x="685" y="285" type="curve" smooth="yes"/>
      <point x="715" y="279" type="line" smooth="yes"/>
      <point x="746" y="272"/>
      <point x="770" y="256"/>
      <point x="770" y="225" type="curve" smooth="yes"/>
      <point x="770" y="161"/>
      <point x="662" y="92"/>
      <point x="462" y="92" type="curve" smooth="yes"/>
      <point x="231" y="92"/>
      <point x="123" y="184"/>
      <point x="123" y="299" type="curve" smooth="yes"/>
      <point x="123" y="366"/>
      <point x="161" y="444"/>
      <point x="242" y="482" type="curve"/>
      <point x="292" y="482" type="line"/>
      <point x="330" y="482"/>
      <point x="362" y="452"/>
      <point x="362" y="413" type="curve" smooth="yes"/>
      <point x="362" y="374"/>
      <point x="330" y="344"/>
      <point x="292" y="344" type="curve" smooth="yes"/>
      <point x="252" y="344"/>
      <point x="221" y="374"/>
      <point x="221" y="413" type="curve" smooth="yes"/>
      <point x="221" y="452"/>
      <point x="254" y="482"/>
      <point x="292" y="482" type="curve"/>
      <point x="296" y="509" type="line"/>
      <point x="159" y="459" type="line"/>
      <point x="187" y="440" type="line"/>
      <point x="182" y="428"/>
      <point x="179" y="416"/>
      <point x="179" y="403" type="curve" smooth="yes"/>
      <point x="179" y="349"/>
      <point x="228" y="300"/>
      <point x="301" y="300" type="curve" smooth="yes"/>
      <point x="376" y="300"/>
      <point x="424" y="352"/>
      <point x="424" y="411" type="curve" smooth="yes"/>
      <point x="424" y="471"/>
      <point x="376" y="525"/>
      <point x="293" y="525" type="curve" smooth="yes"/>
      <point x="184" y="525"/>
      <point x="73" y="429"/>
      <point x="73" y="282" type="curve" smooth="yes"/>
      <point x="73" y="122"/>
      <point x="203" y="-15"/>
    </contour>
  </outline>
</glyph>
<glyph name="tI" format="2">
  <advance width="759"/>
  <unicode hex="0C07"/>
  <outline>
    <contour>
      <point x="647" y="-61" type="curve" smooth="yes"/>
      <point x="669" y="-61"/>
      <point x="676" y="-42"/>
      <point x="676" y="-26" type="curve" smooth="yes"/>
      <point x="676" y="88"/>
      <point x="526" y="259"/>
      <point x="319" y="259" type="curve" smooth="yes"/>
      <point x="198" y="259"/>
      <point x="112" y="205"/>
      <point x="112" y="127" type="curve" smooth="yes"/>
      <point x="112" y="53"/>
      <point x="188" y="-15"/>
      <point x="322" y="-15" type="curve" smooth="yes"/>
      <point x="520" y="-15"/>
      <point x="686" y="137"/>
      <point x="686" y="329" type="curve" smooth="yes"/>
      <point x="686" y="456"/>
      <point x="611" y="525"/>
      <point x="523" y="525" type="curve" smooth="yes"/>
      <point x="460" y="525"/>
      <point x="399" y="490"/>
      <point x="358" y="418" type="curve"/>
      <point x="371" y="313" type="line"/>
      <point x="396" y="382"/>
      <point x="456" y="434"/>
      <point x="523" y="434" type="curve" smooth="yes"/>
      <point x="582" y="434"/>
      <point x="642" y="392"/>
      <point x="642" y="314" type="curve" smooth="yes"/>
      <point x="642" y="229"/>
      <point x="560" y="85"/>
      <point x="315" y="85" type="curve" smooth="yes"/>
      <point x="209" y="85"/>
      <point x="158" y="113"/>
      <point x="158" y="146" type="curve" smooth="yes"/>
      <point x="158" y="184"/>
      <point x="218" y="223"/>
      <point x="321" y="223" type="curve" smooth="yes"/>
      <point x="509" y="223"/>
      <point x="610" y="91"/>
      <point x="616" y="-28" type="curve" smooth="yes"/>
      <point x="617" y="-52"/>
      <point x="633" y="-61"/>
    </contour>
    <contour>
      <point x="103" y="316" type="line"/>
      <point x="102" y="323"/>
      <point x="101" y="330"/>
      <point x="101" y="338" type="curve" smooth="yes"/>
      <point x="101" y="391"/>
      <point x="150" y="434"/>
      <point x="215" y="434" type="curve" smooth="yes"/>
      <point x="289" y="434"/>
      <point x="338" y="380"/>
      <point x="360" y="313" type="curve"/>
      <point x="371" y="313" type="line"/>
      <point x="384" y="434" type="line"/>
      <point x="364" y="434" type="line"/>
      <point x="332" y="492"/>
      <point x="279" y="525"/>
      <point x="216" y="525" type="curve" smooth="yes"/>
      <point x="139" y="525"/>
      <point x="60" y="476"/>
      <point x="60" y="366" type="curve" smooth="yes"/>
      <point x="60" y="354"/>
      <point x="61" y="330"/>
      <point x="68" y="309" type="curve"/>
    </contour>
  </outline>
  <guideline angle="90" x="683" y="0"/>
</glyph>
<glyph name="tIi" format="2">
  <advance width="1045"/>
  <unicode hex="0C08"/>
  <outline>
    <contour>
      <point x="420" y="-15" type="curve" smooth="yes"/>
      <point x="567" y="-15"/>
      <point x="683" y="104"/>
      <point x="683" y="255" type="curve" smooth="yes"/>
      <point x="683" y="404"/>
      <point x="569" y="525"/>
      <point x="418" y="525" type="curve" smooth="yes"/>
      <point x="277" y="525"/>
      <point x="149" y="418"/>
      <point x="149" y="262" type="curve" smooth="yes"/>
      <point x="149" y="115"/>
      <point x="264" y="-15"/>
    </contour>
    <contour>
      <point x="417" y="92" type="curve" smooth="yes"/>
      <point x="302" y="92"/>
      <point x="200" y="166"/>
      <point x="200" y="284" type="curve" smooth="yes"/>
      <point x="200" y="394"/>
      <point x="302" y="484"/>
      <point x="418" y="484" type="curve" smooth="yes"/>
      <point x="536" y="484"/>
      <point x="626" y="393"/>
      <point x="633" y="291" type="curve" smooth="yes"/>
      <point x="638" y="176"/>
      <point x="539" y="92"/>
    </contour>
    <contour>
      <point x="874" y="96" type="curve" smooth="yes"/>
      <point x="933" y="96"/>
      <point x="985" y="137"/>
      <point x="985" y="205" type="curve" smooth="yes"/>
      <point x="985" y="253"/>
      <point x="954" y="297"/>
      <point x="898" y="305" type="curve"/>
      <point x="898" y="313" type="line"/>
      <point x="50" y="313" type="line"/>
      <point x="52" y="270" type="line"/>
      <point x="805" y="270" type="line"/>
      <point x="873" y="270" type="line"/>
      <point x="910" y="270"/>
      <point x="940" y="241"/>
      <point x="940" y="204" type="curve" smooth="yes"/>
      <point x="940" y="167"/>
      <point x="910" y="139"/>
      <point x="873" y="139" type="curve" smooth="yes"/>
      <point x="836" y="139"/>
      <point x="806" y="167"/>
      <point x="806" y="204" type="curve" smooth="yes"/>
      <point x="806" y="241"/>
      <point x="836" y="270"/>
      <point x="873" y="270" type="curve"/>
      <point x="873" y="287" type="line"/>
      <point x="781" y="287" type="line"/>
      <point x="790" y="268" type="line"/>
      <point x="772" y="248"/>
      <point x="765" y="220"/>
      <point x="765" y="199" type="curve" smooth="yes"/>
      <point x="765" y="144"/>
      <point x="809" y="96"/>
    </contour>
    <contour>
      <point x="434" y="506" type="line"/>
      <point x="357" y="640"/>
      <point x="339" y="659"/>
      <point x="310" y="659" type="curve" smooth="yes"/>
      <point x="282" y="659"/>
      <point x="265" y="642"/>
      <point x="265" y="615" type="curve" smooth="yes"/>
      <point x="265" y="585"/>
      <point x="290" y="563"/>
      <point x="409" y="505" type="curve"/>
    </contour>
    <contour>
      <point x="428" y="498" type="line"/>
      <point x="571" y="617"/>
      <point x="629" y="654"/>
      <point x="700" y="707" type="curve" smooth="yes"/>
      <point x="702" y="708"/>
      <point x="719" y="719"/>
      <point x="719" y="727" type="curve" smooth="yes"/>
      <point x="719" y="732"/>
      <point x="716" y="734"/>
      <point x="703" y="734" type="curve" smooth="yes"/>
      <point x="650" y="734"/>
      <point x="611" y="734"/>
      <point x="598" y="715" type="curve" smooth="yes"/>
      <point x="559" y="658"/>
      <point x="492" y="593"/>
      <point x="403" y="516" type="curve"/>
    </contour>
    <contour>
      <point x="915" y="304" type="line"/>
      <point x="965" y="330"/>
      <point x="977" y="365"/>
      <point x="977" y="394" type="curve" smooth="yes"/>
      <point x="977" y="455"/>
      <point x="928" y="491"/>
      <point x="871" y="491" type="curve" smooth="yes"/>
      <point x="809" y="491"/>
      <point x="773" y="447"/>
      <point x="773" y="402" type="curve" smooth="yes"/>
      <point x="773" y="395"/>
      <point x="774" y="385"/>
      <point x="777" y="377" type="curve"/>
      <point x="806" y="377" type="line"/>
      <point x="808" y="389"/>
      <point x="819" y="435"/>
      <point x="870" y="435" type="curve" smooth="yes"/>
      <point x="902" y="435"/>
      <point x="927" y="415"/>
      <point x="927" y="385" type="curve" smooth="yes"/>
      <point x="927" y="343"/>
      <point x="879" y="321"/>
      <point x="842" y="308" type="curve"/>
      <point x="915" y="286" type="line"/>
    </contour>
  </outline>
  <guideline angle="0" x="0" y="313"/>
  <guideline angle="0" x="0" y="270"/>
</glyph>
<glyph name="tU" format="2">
  <advance width="874"/>
  <unicode hex="0C09"/>
  <outline>
    <contour>
      <point x="280" y="-15" type="curve" smooth="yes"/>
      <point x="341" y="-15"/>
      <point x="405" y="21"/>
      <point x="434" y="86" type="curve"/>
      <point x="454" y="86" type="line"/>
      <point x="428" y="215" type="line"/>
      <point x="405" y="148"/>
      <point x="361" y="92"/>
      <point x="287" y="92" type="curve" smooth="yes"/>
      <point x="205" y="92"/>
      <point x="158" y="161"/>
      <point x="158" y="238" type="curve" smooth="yes"/>
      <point x="158" y="366"/>
      <point x="281" y="484"/>
      <point x="437" y="484" type="curve" smooth="yes"/>
      <point x="493" y="484"/>
      <point x="556" y="466"/>
      <point x="606" y="434" type="curve"/>
      <point x="628" y="467" type="line"/>
      <point x="572" y="504"/>
      <point x="506" y="525"/>
      <point x="437" y="525" type="curve" smooth="yes"/>
      <point x="272" y="525"/>
      <point x="103" y="399"/>
      <point x="103" y="200" type="curve" smooth="yes"/>
      <point x="103" y="55"/>
      <point x="196" y="-15"/>
    </contour>
    <contour>
      <point x="603" y="-15" type="curve" smooth="yes"/>
      <point x="709" y="-15"/>
      <point x="775" y="65"/>
      <point x="775" y="160" type="curve" smooth="yes"/>
      <point x="775" y="242"/>
      <point x="727" y="323"/>
      <point x="641" y="323" type="curve" smooth="yes"/>
      <point x="581" y="323"/>
      <point x="537" y="284"/>
      <point x="537" y="227" type="curve" smooth="yes"/>
      <point x="537" y="171"/>
      <point x="580" y="130"/>
      <point x="638" y="130" type="curve" smooth="yes"/>
      <point x="681" y="130"/>
      <point x="721" y="154"/>
      <point x="735" y="208" type="curve"/>
      <point x="706" y="230" type="line"/>
      <point x="706" y="201"/>
      <point x="684" y="172"/>
      <point x="646" y="172" type="curve" smooth="yes"/>
      <point x="610" y="172"/>
      <point x="587" y="197"/>
      <point x="587" y="229" type="curve" smooth="yes"/>
      <point x="587" y="257"/>
      <point x="606" y="284"/>
      <point x="645" y="284" type="curve" smooth="yes"/>
      <point x="682" y="284"/>
      <point x="706" y="261"/>
      <point x="706" y="230" type="curve"/>
      <point x="720" y="196" type="line"/>
      <point x="734" y="196" type="line"/>
      <point x="734" y="193" type="line" smooth="yes"/>
      <point x="734" y="118"/>
      <point x="676" y="81"/>
      <point x="609" y="81" type="curve" smooth="yes"/>
      <point x="520" y="81"/>
      <point x="463" y="145"/>
      <point x="442" y="215" type="curve"/>
      <point x="428" y="215" type="line"/>
      <point x="424" y="197"/>
      <point x="423" y="179"/>
      <point x="423" y="162" type="curve" smooth="yes"/>
      <point x="423" y="52"/>
      <point x="503" y="-15"/>
    </contour>
    <contour>
      <point x="819" y="351" type="line"/>
      <point x="817" y="394" type="line"/>
      <point x="55" y="394" type="line"/>
      <point x="57" y="351" type="line"/>
    </contour>
    <contour>
      <point x="443" y="508" type="line"/>
      <point x="469" y="597"/>
      <point x="475" y="637"/>
      <point x="475" y="655" type="curve" smooth="yes"/>
      <point x="475" y="680"/>
      <point x="462" y="695"/>
      <point x="437" y="695" type="curve" smooth="yes"/>
      <point x="415" y="695"/>
      <point x="399" y="681"/>
      <point x="399" y="656" type="curve" smooth="yes"/>
      <point x="399" y="636"/>
      <point x="409" y="591"/>
      <point x="429" y="508" type="curve"/>
    </contour>
  </outline>
  <guideline angle="90" x="437" y="0"/>
</glyph>
<glyph name="tUu" format="2">
  <advance width="1107"/>
  <unicode hex="0C0A"/>
  <outline>
    <contour>
      <point x="280" y="-15" type="curve" smooth="yes"/>
      <point x="341" y="-15"/>
      <point x="404" y="21"/>
      <point x="433" y="86" type="curve"/>
      <point x="454" y="86" type="line"/>
      <point x="427" y="215" type="line"/>
      <point x="404" y="148"/>
      <point x="359" y="92"/>
      <point x="286" y="92" type="curve" smooth="yes"/>
      <point x="204" y="92"/>
      <point x="158" y="161"/>
      <point x="158" y="238" type="curve" smooth="yes"/>
      <point x="158" y="368"/>
      <point x="282" y="484"/>
      <point x="436" y="484" type="curve" smooth="yes"/>
      <point x="491" y="484"/>
      <point x="554" y="466"/>
      <point x="604" y="434" type="curve"/>
      <point x="626" y="467" type="line"/>
      <point x="590" y="491"/>
      <point x="521" y="525"/>
      <point x="436" y="525" type="curve" smooth="yes"/>
      <point x="274" y="525"/>
      <point x="103" y="399"/>
      <point x="103" y="200" type="curve" smooth="yes"/>
      <point x="103" y="55"/>
      <point x="196" y="-15"/>
    </contour>
    <contour>
      <point x="603" y="-15" type="curve" smooth="yes"/>
      <point x="707" y="-15"/>
      <point x="772" y="65"/>
      <point x="772" y="160" type="curve" smooth="yes"/>
      <point x="772" y="242"/>
      <point x="725" y="323"/>
      <point x="639" y="323" type="curve" smooth="yes"/>
      <point x="579" y="323"/>
      <point x="535" y="284"/>
      <point x="535" y="227" type="curve" smooth="yes"/>
      <point x="535" y="171"/>
      <point x="578" y="130"/>
      <point x="636" y="130" type="curve" smooth="yes"/>
      <point x="679" y="130"/>
      <point x="718" y="153"/>
      <point x="731" y="206" type="curve"/>
      <point x="706" y="230" type="line"/>
      <point x="706" y="201"/>
      <point x="684" y="172"/>
      <point x="646" y="172" type="curve" smooth="yes"/>
      <point x="610" y="172"/>
      <point x="587" y="197"/>
      <point x="587" y="229" type="curve" smooth="yes"/>
      <point x="587" y="257"/>
      <point x="606" y="284"/>
      <point x="645" y="284" type="curve" smooth="yes"/>
      <point x="682" y="284"/>
      <point x="706" y="261"/>
      <point x="706" y="230" type="curve"/>
      <point x="720" y="196" type="line"/>
      <point x="731" y="196" type="line"/>
      <point x="731" y="193" type="line" smooth="yes"/>
      <point x="731" y="118"/>
      <point x="674" y="81"/>
      <point x="607" y="81" type="curve" smooth="yes"/>
      <point x="518" y="81"/>
      <point x="460" y="145"/>
      <point x="441" y="215" type="curve"/>
      <point x="427" y="215" type="line"/>
      <point x="423" y="197"/>
      <point x="423" y="179"/>
      <point x="423" y="160" type="curve" smooth="yes"/>
      <point x="423" y="49"/>
      <point x="502" y="-15"/>
    </contour>
    <contour>
      <point x="945" y="177" type="curve" smooth="yes"/>
      <point x="1002" y="177"/>
      <point x="1052" y="218"/>
      <point x="1052" y="286" type="curve" smooth="yes"/>
      <point x="1052" y="334"/>
      <point x="1021" y="378"/>
      <point x="967" y="385" type="curve"/>
      <point x="967" y="394" type="line"/>
      <point x="55" y="394" type="line"/>
      <point x="57" y="351" type="line"/>
      <point x="944" y="351" type="line" smooth="yes"/>
      <point x="979" y="351"/>
      <point x="1007" y="322"/>
      <point x="1007" y="285" type="curve" smooth="yes"/>
      <point x="1007" y="248"/>
      <point x="979" y="220"/>
      <point x="944" y="220" type="curve" smooth="yes"/>
      <point x="909" y="220"/>
      <point x="881" y="248"/>
      <point x="881" y="285" type="curve" smooth="yes"/>
      <point x="881" y="322"/>
      <point x="909" y="351"/>
      <point x="944" y="351" type="curve"/>
      <point x="944" y="365" type="line"/>
      <point x="854" y="365" type="line"/>
      <point x="862" y="349" type="line"/>
      <point x="846" y="329"/>
      <point x="840" y="301"/>
      <point x="840" y="280" type="curve" smooth="yes"/>
      <point x="840" y="225"/>
      <point x="882" y="177"/>
    </contour>
    <contour>
      <point x="384" y="504" type="line"/>
      <point x="396" y="570"/>
      <point x="400" y="630"/>
      <point x="400" y="648" type="curve" smooth="yes"/>
      <point x="400" y="676"/>
      <point x="391" y="695"/>
      <point x="363" y="695" type="curve" smooth="yes"/>
      <point x="337" y="695"/>
      <point x="326" y="678"/>
      <point x="326" y="657" type="curve" smooth="yes"/>
      <point x="326" y="631"/>
      <point x="352" y="558"/>
      <point x="372" y="500" type="curve"/>
    </contour>
    <contour>
      <point x="501" y="499" type="line"/>
      <point x="527" y="577"/>
      <point x="548" y="631"/>
      <point x="548" y="657" type="curve" smooth="yes"/>
      <point x="548" y="678"/>
      <point x="537" y="695"/>
      <point x="511" y="695" type="curve" smooth="yes"/>
      <point x="483" y="695"/>
      <point x="474" y="676"/>
      <point x="474" y="648" type="curve" smooth="yes"/>
      <point x="474" y="630"/>
      <point x="477" y="580"/>
      <point x="489" y="501" type="curve"/>
    </contour>
    <contour>
      <point x="982" y="385" type="line"/>
      <point x="1032" y="410"/>
      <point x="1042" y="444"/>
      <point x="1042" y="472" type="curve" smooth="yes"/>
      <point x="1042" y="533"/>
      <point x="997" y="568"/>
      <point x="942" y="568" type="curve" smooth="yes"/>
      <point x="883" y="568"/>
      <point x="848" y="524"/>
      <point x="848" y="479" type="curve" smooth="yes"/>
      <point x="848" y="472"/>
      <point x="849" y="462"/>
      <point x="852" y="454" type="curve"/>
      <point x="881" y="454" type="line"/>
      <point x="883" y="466"/>
      <point x="893" y="512"/>
      <point x="941" y="512" type="curve" smooth="yes"/>
      <point x="971" y="512"/>
      <point x="992" y="493"/>
      <point x="992" y="463" type="curve" smooth="yes"/>
      <point x="992" y="423"/>
      <point x="950" y="401"/>
      <point x="914" y="389" type="curve"/>
      <point x="982" y="368" type="line"/>
    </contour>
  </outline>
</glyph>
<glyph name="tVocalicR" format="2">
  <advance width="1493"/>
  <unicode hex="0C0B"/>
  <outline>
    <contour>
      <point x="908" y="-15" type="curve" smooth="yes"/>
      <point x="1020" y="-15"/>
      <point x="1084" y="97"/>
      <point x="1084" y="239" type="curve" smooth="yes"/>
      <point x="1084" y="437"/>
      <point x="931" y="525"/>
      <point x="853" y="525" type="curve" smooth="yes"/>
      <point x="812" y="525"/>
      <point x="802" y="503"/>
      <point x="802" y="487" type="curve" smooth="yes"/>
      <point x="802" y="468"/>
      <point x="816" y="447"/>
      <point x="849" y="447" type="curve" smooth="yes"/>
      <point x="856" y="447"/>
      <point x="870" y="448"/>
      <point x="879" y="448" type="curve" smooth="yes"/>
      <point x="962" y="448"/>
      <point x="1038" y="369"/>
      <point x="1038" y="259" type="curve" smooth="yes"/>
      <point x="1038" y="167"/>
      <point x="991" y="92"/>
      <point x="896" y="92" type="curve" smooth="yes"/>
      <point x="822" y="92"/>
      <point x="745" y="133"/>
      <point x="736" y="266" type="curve"/>
      <point x="710" y="132" type="line"/>
      <point x="730" y="132" type="line"/>
      <point x="771" y="23"/>
      <point x="848" y="-15"/>
    </contour>
    <contour>
      <point x="244" y="-15" type="curve" smooth="yes"/>
      <point x="310" y="-15"/>
      <point x="375" y="19"/>
      <point x="407" y="86" type="curve"/>
      <point x="427" y="86" type="line"/>
      <point x="401" y="215" type="line"/>
      <point x="371" y="142"/>
      <point x="335" y="92"/>
      <point x="242" y="92" type="curve" smooth="yes"/>
      <point x="178" y="92"/>
      <point x="127" y="115"/>
      <point x="127" y="163" type="curve" smooth="yes"/>
      <point x="127" y="211"/>
      <point x="177" y="229"/>
      <point x="240" y="247" type="curve" smooth="yes"/>
      <point x="325" y="271"/>
      <point x="391" y="300"/>
      <point x="391" y="385" type="curve" smooth="yes"/>
      <point x="391" y="470"/>
      <point x="325" y="525"/>
      <point x="238" y="525" type="curve" smooth="yes"/>
      <point x="143" y="525"/>
      <point x="85" y="462"/>
      <point x="85" y="372" type="curve"/>
      <point x="85" y="371"/>
      <point x="85" y="367"/>
      <point x="86" y="353" type="curve"/>
      <point x="120" y="353" type="line"/>
      <point x="124" y="392"/>
      <point x="145" y="452"/>
      <point x="243" y="452" type="curve" smooth="yes"/>
      <point x="313" y="452"/>
      <point x="345" y="420"/>
      <point x="345" y="378" type="curve" smooth="yes"/>
      <point x="345" y="319"/>
      <point x="286" y="303"/>
      <point x="223" y="285" type="curve" smooth="yes"/>
      <point x="151" y="264"/>
      <point x="73" y="238"/>
      <point x="73" y="140" type="curve" smooth="yes"/>
      <point x="73" y="34"/>
      <point x="163" y="-15"/>
    </contour>
    <contour>
      <point x="565" y="-15" type="curve" smooth="yes"/>
      <point x="681" y="-15"/>
      <point x="738" y="99"/>
      <point x="738" y="236" type="curve" smooth="yes"/>
      <point x="738" y="413"/>
      <point x="606" y="525"/>
      <point x="515" y="525" type="curve" smooth="yes"/>
      <point x="474" y="525"/>
      <point x="463" y="503"/>
      <point x="463" y="487" type="curve" smooth="yes"/>
      <point x="463" y="468"/>
      <point x="478" y="447"/>
      <point x="512" y="447" type="curve" smooth="yes"/>
      <point x="519" y="447"/>
      <point x="532" y="448"/>
      <point x="540" y="448" type="curve" smooth="yes"/>
      <point x="620" y="448"/>
      <point x="692" y="365"/>
      <point x="692" y="256" type="curve" smooth="yes"/>
      <point x="692" y="160"/>
      <point x="635" y="92"/>
      <point x="557" y="92" type="curve" smooth="yes"/>
      <point x="487" y="92"/>
      <point x="437" y="147"/>
      <point x="415" y="215" type="curve"/>
      <point x="401" y="215" type="line"/>
      <point x="398" y="195"/>
      <point x="396" y="177"/>
      <point x="396" y="160" type="curve" smooth="yes"/>
      <point x="396" y="51"/>
      <point x="481" y="-15"/>
    </contour>
    <contour>
      <point x="1249" y="-15" type="curve" smooth="yes"/>
      <point x="1344" y="-15"/>
      <point x="1420" y="80"/>
      <point x="1420" y="227" type="curve" smooth="yes"/>
      <point x="1420" y="427"/>
      <point x="1280" y="525"/>
      <point x="1199" y="525" type="curve" smooth="yes"/>
      <point x="1161" y="525"/>
      <point x="1150" y="503"/>
      <point x="1150" y="487" type="curve" smooth="yes"/>
      <point x="1150" y="468"/>
      <point x="1165" y="447"/>
      <point x="1195" y="447" type="curve" smooth="yes"/>
      <point x="1203" y="447"/>
      <point x="1215" y="448"/>
      <point x="1224" y="448" type="curve" smooth="yes"/>
      <point x="1302" y="448"/>
      <point x="1373" y="366"/>
      <point x="1373" y="256" type="curve" smooth="yes"/>
      <point x="1373" y="171"/>
      <point x="1333" y="92"/>
      <point x="1236" y="92" type="curve" smooth="yes"/>
      <point x="1196" y="92"/>
      <point x="1147" y="106"/>
      <point x="1117" y="147" type="curve" smooth="yes"/>
      <point x="1096" y="175"/>
      <point x="1088" y="204"/>
      <point x="1082" y="272" type="curve"/>
      <point x="1054" y="132" type="line"/>
      <point x="1074" y="132" type="line"/>
      <point x="1106" y="10"/>
      <point x="1197" y="-15"/>
    </contour>
  </outline>
  <guideline angle="0" x="0" y="132"/>
</glyph>
<glyph name="tVocalicL" format="2">
  <advance width="970"/>
  <unicode hex="0C0C"/>
  <outline>
    <contour>
      <point x="518" y="-250" type="curve" smooth="yes"/>
      <point x="768" y="-250"/>
      <point x="892" y="-22"/>
      <point x="892" y="193" type="curve" smooth="yes"/>
      <point x="892" y="380"/>
      <point x="793" y="525"/>
      <point x="737" y="525" type="curve" smooth="yes"/>
      <point x="718" y="525"/>
      <point x="703" y="515"/>
      <point x="703" y="493" type="curve" smooth="yes"/>
      <point x="703" y="460"/>
      <point x="754" y="443"/>
      <point x="796" y="387" type="curve" smooth="yes"/>
      <point x="825" y="349"/>
      <point x="849" y="292"/>
      <point x="849" y="199" type="curve" smooth="yes"/>
      <point x="849" y="22"/>
      <point x="752" y="-143"/>
      <point x="511" y="-143" type="curve" smooth="yes"/>
      <point x="376" y="-143"/>
      <point x="318" y="-92"/>
      <point x="318" y="-36" type="curve" smooth="yes"/>
      <point x="318" y="25"/>
      <point x="384" y="57"/>
      <point x="457" y="82" type="curve" smooth="yes"/>
      <point x="557" y="116"/>
      <point x="687" y="157"/>
      <point x="687" y="326" type="curve" smooth="yes"/>
      <point x="687" y="452"/>
      <point x="614" y="525"/>
      <point x="522" y="525" type="curve" smooth="yes"/>
      <point x="462" y="525"/>
      <point x="397" y="493"/>
      <point x="360" y="406" type="curve"/>
      <point x="373" y="296" type="line"/>
      <point x="397" y="376"/>
      <point x="457" y="434"/>
      <point x="524" y="434" type="curve" smooth="yes"/>
      <point x="582" y="434"/>
      <point x="639" y="391"/>
      <point x="639" y="305" type="curve" smooth="yes"/>
      <point x="639" y="191"/>
      <point x="543" y="157"/>
      <point x="451" y="125" type="curve" smooth="yes"/>
      <point x="358" y="93"/>
      <point x="262" y="55"/>
      <point x="262" y="-50" type="curve" smooth="yes"/>
      <point x="262" y="-151"/>
      <point x="349" y="-250"/>
    </contour>
    <contour>
      <point x="107" y="301" type="line"/>
      <point x="105" y="310"/>
      <point x="103" y="322"/>
      <point x="103" y="333" type="curve" smooth="yes"/>
      <point x="103" y="387"/>
      <point x="150" y="434"/>
      <point x="215" y="434" type="curve" smooth="yes"/>
      <point x="290" y="434"/>
      <point x="336" y="371"/>
      <point x="358" y="296" type="curve"/>
      <point x="373" y="296" type="line"/>
      <point x="385" y="425" type="line"/>
      <point x="365" y="425" type="line"/>
      <point x="333" y="491"/>
      <point x="280" y="525"/>
      <point x="217" y="525" type="curve" smooth="yes"/>
      <point x="131" y="525"/>
      <point x="60" y="462"/>
      <point x="60" y="364" type="curve" smooth="yes"/>
      <point x="60" y="343"/>
      <point x="63" y="318"/>
      <point x="71" y="294" type="curve"/>
    </contour>
  </outline>
</glyph>
<glyph name="tE" format="2">
  <advance width="793"/>
  <unicode hex="0C0E"/>
  <outline>
    <contour>
      <point x="514" y="-15" type="curve" smooth="yes"/>
      <point x="625" y="-15"/>
      <point x="717" y="92"/>
      <point x="717" y="289" type="curve" smooth="yes"/>
      <point x="717" y="623"/>
      <point x="459" y="796"/>
      <point x="320" y="796" type="curve" smooth="yes"/>
      <point x="271" y="796"/>
      <point x="262" y="775"/>
      <point x="262" y="759" type="curve" smooth="yes"/>
      <point x="262" y="739"/>
      <point x="275" y="718"/>
      <point x="312" y="718" type="curve" smooth="yes"/>
      <point x="320" y="718"/>
      <point x="332" y="719"/>
      <point x="345" y="719" type="curve" smooth="yes"/>
      <point x="511" y="719"/>
      <point x="666" y="550"/>
      <point x="666" y="322" type="curve" smooth="yes"/>
      <point x="666" y="194"/>
      <point x="619" y="92"/>
      <point x="496" y="92" type="curve" smooth="yes"/>
      <point x="399" y="92"/>
      <point x="354" y="157"/>
      <point x="345" y="181" type="curve"/>
      <point x="330" y="102" type="line"/>
      <point x="350" y="102" type="line"/>
      <point x="383" y="16"/>
      <point x="455" y="-15"/>
    </contour>
    <contour>
      <point x="207" y="-15" type="curve" smooth="yes"/>
      <point x="278" y="-15"/>
      <point x="348" y="35"/>
      <point x="348" y="129" type="curve"/>
      <point x="345" y="181" type="line"/>
      <point x="337" y="203"/>
      <point x="305" y="283"/>
      <point x="208" y="283" type="curve" smooth="yes"/>
      <point x="123" y="283"/>
      <point x="60" y="220"/>
      <point x="60" y="136" type="curve" smooth="yes"/>
      <point x="60" y="51"/>
      <point x="124" y="-15"/>
    </contour>
    <contour>
      <point x="205" y="86" type="curve" smooth="yes"/>
      <point x="143" y="86"/>
      <point x="109" y="122"/>
      <point x="109" y="158" type="curve" smooth="yes"/>
      <point x="109" y="197"/>
      <point x="147" y="244"/>
      <point x="204" y="244" type="curve" smooth="yes"/>
      <point x="258" y="244"/>
      <point x="304" y="204"/>
      <point x="304" y="159" type="curve" smooth="yes"/>
      <point x="304" y="118"/>
      <point x="265" y="86"/>
    </contour>
  </outline>
</glyph>
<glyph name="tAi" format="2">
  <advance width="807"/>
  <unicode hex="0C10"/>
  <outline>
    <contour>
      <point x="220" y="-15" type="curve" smooth="yes"/>
      <point x="297" y="-15"/>
      <point x="358" y="41"/>
      <point x="361" y="121" type="curve"/>
      <point x="317" y="159" type="line"/>
      <point x="317" y="118"/>
      <point x="278" y="86"/>
      <point x="218" y="86" type="curve" smooth="yes"/>
      <point x="156" y="86"/>
      <point x="122" y="122"/>
      <point x="122" y="158" type="curve" smooth="yes"/>
      <point x="122" y="197"/>
      <point x="160" y="244"/>
      <point x="217" y="244" type="curve" smooth="yes"/>
      <point x="271" y="244"/>
      <point x="317" y="204"/>
      <point x="317" y="159" type="curve"/>
      <point x="343" y="102" type="line"/>
      <point x="363" y="102" type="line"/>
      <point x="397" y="16"/>
      <point x="466" y="-15"/>
      <point x="528" y="-15" type="curve" smooth="yes"/>
      <point x="636" y="-15"/>
      <point x="734" y="80"/>
      <point x="734" y="266" type="curve" smooth="yes"/>
      <point x="734" y="445"/>
      <point x="643" y="525"/>
      <point x="548" y="525" type="curve" smooth="yes"/>
      <point x="487" y="525"/>
      <point x="432" y="491"/>
      <point x="399" y="434" type="curve"/>
      <point x="379" y="434" type="line"/>
      <point x="405" y="313" type="line"/>
      <point x="431" y="387"/>
      <point x="479" y="442"/>
      <point x="552" y="442" type="curve" smooth="yes"/>
      <point x="623" y="442"/>
      <point x="689" y="391"/>
      <point x="689" y="276" type="curve" smooth="yes"/>
      <point x="689" y="174"/>
      <point x="640" y="92"/>
      <point x="516" y="92" type="curve" smooth="yes"/>
      <point x="406" y="92"/>
      <point x="368" y="158"/>
      <point x="358" y="181" type="curve" smooth="yes"/>
      <point x="349" y="204"/>
      <point x="317" y="283"/>
      <point x="221" y="283" type="curve" smooth="yes"/>
      <point x="136" y="283"/>
      <point x="73" y="220"/>
      <point x="73" y="136" type="curve" smooth="yes"/>
      <point x="73" y="51"/>
      <point x="137" y="-15"/>
    </contour>
    <contour>
      <point x="405" y="313" type="line"/>
      <point x="410" y="386" type="line"/>
      <point x="398" y="467"/>
      <point x="324" y="525"/>
      <point x="237" y="525" type="curve" smooth="yes"/>
      <point x="159" y="525"/>
      <point x="75" y="478"/>
      <point x="75" y="372" type="curve" smooth="yes"/>
      <point x="75" y="360"/>
      <point x="76" y="338"/>
      <point x="83" y="317" type="curve"/>
      <point x="118" y="324" type="line"/>
      <point x="117" y="331"/>
      <point x="116" y="339"/>
      <point x="116" y="346" type="curve" smooth="yes"/>
      <point x="116" y="400"/>
      <point x="169" y="442"/>
      <point x="236" y="442" type="curve" smooth="yes"/>
      <point x="315" y="442"/>
      <point x="371" y="384"/>
      <point x="394" y="313" type="curve"/>
    </contour>
  </outline>
</glyph>
<glyph name="tO" format="2">
  <advance width="797"/>
  <unicode hex="0C12"/>
  <outline>
    <contour>
      <point x="244" y="-15" type="curve" smooth="yes"/>
      <point x="333" y="-15"/>
      <point x="423" y="48"/>
      <point x="423" y="167" type="curve"/>
      <point x="415" y="215" type="line"/>
      <point x="401" y="215" type="line"/>
      <point x="372" y="143"/>
      <point x="335" y="92"/>
      <point x="243" y="92" type="curve" smooth="yes"/>
      <point x="178" y="92"/>
      <point x="127" y="115"/>
      <point x="127" y="163" type="curve" smooth="yes"/>
      <point x="127" y="213"/>
      <point x="181" y="229"/>
      <point x="240" y="247" type="curve" smooth="yes"/>
      <point x="312" y="269"/>
      <point x="391" y="291"/>
      <point x="391" y="386" type="curve" smooth="yes"/>
      <point x="391" y="470"/>
      <point x="325" y="525"/>
      <point x="238" y="525" type="curve" smooth="yes"/>
      <point x="143" y="525"/>
      <point x="85" y="462"/>
      <point x="85" y="372" type="curve"/>
      <point x="85" y="371"/>
      <point x="85" y="367"/>
      <point x="86" y="353" type="curve"/>
      <point x="120" y="353" type="line"/>
      <point x="124" y="392"/>
      <point x="145" y="452"/>
      <point x="242" y="452" type="curve" smooth="yes"/>
      <point x="314" y="452"/>
      <point x="345" y="420"/>
      <point x="345" y="378" type="curve" smooth="yes"/>
      <point x="345" y="319"/>
      <point x="286" y="303"/>
      <point x="223" y="285" type="curve" smooth="yes"/>
      <point x="151" y="264"/>
      <point x="73" y="238"/>
      <point x="73" y="140" type="curve" smooth="yes"/>
      <point x="73" y="34"/>
      <point x="163" y="-15"/>
    </contour>
    <contour>
      <point x="570" y="-15" type="curve" smooth="yes"/>
      <point x="651" y="-15"/>
      <point x="732" y="39"/>
      <point x="732" y="153" type="curve" smooth="yes"/>
      <point x="732" y="189"/>
      <point x="724" y="256"/>
      <point x="668" y="299" type="curve"/>
      <point x="644" y="273" type="line"/>
      <point x="673" y="245"/>
      <point x="684" y="209"/>
      <point x="684" y="182" type="curve" smooth="yes"/>
      <point x="684" y="131"/>
      <point x="637" y="92"/>
      <point x="563" y="92" type="curve" smooth="yes"/>
      <point x="483" y="92"/>
      <point x="439" y="145"/>
      <point x="415" y="215" type="curve"/>
      <point x="391" y="86" type="line"/>
      <point x="411" y="86" type="line"/>
      <point x="439" y="22"/>
      <point x="503" y="-15"/>
    </contour>
  </outline>
</glyph>
<glyph name="tAu" format="2">
  <advance width="832"/>
  <unicode hex="0C14"/>
  <outline>
    <contour>
      <point x="244" y="-15" type="curve" smooth="yes"/>
      <point x="333" y="-15"/>
      <point x="417" y="49"/>
      <point x="422" y="149" type="curve"/>
      <point x="415" y="215" type="line"/>
      <point x="401" y="215" type="line"/>
      <point x="372" y="143"/>
      <point x="335" y="92"/>
      <point x="243" y="92" type="curve" smooth="yes"/>
      <point x="178" y="92"/>
      <point x="127" y="115"/>
      <point x="127" y="163" type="curve" smooth="yes"/>
      <point x="127" y="213"/>
      <point x="181" y="229"/>
      <point x="240" y="247" type="curve" smooth="yes"/>
      <point x="312" y="269"/>
      <point x="391" y="291"/>
      <point x="391" y="386" type="curve" smooth="yes"/>
      <point x="391" y="425"/>
      <point x="374" y="522"/>
      <point x="226" y="522" type="curve" smooth="yes"/>
      <point x="147" y="522"/>
      <point x="85" y="467"/>
      <point x="85" y="372" type="curve"/>
      <point x="85" y="371"/>
      <point x="85" y="367"/>
      <point x="86" y="353" type="curve"/>
      <point x="120" y="353" type="line"/>
      <point x="124" y="392"/>
      <point x="145" y="452"/>
      <point x="242" y="452" type="curve" smooth="yes"/>
      <point x="314" y="452"/>
      <point x="345" y="420"/>
      <point x="345" y="378" type="curve" smooth="yes"/>
      <point x="345" y="319"/>
      <point x="286" y="303"/>
      <point x="223" y="285" type="curve" smooth="yes"/>
      <point x="151" y="264"/>
      <point x="73" y="238"/>
      <point x="73" y="140" type="curve" smooth="yes"/>
      <point x="73" y="34"/>
      <point x="163" y="-15"/>
    </contour>
    <contour>
      <point x="570" y="-15" type="curve" smooth="yes"/>
      <point x="651" y="-15"/>
      <point x="732" y="39"/>
      <point x="732" y="153" type="curve" smooth="yes"/>
      <point x="732" y="189"/>
      <point x="724" y="256"/>
      <point x="668" y="299" type="curve"/>
      <point x="644" y="273" type="line"/>
      <point x="673" y="245"/>
      <point x="684" y="209"/>
      <point x="684" y="182" type="curve" smooth="yes"/>
      <point x="684" y="131"/>
      <point x="637" y="92"/>
      <point x="563" y="92" type="curve" smooth="yes"/>
      <point x="483" y="92"/>
      <point x="439" y="145"/>
      <point x="415" y="215" type="curve"/>
      <point x="391" y="86" type="line"/>
      <point x="411" y="86" type="line"/>
      <point x="439" y="22"/>
      <point x="503" y="-15"/>
    </contour>
    <contour>
      <point x="371" y="482" type="line" smooth="yes"/>
      <point x="427" y="482"/>
      <point x="467" y="512"/>
      <point x="467" y="561" type="curve" smooth="yes"/>
      <point x="467" y="591"/>
      <point x="452" y="614"/>
      <point x="434" y="625" type="curve"/>
      <point x="443" y="647" type="line"/>
      <point x="342" y="647" type="line"/>
      <point x="342" y="627" type="line"/>
      <point x="390" y="627"/>
      <point x="422" y="605"/>
      <point x="422" y="568" type="curve" smooth="yes"/>
      <point x="422" y="540"/>
      <point x="405" y="525"/>
      <point x="362" y="525" type="curve" smooth="yes"/>
      <point x="61" y="525" type="line"/>
      <point x="63" y="482" type="line"/>
    </contour>
    <contour>
      <point x="701" y="458" type="curve" smooth="yes"/>
      <point x="760" y="458"/>
      <point x="812" y="497"/>
      <point x="812" y="567" type="curve" smooth="yes"/>
      <point x="812" y="635"/>
      <point x="764" y="693"/>
      <point x="662" y="693" type="curve" smooth="yes"/>
      <point x="52" y="693" type="line"/>
      <point x="55" y="627" type="line"/>
      <point x="630" y="627" type="line"/>
      <point x="700" y="628" type="line"/>
      <point x="737" y="628"/>
      <point x="767" y="600"/>
      <point x="767" y="564" type="curve" smooth="yes"/>
      <point x="767" y="528"/>
      <point x="737" y="501"/>
      <point x="700" y="501" type="curve" smooth="yes"/>
      <point x="663" y="501"/>
      <point x="633" y="528"/>
      <point x="633" y="564" type="curve" smooth="yes"/>
      <point x="633" y="600"/>
      <point x="663" y="628"/>
      <point x="700" y="628" type="curve"/>
      <point x="632" y="640" type="line"/>
      <point x="602" y="617"/>
      <point x="592" y="585"/>
      <point x="592" y="559" type="curve" smooth="yes"/>
      <point x="592" y="505"/>
      <point x="636" y="458"/>
    </contour>
  </outline>
</glyph>
<glyph name="tKa" format="2">
  <advance width="552"/>
  <unicode hex="0C15"/>
  <outline>
    <contour>
      <point x="282" y="-15" type="curve" smooth="yes"/>
      <point x="400" y="-15"/>
      <point x="482" y="63"/>
      <point x="482" y="156" type="curve" smooth="yes"/>
      <point x="482" y="270"/>
      <point x="362" y="285"/>
      <point x="313" y="291" type="curve" smooth="yes"/>
      <point x="208" y="304"/>
      <point x="140" y="317"/>
      <point x="140" y="369" type="curve" smooth="yes"/>
      <point x="140" y="416"/>
      <point x="193" y="453"/>
      <point x="286" y="453" type="curve" smooth="yes"/>
      <point x="404" y="453"/>
      <point x="427" y="392"/>
      <point x="432" y="359" type="curve"/>
      <point x="466" y="359" type="line"/>
      <point x="467" y="370"/>
      <point x="467" y="373"/>
      <point x="467" y="374" type="curve"/>
      <point x="467" y="462"/>
      <point x="396" y="525"/>
      <point x="283" y="525" type="curve" smooth="yes"/>
      <point x="185" y="525"/>
      <point x="94" y="471"/>
      <point x="94" y="378" type="curve" smooth="yes"/>
      <point x="94" y="274"/>
      <point x="209" y="261"/>
      <point x="281" y="253" type="curve" smooth="yes"/>
      <point x="386" y="242"/>
      <point x="433" y="220"/>
      <point x="433" y="172" type="curve" smooth="yes"/>
      <point x="433" y="123"/>
      <point x="383" y="86"/>
      <point x="276" y="86" type="curve" smooth="yes"/>
      <point x="139" y="86"/>
      <point x="112" y="146"/>
      <point x="108" y="188" type="curve"/>
      <point x="72" y="188" type="line"/>
      <point x="71" y="179"/>
      <point x="70" y="169"/>
      <point x="70" y="159" type="curve" smooth="yes"/>
      <point x="70" y="57"/>
      <point x="169" y="-15"/>
    </contour>
    <contour>
      <point x="294" y="506" type="line"/>
      <point x="217" y="640"/>
      <point x="199" y="659"/>
      <point x="170" y="659" type="curve" smooth="yes"/>
      <point x="142" y="659"/>
      <point x="125" y="642"/>
      <point x="125" y="615" type="curve" smooth="yes"/>
      <point x="125" y="584"/>
      <point x="153" y="562"/>
      <point x="267" y="506" type="curve"/>
    </contour>
    <contour>
      <point x="292" y="502" type="line"/>
      <point x="418" y="605"/>
      <point x="470" y="642"/>
      <point x="560" y="707" type="curve" smooth="yes"/>
      <point x="573" y="717"/>
      <point x="579" y="722"/>
      <point x="579" y="727" type="curve" smooth="yes"/>
      <point x="579" y="732"/>
      <point x="576" y="734"/>
      <point x="562" y="734" type="curve" smooth="yes"/>
      <point x="544" y="734"/>
      <point x="488" y="731"/>
      <point x="480" y="730" type="curve" smooth="yes"/>
      <point x="464" y="728"/>
      <point x="462" y="725"/>
      <point x="455" y="715" type="curve" smooth="yes"/>
      <point x="412" y="653"/>
      <point x="366" y="606"/>
      <point x="272" y="523" type="curve"/>
    </contour>
  </outline>
</glyph>
<glyph name="tKha" format="2">
  <advance width="834"/>
  <unicode hex="0C16"/>
  <outline>
    <contour>
      <point x="224" y="-15" type="curve" smooth="yes"/>
      <point x="371" y="-15"/>
      <point x="472" y="146"/>
      <point x="472" y="286" type="curve" smooth="yes"/>
      <point x="472" y="425"/>
      <point x="373" y="525"/>
      <point x="249" y="525" type="curve" smooth="yes"/>
      <point x="142" y="525"/>
      <point x="78" y="451"/>
      <point x="78" y="372" type="curve" smooth="yes"/>
      <point x="78" y="296"/>
      <point x="135" y="261"/>
      <point x="196" y="261" type="curve" smooth="yes"/>
      <point x="266" y="261"/>
      <point x="309" y="309"/>
      <point x="309" y="363" type="curve" smooth="yes"/>
      <point x="309" y="416"/>
      <point x="266" y="458"/>
      <point x="203" y="458" type="curve" smooth="yes"/>
      <point x="186" y="458"/>
      <point x="168" y="455"/>
      <point x="152" y="448" type="curve"/>
      <point x="133" y="467" type="line"/>
      <point x="105" y="393" type="line"/>
      <point x="132" y="412"/>
      <point x="156" y="420"/>
      <point x="180" y="420" type="curve" smooth="yes"/>
      <point x="219" y="420"/>
      <point x="247" y="396"/>
      <point x="247" y="361" type="curve" smooth="yes"/>
      <point x="247" y="326"/>
      <point x="220" y="304"/>
      <point x="184" y="304" type="curve" smooth="yes"/>
      <point x="148" y="304"/>
      <point x="117" y="326"/>
      <point x="117" y="370" type="curve" smooth="yes"/>
      <point x="117" y="420"/>
      <point x="159" y="487"/>
      <point x="248" y="487" type="curve" smooth="yes"/>
      <point x="351" y="487"/>
      <point x="425" y="398"/>
      <point x="425" y="296" type="curve" smooth="yes"/>
      <point x="425" y="191"/>
      <point x="346" y="80"/>
      <point x="216" y="80" type="curve" smooth="yes"/>
      <point x="155" y="80"/>
      <point x="122" y="102"/>
      <point x="122" y="128" type="curve" smooth="yes"/>
      <point x="122" y="153"/>
      <point x="156" y="182"/>
      <point x="215" y="182" type="curve" smooth="yes"/>
      <point x="382" y="182"/>
      <point x="412" y="-15"/>
      <point x="567" y="-15" type="curve" smooth="yes"/>
      <point x="677" y="-15"/>
      <point x="761" y="87"/>
      <point x="761" y="236" type="curve" smooth="yes"/>
      <point x="761" y="435"/>
      <point x="609" y="525"/>
      <point x="529" y="525" type="curve" smooth="yes"/>
      <point x="497" y="525"/>
      <point x="482" y="506"/>
      <point x="482" y="487" type="curve" smooth="yes"/>
      <point x="482" y="468"/>
      <point x="497" y="449"/>
      <point x="526" y="449" type="curve" smooth="yes"/>
      <point x="533" y="449"/>
      <point x="544" y="450"/>
      <point x="553" y="450" type="curve" smooth="yes"/>
      <point x="637" y="450"/>
      <point x="714" y="371"/>
      <point x="714" y="264" type="curve" smooth="yes"/>
      <point x="714" y="178"/>
      <point x="662" y="92"/>
      <point x="554" y="92" type="curve" smooth="yes"/>
      <point x="433" y="92"/>
      <point x="355" y="219"/>
      <point x="213" y="219" type="curve" smooth="yes"/>
      <point x="129" y="219"/>
      <point x="73" y="170"/>
      <point x="73" y="107" type="curve" smooth="yes"/>
      <point x="73" y="37"/>
      <point x="138" y="-15"/>
    </contour>
    <contour>
      <point x="400" y="-153" type="curve" smooth="yes"/>
      <point x="427" y="-153"/>
      <point x="445" y="-133"/>
      <point x="445" y="-109" type="curve" smooth="yes"/>
      <point x="445" y="-89"/>
      <point x="433" y="-54"/>
      <point x="403" y="19" type="curve"/>
      <point x="397" y="19" type="line"/>
      <point x="365" y="-55"/>
      <point x="355" y="-89"/>
      <point x="355" y="-108" type="curve" smooth="yes"/>
      <point x="355" y="-134"/>
      <point x="372" y="-153"/>
    </contour>
  </outline>
</glyph>
<glyph name="tGa" format="2">
  <advance width="647"/>
  <unicode hex="0C17"/>
  <outline>
    <contour>
      <point x="150" y="-15" type="curve" smooth="yes"/>
      <point x="182" y="-15"/>
      <point x="206" y="9"/>
      <point x="206" y="36" type="curve" smooth="yes"/>
      <point x="206" y="76"/>
      <point x="148" y="107"/>
      <point x="148" y="232" type="curve" smooth="yes"/>
      <point x="148" y="420"/>
      <point x="278" y="482"/>
      <point x="320" y="482" type="curve" smooth="yes"/>
      <point x="368" y="482"/>
      <point x="501" y="420"/>
      <point x="501" y="231" type="curve" smooth="yes"/>
      <point x="501" y="106"/>
      <point x="443" y="76"/>
      <point x="443" y="34" type="curve" smooth="yes"/>
      <point x="443" y="8"/>
      <point x="467" y="-15"/>
      <point x="498" y="-15" type="curve" smooth="yes"/>
      <point x="545" y="-15"/>
      <point x="577" y="35"/>
      <point x="577" y="147" type="curve" smooth="yes"/>
      <point x="577" y="378"/>
      <point x="442" y="525"/>
      <point x="323" y="525" type="curve" smooth="yes"/>
      <point x="212" y="525"/>
      <point x="70" y="384"/>
      <point x="70" y="149" type="curve" smooth="yes"/>
      <point x="70" y="34"/>
      <point x="105" y="-15"/>
    </contour>
    <contour>
      <point x="335" y="516" type="line"/>
      <point x="263" y="641"/>
      <point x="245" y="659"/>
      <point x="217" y="659" type="curve" smooth="yes"/>
      <point x="189" y="659"/>
      <point x="172" y="642"/>
      <point x="172" y="615" type="curve" smooth="yes"/>
      <point x="172" y="584"/>
      <point x="202" y="559"/>
      <point x="330" y="499" type="curve"/>
    </contour>
    <contour>
      <point x="341" y="503" type="line"/>
      <point x="464" y="604"/>
      <point x="518" y="642"/>
      <point x="607" y="707" type="curve" smooth="yes"/>
      <point x="620" y="717"/>
      <point x="626" y="722"/>
      <point x="626" y="727" type="curve" smooth="yes"/>
      <point x="626" y="732"/>
      <point x="623" y="734"/>
      <point x="609" y="734" type="curve" smooth="yes"/>
      <point x="591" y="734"/>
      <point x="535" y="731"/>
      <point x="527" y="730" type="curve" smooth="yes"/>
      <point x="511" y="728"/>
      <point x="509" y="725"/>
      <point x="502" y="715" type="curve" smooth="yes"/>
      <point x="459" y="653"/>
      <point x="414" y="607"/>
      <point x="310" y="515" type="curve"/>
    </contour>
  </outline>
  <guideline angle="0" x="0" y="520"/>
</glyph>
<glyph name="tNga" format="2">
  <advance width="799"/>
  <unicode hex="0C19"/>
  <outline>
    <contour>
      <point x="244" y="-15" type="curve" smooth="yes"/>
      <point x="333" y="-15"/>
      <point x="423" y="47"/>
      <point x="423" y="167" type="curve"/>
      <point x="415" y="215" type="line"/>
      <point x="401" y="215" type="line"/>
      <point x="372" y="143"/>
      <point x="335" y="92"/>
      <point x="243" y="92" type="curve" smooth="yes"/>
      <point x="178" y="92"/>
      <point x="127" y="115"/>
      <point x="127" y="163" type="curve" smooth="yes"/>
      <point x="127" y="213"/>
      <point x="180" y="229"/>
      <point x="253" y="251" type="curve" smooth="yes"/>
      <point x="321" y="272"/>
      <point x="391" y="297"/>
      <point x="391" y="386" type="curve" smooth="yes"/>
      <point x="391" y="470"/>
      <point x="325" y="525"/>
      <point x="238" y="525" type="curve" smooth="yes"/>
      <point x="143" y="525"/>
      <point x="85" y="462"/>
      <point x="85" y="372" type="curve"/>
      <point x="85" y="371"/>
      <point x="85" y="367"/>
      <point x="86" y="353" type="curve"/>
      <point x="120" y="353" type="line"/>
      <point x="124" y="392"/>
      <point x="145" y="452"/>
      <point x="242" y="452" type="curve" smooth="yes"/>
      <point x="314" y="452"/>
      <point x="345" y="420"/>
      <point x="345" y="378" type="curve" smooth="yes"/>
      <point x="345" y="319"/>
      <point x="286" y="303"/>
      <point x="223" y="285" type="curve" smooth="yes"/>
      <point x="151" y="264"/>
      <point x="73" y="238"/>
      <point x="73" y="140" type="curve" smooth="yes"/>
      <point x="73" y="34"/>
      <point x="163" y="-15"/>
    </contour>
    <contour>
      <point x="569" y="-15" type="curve" smooth="yes"/>
      <point x="649" y="-15"/>
      <point x="734" y="43"/>
      <point x="734" y="153" type="curve" smooth="yes"/>
      <point x="734" y="177"/>
      <point x="730" y="213"/>
      <point x="709" y="247" type="curve"/>
      <point x="675" y="232" type="line"/>
      <point x="683" y="216"/>
      <point x="686" y="196"/>
      <point x="686" y="183" type="curve" smooth="yes"/>
      <point x="686" y="132"/>
      <point x="640" y="92"/>
      <point x="571" y="92" type="curve" smooth="yes"/>
      <point x="489" y="92"/>
      <point x="438" y="147"/>
      <point x="415" y="215" type="curve"/>
      <point x="391" y="86" type="line"/>
      <point x="411" y="86" type="line"/>
      <point x="439" y="22"/>
      <point x="506" y="-15"/>
    </contour>
    <contour>
      <point x="668" y="311" type="line"/>
      <point x="666" y="354" type="line"/>
      <point x="358" y="354" type="line"/>
      <point x="348" y="311" type="line"/>
    </contour>
    <contour>
      <point x="527" y="331" type="line"/>
      <point x="553" y="427"/>
      <point x="560" y="467"/>
      <point x="560" y="485" type="curve" smooth="yes"/>
      <point x="560" y="510"/>
      <point x="546" y="525"/>
      <point x="523" y="525" type="curve" smooth="yes"/>
      <point x="499" y="525"/>
      <point x="484" y="511"/>
      <point x="484" y="486" type="curve" smooth="yes"/>
      <point x="484" y="466"/>
      <point x="493" y="420"/>
      <point x="516" y="331" type="curve"/>
    </contour>
  </outline>
</glyph>
<glyph name="tCha" format="2">
  <advance width="857"/>
  <unicode hex="0C1B"/>
  <outline>
    <contour>
      <point x="602" y="-15" type="curve" smooth="yes"/>
      <point x="690" y="-15"/>
      <point x="784" y="59"/>
      <point x="784" y="205" type="curve" smooth="yes"/>
      <point x="784" y="376"/>
      <point x="660" y="520"/>
      <point x="444" y="523" type="curve"/>
      <point x="435" y="485" type="line"/>
      <point x="632" y="477"/>
      <point x="729" y="362"/>
      <point x="729" y="235" type="curve" smooth="yes"/>
      <point x="729" y="143"/>
      <point x="674" y="92"/>
      <point x="604" y="92" type="curve" smooth="yes"/>
      <point x="531" y="92"/>
      <point x="471" y="150"/>
      <point x="451" y="215" type="curve"/>
      <point x="427" y="86" type="line"/>
      <point x="447" y="86" type="line"/>
      <point x="474" y="22"/>
      <point x="539" y="-15"/>
    </contour>
    <contour>
      <point x="445" y="-153" type="curve" smooth="yes"/>
      <point x="472" y="-153"/>
      <point x="490" y="-133"/>
      <point x="490" y="-109" type="curve" smooth="yes"/>
      <point x="490" y="-89"/>
      <point x="478" y="-54"/>
      <point x="448" y="19" type="curve"/>
      <point x="442" y="19" type="line"/>
      <point x="410" y="-55"/>
      <point x="400" y="-89"/>
      <point x="400" y="-108" type="curve" smooth="yes"/>
      <point x="400" y="-134"/>
      <point x="417" y="-153"/>
    </contour>
    <contour>
      <point x="284" y="-15" type="curve" smooth="yes"/>
      <point x="368" y="-15"/>
      <point x="458" y="47"/>
      <point x="458" y="162" type="curve" smooth="yes"/>
      <point x="458" y="178"/>
      <point x="455" y="196"/>
      <point x="451" y="215" type="curve"/>
      <point x="437" y="215" type="line"/>
      <point x="412" y="145"/>
      <point x="367" y="92"/>
      <point x="288" y="92" type="curve" smooth="yes"/>
      <point x="215" y="92"/>
      <point x="176" y="138"/>
      <point x="176" y="187" type="curve" smooth="yes"/>
      <point x="176" y="231"/>
      <point x="208" y="281"/>
      <point x="287" y="298" type="curve"/>
      <point x="253" y="321" type="line"/>
      <point x="154" y="289"/>
      <point x="118" y="219"/>
      <point x="118" y="151" type="curve" smooth="yes"/>
      <point x="118" y="49"/>
      <point x="199" y="-15"/>
    </contour>
    <contour>
      <point x="287" y="298" type="line"/>
      <point x="292" y="325" type="line"/>
      <point x="225" y="346"/>
      <point x="171" y="366"/>
      <point x="107" y="392" type="curve" smooth="yes"/>
      <point x="98" y="396"/>
      <point x="93" y="398"/>
      <point x="88" y="398" type="curve" smooth="yes"/>
      <point x="75" y="398"/>
      <point x="30" y="338"/>
      <point x="30" y="326" type="curve" smooth="yes"/>
      <point x="30" y="320"/>
      <point x="33" y="318"/>
      <point x="46" y="318" type="curve" smooth="yes"/>
      <point x="85" y="318"/>
      <point x="141" y="317"/>
      <point x="219" y="311" type="curve"/>
      <point x="225" y="298" type="line"/>
    </contour>
    <contour>
      <point x="458" y="494" type="line"/>
      <point x="372" y="638"/>
      <point x="354" y="657"/>
      <point x="324" y="657" type="curve" smooth="yes"/>
      <point x="296" y="657"/>
      <point x="282" y="639"/>
      <point x="282" y="617" type="curve" smooth="yes"/>
      <point x="282" y="579"/>
      <point x="324" y="552"/>
      <point x="435" y="485" type="curve"/>
    </contour>
    <contour>
      <point x="480" y="523" type="line"/>
      <point x="670" y="682"/>
      <point x="735" y="714"/>
      <point x="735" y="727" type="curve" smooth="yes"/>
      <point x="735" y="732"/>
      <point x="732" y="734"/>
      <point x="718" y="734" type="curve" smooth="yes"/>
      <point x="700" y="734"/>
      <point x="644" y="731"/>
      <point x="636" y="730" type="curve" smooth="yes"/>
      <point x="620" y="728"/>
      <point x="618" y="725"/>
      <point x="611" y="715" type="curve" smooth="yes"/>
      <point x="567" y="652"/>
      <point x="516" y="600"/>
      <point x="417" y="513" type="curve"/>
      <point x="480" y="500" type="line"/>
    </contour>
  </outline>
</glyph>
<glyph name="tNya" format="2">
  <advance width="994"/>
  <unicode hex="0C1E"/>
  <outline>
    <contour>
      <point x="647" y="-61" type="curve" smooth="yes"/>
      <point x="669" y="-61"/>
      <point x="676" y="-42"/>
      <point x="676" y="-26" type="curve" smooth="yes"/>
      <point x="676" y="89"/>
      <point x="526" y="259"/>
      <point x="319" y="259" type="curve" smooth="yes"/>
      <point x="198" y="259"/>
      <point x="112" y="204"/>
      <point x="112" y="126" type="curve" smooth="yes"/>
      <point x="112" y="52"/>
      <point x="188" y="-15"/>
      <point x="322" y="-15" type="curve" smooth="yes"/>
      <point x="514" y="-15"/>
      <point x="686" y="130"/>
      <point x="686" y="332" type="curve" smooth="yes"/>
      <point x="686" y="445"/>
      <point x="620" y="525"/>
      <point x="523" y="525" type="curve" smooth="yes"/>
      <point x="465" y="525"/>
      <point x="408" y="495"/>
      <point x="368" y="434" type="curve"/>
      <point x="328" y="434" type="line"/>
      <point x="371" y="313" type="line"/>
      <point x="396" y="382"/>
      <point x="456" y="434"/>
      <point x="523" y="434" type="curve" smooth="yes"/>
      <point x="582" y="434"/>
      <point x="642" y="392"/>
      <point x="642" y="314" type="curve" smooth="yes"/>
      <point x="642" y="243"/>
      <point x="577" y="85"/>
      <point x="315" y="85" type="curve" smooth="yes"/>
      <point x="209" y="85"/>
      <point x="158" y="112"/>
      <point x="158" y="145" type="curve" smooth="yes"/>
      <point x="158" y="183"/>
      <point x="218" y="223"/>
      <point x="321" y="223" type="curve" smooth="yes"/>
      <point x="488" y="223"/>
      <point x="610" y="111"/>
      <point x="616" y="-28" type="curve" smooth="yes"/>
      <point x="617" y="-52"/>
      <point x="633" y="-61"/>
    </contour>
    <contour>
      <point x="103" y="316" type="line"/>
      <point x="102" y="323"/>
      <point x="101" y="330"/>
      <point x="101" y="338" type="curve" smooth="yes"/>
      <point x="101" y="391"/>
      <point x="150" y="434"/>
      <point x="215" y="434" type="curve" smooth="yes"/>
      <point x="289" y="434"/>
      <point x="338" y="380"/>
      <point x="360" y="313" type="curve"/>
      <point x="371" y="313" type="line"/>
      <point x="372" y="418" type="line"/>
      <point x="341" y="486"/>
      <point x="285" y="525"/>
      <point x="216" y="525" type="curve" smooth="yes"/>
      <point x="139" y="525"/>
      <point x="60" y="476"/>
      <point x="60" y="366" type="curve" smooth="yes"/>
      <point x="60" y="354"/>
      <point x="61" y="330"/>
      <point x="68" y="309" type="curve"/>
    </contour>
    <contour>
      <point x="964" y="311" type="line"/>
      <point x="962" y="354" type="line"/>
      <point x="654" y="354" type="line"/>
      <point x="654" y="311" type="line"/>
    </contour>
    <contour>
      <point x="824" y="335" type="line"/>
      <point x="849" y="427"/>
      <point x="856" y="467"/>
      <point x="856" y="485" type="curve" smooth="yes"/>
      <point x="856" y="510"/>
      <point x="842" y="525"/>
      <point x="819" y="525" type="curve" smooth="yes"/>
      <point x="795" y="525"/>
      <point x="780" y="511"/>
      <point x="780" y="486" type="curve" smooth="yes"/>
      <point x="780" y="466"/>
      <point x="789" y="420"/>
      <point x="811" y="335" type="curve"/>
    </contour>
  </outline>
</glyph>
<glyph name="tTta" format="2">
  <advance width="865"/>
  <unicode hex="0C1F"/>
  <outline>
    <contour>
      <point x="285" y="-15" type="curve" smooth="yes"/>
      <point x="347" y="-15"/>
      <point x="411" y="21"/>
      <point x="440" y="86" type="curve"/>
      <point x="460" y="86" type="line"/>
      <point x="448" y="215" type="line"/>
      <point x="434" y="215" type="line"/>
      <point x="409" y="145"/>
      <point x="364" y="92"/>
      <point x="282" y="92" type="curve" smooth="yes"/>
      <point x="180" y="92"/>
      <point x="123" y="176"/>
      <point x="123" y="266" type="curve" smooth="yes"/>
      <point x="123" y="348"/>
      <point x="167" y="444"/>
      <point x="241" y="482" type="curve"/>
      <point x="295" y="482" type="line"/>
      <point x="333" y="482"/>
      <point x="365" y="452"/>
      <point x="365" y="412" type="curve" smooth="yes"/>
      <point x="365" y="372"/>
      <point x="335" y="341"/>
      <point x="294" y="341" type="curve" smooth="yes"/>
      <point x="251" y="341"/>
      <point x="224" y="373"/>
      <point x="224" y="411" type="curve" smooth="yes"/>
      <point x="224" y="453"/>
      <point x="257" y="482"/>
      <point x="295" y="482" type="curve"/>
      <point x="295" y="512" type="line"/>
      <point x="174" y="451" type="line"/>
      <point x="189" y="438" type="line"/>
      <point x="184" y="428"/>
      <point x="182" y="412"/>
      <point x="182" y="404" type="curve" smooth="yes"/>
      <point x="182" y="345"/>
      <point x="228" y="296"/>
      <point x="304" y="296" type="curve" smooth="yes"/>
      <point x="377" y="296"/>
      <point x="427" y="350"/>
      <point x="427" y="409" type="curve" smooth="yes"/>
      <point x="427" y="469"/>
      <point x="378" y="525"/>
      <point x="298" y="525" type="curve" smooth="yes"/>
      <point x="190" y="525"/>
      <point x="73" y="419"/>
      <point x="73" y="244" type="curve" smooth="yes"/>
      <point x="73" y="75"/>
      <point x="185" y="-15"/>
    </contour>
    <contour>
      <point x="604" y="-15" type="curve" smooth="yes"/>
      <point x="707" y="-15"/>
      <point x="792" y="79"/>
      <point x="792" y="228" type="curve" smooth="yes"/>
      <point x="792" y="425"/>
      <point x="645" y="525"/>
      <point x="553" y="525" type="curve" smooth="yes"/>
      <point x="510" y="525"/>
      <point x="500" y="503"/>
      <point x="500" y="487" type="curve" smooth="yes"/>
      <point x="500" y="468"/>
      <point x="515" y="449"/>
      <point x="549" y="449" type="curve" smooth="yes"/>
      <point x="557" y="449"/>
      <point x="568" y="450"/>
      <point x="578" y="450" type="curve" smooth="yes"/>
      <point x="659" y="450"/>
      <point x="743" y="382"/>
      <point x="743" y="259" type="curve" smooth="yes"/>
      <point x="743" y="155"/>
      <point x="681" y="92"/>
      <point x="602" y="92" type="curve" smooth="yes"/>
      <point x="527" y="92"/>
      <point x="469" y="149"/>
      <point x="448" y="215" type="curve"/>
      <point x="438" y="102" type="line"/>
      <point x="460" y="28"/>
      <point x="536" y="-15"/>
    </contour>
    <contour>
      <point x="305" y="507" type="line"/>
      <point x="329" y="597"/>
      <point x="336" y="637"/>
      <point x="336" y="655" type="curve" smooth="yes"/>
      <point x="336" y="680"/>
      <point x="323" y="695"/>
      <point x="298" y="695" type="curve" smooth="yes"/>
      <point x="276" y="695"/>
      <point x="260" y="681"/>
      <point x="260" y="656" type="curve" smooth="yes"/>
      <point x="260" y="636"/>
      <point x="269" y="590"/>
      <point x="290" y="507" type="curve"/>
    </contour>
  </outline>
</glyph>
<glyph name="tTha" format="2">
  <advance width="818"/>
  <unicode hex="0C25"/>
  <outline>
    <contour>
      <point x="250" y="-15" type="curve" smooth="yes"/>
      <point x="311" y="-15"/>
      <point x="375" y="21"/>
      <point x="404" y="86" type="curve"/>
      <point x="424" y="86" type="line"/>
      <point x="412" y="215" type="line"/>
      <point x="398" y="215" type="line"/>
      <point x="375" y="148"/>
      <point x="331" y="92"/>
      <point x="257" y="92" type="curve" smooth="yes"/>
      <point x="175" y="92"/>
      <point x="128" y="163"/>
      <point x="128" y="240" type="curve" smooth="yes"/>
      <point x="128" y="371"/>
      <point x="264" y="482"/>
      <point x="404" y="482" type="curve" smooth="yes"/>
      <point x="543" y="482"/>
      <point x="691" y="374"/>
      <point x="691" y="233" type="curve" smooth="yes"/>
      <point x="691" y="146"/>
      <point x="634" y="92"/>
      <point x="564" y="92" type="curve" smooth="yes"/>
      <point x="492" y="92"/>
      <point x="432" y="150"/>
      <point x="412" y="215" type="curve"/>
      <point x="402" y="102" type="line"/>
      <point x="424" y="28"/>
      <point x="496" y="-15"/>
      <point x="562" y="-15" type="curve" smooth="yes"/>
      <point x="651" y="-15"/>
      <point x="745" y="62"/>
      <point x="745" y="199" type="curve" smooth="yes"/>
      <point x="745" y="377"/>
      <point x="581" y="525"/>
      <point x="405" y="525" type="curve" smooth="yes"/>
      <point x="230" y="525"/>
      <point x="73" y="383"/>
      <point x="73" y="199" type="curve" smooth="yes"/>
      <point x="73" y="56"/>
      <point x="166" y="-15"/>
    </contour>
    <contour>
      <point x="406" y="-153" type="curve" smooth="yes"/>
      <point x="433" y="-153"/>
      <point x="451" y="-133"/>
      <point x="451" y="-109" type="curve" smooth="yes"/>
      <point x="451" y="-89"/>
      <point x="439" y="-54"/>
      <point x="409" y="19" type="curve"/>
      <point x="403" y="19" type="line"/>
      <point x="371" y="-55"/>
      <point x="361" y="-89"/>
      <point x="361" y="-108" type="curve" smooth="yes"/>
      <point x="361" y="-134"/>
      <point x="378" y="-153"/>
    </contour>
    <contour>
      <point x="406" y="257" type="curve" smooth="yes"/>
      <point x="440" y="257"/>
      <point x="466" y="285"/>
      <point x="466" y="319" type="curve" smooth="yes"/>
      <point x="466" y="353"/>
      <point x="440" y="380"/>
      <point x="406" y="380" type="curve" smooth="yes"/>
      <point x="372" y="380"/>
      <point x="345" y="353"/>
      <point x="345" y="319" type="curve" smooth="yes"/>
      <point x="345" y="285"/>
      <point x="372" y="257"/>
    </contour>
    <contour>
      <point x="420" y="508" type="line"/>
      <point x="344" y="640"/>
      <point x="326" y="659"/>
      <point x="297" y="659" type="curve" smooth="yes"/>
      <point x="269" y="659"/>
      <point x="252" y="642"/>
      <point x="252" y="615" type="curve" smooth="yes"/>
      <point x="252" y="584"/>
      <point x="280" y="562"/>
      <point x="393" y="507" type="curve"/>
    </contour>
    <contour>
      <point x="419" y="501" type="line"/>
      <point x="547" y="609"/>
      <point x="600" y="643"/>
      <point x="687" y="707" type="curve" smooth="yes"/>
      <point x="700" y="717"/>
      <point x="706" y="722"/>
      <point x="706" y="727" type="curve" smooth="yes"/>
      <point x="706" y="732"/>
      <point x="703" y="734"/>
      <point x="689" y="734" type="curve" smooth="yes"/>
      <point x="671" y="734"/>
      <point x="615" y="731"/>
      <point x="607" y="730" type="curve" smooth="yes"/>
      <point x="591" y="728"/>
      <point x="589" y="725"/>
      <point x="582" y="715" type="curve" smooth="yes"/>
      <point x="539" y="653"/>
      <point x="493" y="606"/>
      <point x="399" y="523" type="curve"/>
    </contour>
  </outline>
</glyph>
<glyph name="tNa" format="2">
  <advance width="737"/>
  <unicode hex="0C28"/>
  <outline>
    <contour>
      <point x="174" y="-24" type="curve" smooth="yes"/>
      <point x="203" y="-24"/>
      <point x="223" y="-7"/>
      <point x="223" y="19" type="curve" smooth="yes"/>
      <point x="223" y="56"/>
      <point x="188" y="64"/>
      <point x="174" y="70" type="curve" smooth="yes"/>
      <point x="161" y="75"/>
      <point x="105" y="97"/>
      <point x="105" y="154" type="curve" smooth="yes"/>
      <point x="105" y="194"/>
      <point x="133" y="240"/>
      <point x="192" y="240" type="curve" smooth="yes"/>
      <point x="250" y="240"/>
      <point x="272" y="198"/>
      <point x="308" y="132" type="curve" smooth="yes"/>
      <point x="336" y="79"/>
      <point x="391" y="-15"/>
      <point x="488" y="-15" type="curve" smooth="yes"/>
      <point x="588" y="-15"/>
      <point x="664" y="84"/>
      <point x="664" y="222" type="curve" smooth="yes"/>
      <point x="664" y="448"/>
      <point x="461" y="518"/>
      <point x="319" y="521" type="curve"/>
      <point x="319" y="533" type="line"/>
      <point x="275" y="530" type="line"/>
      <point x="274" y="485" type="line"/>
      <point x="513" y="482"/>
      <point x="614" y="367"/>
      <point x="614" y="247" type="curve" smooth="yes"/>
      <point x="614" y="172"/>
      <point x="577" y="92"/>
      <point x="481" y="92" type="curve" smooth="yes"/>
      <point x="397" y="92"/>
      <point x="352" y="152"/>
      <point x="337" y="175" type="curve" smooth="yes"/>
      <point x="307" y="222"/>
      <point x="272" y="280"/>
      <point x="191" y="280" type="curve" smooth="yes"/>
      <point x="106" y="280"/>
      <point x="60" y="212"/>
      <point x="60" y="134" type="curve" smooth="yes"/>
      <point x="60" y="54"/>
      <point x="110" y="-24"/>
    </contour>
    <contour>
      <point x="288" y="508" type="line"/>
      <point x="212" y="640"/>
      <point x="194" y="659"/>
      <point x="165" y="659" type="curve" smooth="yes"/>
      <point x="137" y="659"/>
      <point x="120" y="642"/>
      <point x="120" y="615" type="curve" smooth="yes"/>
      <point x="120" y="578"/>
      <point x="167" y="551"/>
      <point x="274" y="485" type="curve"/>
    </contour>
    <contour>
      <point x="290" y="498" type="line"/>
      <point x="412" y="604"/>
      <point x="466" y="639"/>
      <point x="555" y="707" type="curve" smooth="yes"/>
      <point x="568" y="717"/>
      <point x="574" y="722"/>
      <point x="574" y="727" type="curve" smooth="yes"/>
      <point x="574" y="732"/>
      <point x="571" y="734"/>
      <point x="557" y="734" type="curve" smooth="yes"/>
      <point x="539" y="734"/>
      <point x="483" y="731"/>
      <point x="475" y="730" type="curve" smooth="yes"/>
      <point x="459" y="728"/>
      <point x="457" y="725"/>
      <point x="450" y="715" type="curve" smooth="yes"/>
      <point x="407" y="653"/>
      <point x="361" y="606"/>
      <point x="267" y="523" type="curve"/>
    </contour>
  </outline>
</glyph>
<glyph name="tPha" format="2">
  <advance width="769"/>
  <unicode hex="0C2B"/>
  <outline>
    <contour>
      <point x="516" y="-15" type="curve" smooth="yes"/>
      <point x="617" y="-15"/>
      <point x="696" y="83"/>
      <point x="696" y="230" type="curve" smooth="yes"/>
      <point x="696" y="430"/>
      <point x="543" y="525"/>
      <point x="455" y="525" type="curve" smooth="yes"/>
      <point x="412" y="525"/>
      <point x="402" y="503"/>
      <point x="402" y="487" type="curve" smooth="yes"/>
      <point x="402" y="468"/>
      <point x="417" y="447"/>
      <point x="451" y="447" type="curve" smooth="yes"/>
      <point x="459" y="447"/>
      <point x="473" y="448"/>
      <point x="483" y="448" type="curve" smooth="yes"/>
      <point x="569" y="448"/>
      <point x="649" y="370"/>
      <point x="649" y="258" type="curve" smooth="yes"/>
      <point x="649" y="169"/>
      <point x="608" y="92"/>
      <point x="498" y="92" type="curve" smooth="yes"/>
      <point x="398" y="92"/>
      <point x="355" y="158"/>
      <point x="345" y="181" type="curve"/>
      <point x="328" y="102" type="line"/>
      <point x="350" y="102" type="line"/>
      <point x="384" y="16"/>
      <point x="454" y="-15"/>
    </contour>
    <contour>
      <point x="350" y="-153" type="curve" smooth="yes"/>
      <point x="377" y="-153"/>
      <point x="395" y="-133"/>
      <point x="395" y="-109" type="curve" smooth="yes"/>
      <point x="395" y="-89"/>
      <point x="383" y="-54"/>
      <point x="353" y="19" type="curve"/>
      <point x="347" y="19" type="line"/>
      <point x="315" y="-55"/>
      <point x="305" y="-89"/>
      <point x="305" y="-108" type="curve" smooth="yes"/>
      <point x="305" y="-134"/>
      <point x="322" y="-153"/>
    </contour>
    <contour>
      <point x="207" y="-15" type="curve" smooth="yes"/>
      <point x="284" y="-15"/>
      <point x="345" y="41"/>
      <point x="347" y="119" type="curve"/>
      <point x="345" y="181" type="line"/>
      <point x="335" y="205"/>
      <point x="304" y="283"/>
      <point x="208" y="283" type="curve" smooth="yes"/>
      <point x="123" y="283"/>
      <point x="60" y="220"/>
      <point x="60" y="136" type="curve" smooth="yes"/>
      <point x="60" y="51"/>
      <point x="124" y="-15"/>
    </contour>
    <contour>
      <point x="206" y="86" type="curve" smooth="yes"/>
      <point x="142" y="86"/>
      <point x="109" y="122"/>
      <point x="109" y="158" type="curve" smooth="yes"/>
      <point x="109" y="197"/>
      <point x="147" y="244"/>
      <point x="204" y="244" type="curve" smooth="yes"/>
      <point x="258" y="244"/>
      <point x="304" y="204"/>
      <point x="304" y="159" type="curve" smooth="yes"/>
      <point x="304" y="118"/>
      <point x="264" y="86"/>
    </contour>
    <contour>
      <point x="249" y="508" type="line"/>
      <point x="172" y="642"/>
      <point x="154" y="659"/>
      <point x="126" y="659" type="curve" smooth="yes"/>
      <point x="98" y="659"/>
      <point x="81" y="642"/>
      <point x="81" y="615" type="curve" smooth="yes"/>
      <point x="81" y="584"/>
      <point x="107" y="566"/>
      <point x="232" y="497" type="curve"/>
    </contour>
    <contour>
      <point x="245" y="497" type="line"/>
      <point x="372" y="605"/>
      <point x="424" y="639"/>
      <point x="516" y="707" type="curve" smooth="yes"/>
      <point x="529" y="717"/>
      <point x="535" y="722"/>
      <point x="535" y="727" type="curve" smooth="yes"/>
      <point x="535" y="732"/>
      <point x="532" y="734"/>
      <point x="518" y="734" type="curve" smooth="yes"/>
      <point x="500" y="734"/>
      <point x="444" y="731"/>
      <point x="436" y="730" type="curve" smooth="yes"/>
      <point x="420" y="728"/>
      <point x="418" y="725"/>
      <point x="411" y="715" type="curve" smooth="yes"/>
      <point x="368" y="653"/>
      <point x="322" y="606"/>
      <point x="228" y="523" type="curve"/>
      <point x="232" y="497" type="line"/>
    </contour>
  </outline>
</glyph>
<glyph name="tBa" format="2">
  <advance width="829"/>
  <unicode hex="0C2C"/>
  <outline>
    <contour>
      <point x="571" y="-15" type="curve" smooth="yes"/>
      <point x="670" y="-15"/>
      <point x="756" y="75"/>
      <point x="756" y="225" type="curve" smooth="yes"/>
      <point x="756" y="427"/>
      <point x="603" y="525"/>
      <point x="515" y="525" type="curve" smooth="yes"/>
      <point x="474" y="525"/>
      <point x="463" y="503"/>
      <point x="463" y="487" type="curve" smooth="yes"/>
      <point x="463" y="468"/>
      <point x="478" y="447"/>
      <point x="512" y="447" type="curve" smooth="yes"/>
      <point x="520" y="447"/>
      <point x="534" y="448"/>
      <point x="543" y="448" type="curve" smooth="yes"/>
      <point x="630" y="448"/>
      <point x="709" y="365"/>
      <point x="709" y="256" type="curve" smooth="yes"/>
      <point x="709" y="160"/>
      <point x="649" y="92"/>
      <point x="566" y="92" type="curve" smooth="yes"/>
      <point x="484" y="92"/>
      <point x="438" y="147"/>
      <point x="415" y="215" type="curve"/>
      <point x="381" y="86" type="line"/>
      <point x="411" y="86" type="line"/>
      <point x="438" y="22"/>
      <point x="502" y="-15"/>
    </contour>
    <contour>
      <point x="244" y="-15" type="curve" smooth="yes"/>
      <point x="333" y="-15"/>
      <point x="419" y="49"/>
      <point x="421" y="153" type="curve"/>
      <point x="415" y="215" type="line"/>
      <point x="401" y="215" type="line"/>
      <point x="371" y="142"/>
      <point x="335" y="92"/>
      <point x="242" y="92" type="curve" smooth="yes"/>
      <point x="178" y="92"/>
      <point x="127" y="115"/>
      <point x="127" y="163" type="curve" smooth="yes"/>
      <point x="127" y="211"/>
      <point x="177" y="229"/>
      <point x="240" y="247" type="curve" smooth="yes"/>
      <point x="325" y="271"/>
      <point x="391" y="300"/>
      <point x="391" y="385" type="curve" smooth="yes"/>
      <point x="391" y="470"/>
      <point x="325" y="525"/>
      <point x="238" y="525" type="curve" smooth="yes"/>
      <point x="143" y="525"/>
      <point x="85" y="462"/>
      <point x="85" y="372" type="curve"/>
      <point x="85" y="371"/>
      <point x="85" y="367"/>
      <point x="86" y="353" type="curve"/>
      <point x="120" y="353" type="line"/>
      <point x="124" y="392"/>
      <point x="145" y="452"/>
      <point x="243" y="452" type="curve" smooth="yes"/>
      <point x="313" y="452"/>
      <point x="345" y="420"/>
      <point x="345" y="378" type="curve" smooth="yes"/>
      <point x="345" y="319"/>
      <point x="286" y="303"/>
      <point x="223" y="285" type="curve" smooth="yes"/>
      <point x="151" y="264"/>
      <point x="73" y="238"/>
      <point x="73" y="140" type="curve" smooth="yes"/>
      <point x="73" y="34"/>
      <point x="163" y="-15"/>
    </contour>
  </outline>
</glyph>
<glyph name="tBha" format="2">
  <advance width="831"/>
  <unicode hex="0C2D"/>
  <outline>
    <contour>
      <point x="567" y="-15" type="curve" smooth="yes"/>
      <point x="679" y="-15"/>
      <point x="758" y="86"/>
      <point x="758" y="229" type="curve" smooth="yes"/>
      <point x="758" y="393"/>
      <point x="658" y="496"/>
      <point x="534" y="521" type="curve"/>
      <point x="534" y="523" type="line"/>
      <point x="490" y="530" type="line"/>
      <point x="489" y="485" type="line"/>
      <point x="634" y="476"/>
      <point x="708" y="359"/>
      <point x="708" y="261" type="curve" smooth="yes"/>
      <point x="708" y="155"/>
      <point x="648" y="92"/>
      <point x="563" y="92" type="curve" smooth="yes"/>
      <point x="487" y="92"/>
      <point x="437" y="149"/>
      <point x="415" y="215" type="curve"/>
      <point x="405" y="102" type="line"/>
      <point x="427" y="28"/>
      <point x="499" y="-15"/>
    </contour>
    <contour>
      <point x="409" y="-153" type="curve" smooth="yes"/>
      <point x="436" y="-153"/>
      <point x="454" y="-133"/>
      <point x="454" y="-109" type="curve" smooth="yes"/>
      <point x="454" y="-89"/>
      <point x="442" y="-54"/>
      <point x="412" y="19" type="curve"/>
      <point x="406" y="19" type="line"/>
      <point x="374" y="-55"/>
      <point x="364" y="-89"/>
      <point x="364" y="-108" type="curve" smooth="yes"/>
      <point x="364" y="-134"/>
      <point x="381" y="-153"/>
    </contour>
    <contour>
      <point x="244" y="-15" type="curve" smooth="yes"/>
      <point x="310" y="-15"/>
      <point x="375" y="19"/>
      <point x="407" y="86" type="curve"/>
      <point x="427" y="86" type="line"/>
      <point x="415" y="215" type="line"/>
      <point x="401" y="215" type="line"/>
      <point x="372" y="143"/>
      <point x="335" y="92"/>
      <point x="243" y="92" type="curve" smooth="yes"/>
      <point x="178" y="92"/>
      <point x="127" y="115"/>
      <point x="127" y="163" type="curve" smooth="yes"/>
      <point x="127" y="213"/>
      <point x="181" y="229"/>
      <point x="240" y="247" type="curve" smooth="yes"/>
      <point x="312" y="269"/>
      <point x="391" y="291"/>
      <point x="391" y="386" type="curve" smooth="yes"/>
      <point x="391" y="470"/>
      <point x="325" y="525"/>
      <point x="238" y="525" type="curve" smooth="yes"/>
      <point x="143" y="525"/>
      <point x="85" y="462"/>
      <point x="85" y="372" type="curve"/>
      <point x="85" y="371"/>
      <point x="85" y="367"/>
      <point x="86" y="353" type="curve"/>
      <point x="120" y="353" type="line"/>
      <point x="124" y="392"/>
      <point x="145" y="452"/>
      <point x="242" y="452" type="curve" smooth="yes"/>
      <point x="314" y="452"/>
      <point x="345" y="420"/>
      <point x="345" y="378" type="curve" smooth="yes"/>
      <point x="345" y="319"/>
      <point x="286" y="303"/>
      <point x="223" y="285" type="curve" smooth="yes"/>
      <point x="151" y="264"/>
      <point x="73" y="238"/>
      <point x="73" y="140" type="curve" smooth="yes"/>
      <point x="73" y="34"/>
      <point x="163" y="-15"/>
    </contour>
    <contour>
      <point x="503" y="508" type="line"/>
      <point x="425" y="642"/>
      <point x="408" y="659"/>
      <point x="380" y="659" type="curve" smooth="yes"/>
      <point x="352" y="659"/>
      <point x="335" y="642"/>
      <point x="335" y="615" type="curve" smooth="yes"/>
      <point x="335" y="579"/>
      <point x="381" y="551"/>
      <point x="489" y="485" type="curve"/>
    </contour>
    <contour>
      <point x="505" y="499" type="line"/>
      <point x="632" y="607"/>
      <point x="683" y="641"/>
      <point x="770" y="707" type="curve" smooth="yes"/>
      <point x="783" y="717"/>
      <point x="789" y="722"/>
      <point x="789" y="727" type="curve" smooth="yes"/>
      <point x="789" y="732"/>
      <point x="786" y="734"/>
      <point x="772" y="734" type="curve" smooth="yes"/>
      <point x="754" y="734"/>
      <point x="698" y="731"/>
      <point x="690" y="730" type="curve" smooth="yes"/>
      <point x="674" y="728"/>
      <point x="672" y="725"/>
      <point x="665" y="715" type="curve" smooth="yes"/>
      <point x="622" y="653"/>
      <point x="576" y="606"/>
      <point x="482" y="523" type="curve"/>
    </contour>
  </outline>
</glyph>
<glyph name="tMa" format="2">
  <advance width="1133"/>
  <unicode hex="0C2E"/>
  <outline>
    <contour>
      <point x="875" y="-15" type="curve" smooth="yes"/>
      <point x="979" y="-15"/>
      <point x="1060" y="80"/>
      <point x="1060" y="227" type="curve" smooth="yes"/>
      <point x="1060" y="427"/>
      <point x="908" y="525"/>
      <point x="820" y="525" type="curve" smooth="yes"/>
      <point x="779" y="525"/>
      <point x="768" y="503"/>
      <point x="768" y="487" type="curve" smooth="yes"/>
      <point x="768" y="468"/>
      <point x="783" y="447"/>
      <point x="817" y="447" type="curve" smooth="yes"/>
      <point x="825" y="447"/>
      <point x="839" y="448"/>
      <point x="849" y="448" type="curve" smooth="yes"/>
      <point x="935" y="448"/>
      <point x="1013" y="366"/>
      <point x="1013" y="256" type="curve" smooth="yes"/>
      <point x="1013" y="171"/>
      <point x="967" y="92"/>
      <point x="859" y="92" type="curve" smooth="yes"/>
      <point x="814" y="92"/>
      <point x="765" y="106"/>
      <point x="731" y="147" type="curve" smooth="yes"/>
      <point x="708" y="175"/>
      <point x="702" y="203"/>
      <point x="696" y="230" type="curve"/>
      <point x="627" y="140" type="line"/>
      <point x="687" y="140" type="line"/>
      <point x="723" y="13"/>
      <point x="819" y="-15"/>
    </contour>
    <contour>
      <point x="207" y="-15" type="curve" smooth="yes"/>
      <point x="284" y="-15"/>
      <point x="345" y="41"/>
      <point x="347" y="119" type="curve"/>
      <point x="345" y="181" type="line"/>
      <point x="335" y="205"/>
      <point x="304" y="283"/>
      <point x="208" y="283" type="curve" smooth="yes"/>
      <point x="123" y="283"/>
      <point x="60" y="220"/>
      <point x="60" y="136" type="curve" smooth="yes"/>
      <point x="60" y="51"/>
      <point x="124" y="-15"/>
    </contour>
    <contour>
      <point x="206" y="86" type="curve" smooth="yes"/>
      <point x="142" y="86"/>
      <point x="109" y="122"/>
      <point x="109" y="158" type="curve" smooth="yes"/>
      <point x="109" y="197"/>
      <point x="147" y="244"/>
      <point x="204" y="244" type="curve" smooth="yes"/>
      <point x="258" y="244"/>
      <point x="304" y="204"/>
      <point x="304" y="159" type="curve" smooth="yes"/>
      <point x="304" y="118"/>
      <point x="264" y="86"/>
    </contour>
    <contour>
      <point x="513" y="-15" type="curve" smooth="yes"/>
      <point x="596" y="-15"/>
      <point x="665" y="48"/>
      <point x="684" y="146" type="curve"/>
      <point x="696" y="230" type="line"/>
      <point x="692" y="448"/>
      <point x="493" y="518"/>
      <point x="351" y="521" type="curve"/>
      <point x="351" y="523" type="line"/>
      <point x="307" y="530" type="line"/>
      <point x="306" y="485" type="line"/>
      <point x="545" y="482"/>
      <point x="646" y="367"/>
      <point x="646" y="248" type="curve" smooth="yes"/>
      <point x="646" y="171"/>
      <point x="608" y="92"/>
      <point x="498" y="92" type="curve" smooth="yes"/>
      <point x="398" y="92"/>
      <point x="355" y="158"/>
      <point x="345" y="181" type="curve"/>
      <point x="328" y="102" type="line"/>
      <point x="350" y="102" type="line"/>
      <point x="384" y="16"/>
      <point x="454" y="-15"/>
    </contour>
    <contour>
      <point x="328" y="494" type="line"/>
      <point x="242" y="642"/>
      <point x="224" y="659"/>
      <point x="197" y="659" type="curve" smooth="yes"/>
      <point x="169" y="659"/>
      <point x="152" y="642"/>
      <point x="152" y="615" type="curve" smooth="yes"/>
      <point x="152" y="579"/>
      <point x="198" y="551"/>
      <point x="306" y="485" type="curve"/>
    </contour>
    <contour>
      <point x="351" y="523" type="line"/>
      <point x="541" y="682"/>
      <point x="606" y="714"/>
      <point x="606" y="727" type="curve" smooth="yes"/>
      <point x="606" y="732"/>
      <point x="603" y="734"/>
      <point x="589" y="734" type="curve" smooth="yes"/>
      <point x="571" y="734"/>
      <point x="515" y="731"/>
      <point x="507" y="730" type="curve" smooth="yes"/>
      <point x="491" y="728"/>
      <point x="489" y="725"/>
      <point x="482" y="715" type="curve" smooth="yes"/>
      <point x="438" y="652"/>
      <point x="396" y="609"/>
      <point x="288" y="513" type="curve"/>
      <point x="351" y="500" type="line"/>
    </contour>
  </outline>
</glyph>
<glyph name="tRa" format="2">
  <advance width="680"/>
  <unicode hex="0C30"/>
  <outline>
    <contour>
      <point x="344" y="-15" type="curve" smooth="yes"/>
      <point x="491" y="-15"/>
      <point x="607" y="104"/>
      <point x="607" y="256" type="curve" smooth="yes"/>
      <point x="607" y="397"/>
      <point x="501" y="525"/>
      <point x="341" y="525" type="curve" smooth="yes"/>
      <point x="193" y="525"/>
      <point x="73" y="410"/>
      <point x="73" y="262" type="curve" smooth="yes"/>
      <point x="73" y="115"/>
      <point x="188" y="-15"/>
    </contour>
    <contour>
      <point x="341" y="92" type="curve" smooth="yes"/>
      <point x="218" y="92"/>
      <point x="127" y="175"/>
      <point x="127" y="283" type="curve" smooth="yes"/>
      <point x="127" y="392"/>
      <point x="224" y="482"/>
      <point x="342" y="482" type="curve" smooth="yes"/>
      <point x="463" y="482"/>
      <point x="554" y="388"/>
      <point x="554" y="281" type="curve" smooth="yes"/>
      <point x="554" y="171"/>
      <point x="460" y="92"/>
    </contour>
    <contour>
      <point x="357" y="508" type="line"/>
      <point x="281" y="640"/>
      <point x="263" y="659"/>
      <point x="234" y="659" type="curve" smooth="yes"/>
      <point x="206" y="659"/>
      <point x="189" y="642"/>
      <point x="189" y="615" type="curve"/>
      <point x="190" y="584"/>
      <point x="217" y="562"/>
      <point x="330" y="507" type="curve"/>
    </contour>
    <contour>
      <point x="356" y="501" type="line"/>
      <point x="482" y="604"/>
      <point x="533" y="641"/>
      <point x="624" y="707" type="curve" smooth="yes"/>
      <point x="637" y="717"/>
      <point x="643" y="722"/>
      <point x="643" y="727" type="curve" smooth="yes"/>
      <point x="643" y="732"/>
      <point x="640" y="734"/>
      <point x="626" y="734" type="curve" smooth="yes"/>
      <point x="608" y="734"/>
      <point x="552" y="731"/>
      <point x="544" y="730" type="curve" smooth="yes"/>
      <point x="528" y="728"/>
      <point x="526" y="725"/>
      <point x="519" y="715" type="curve" smooth="yes"/>
      <point x="476" y="653"/>
      <point x="430" y="606"/>
      <point x="336" y="523" type="curve"/>
    </contour>
  </outline>
</glyph>
<glyph name="tLa" format="2">
  <advance width="831"/>
  <unicode hex="0C32"/>
  <outline>
    <contour>
      <point x="415" y="-15" type="curve" smooth="yes"/>
      <point x="616" y="-15"/>
      <point x="758" y="124"/>
      <point x="758" y="287" type="curve" smooth="yes"/>
      <point x="758" y="444"/>
      <point x="624" y="525"/>
      <point x="545" y="525" type="curve" smooth="yes"/>
      <point x="504" y="525"/>
      <point x="493" y="503"/>
      <point x="493" y="487" type="curve" smooth="yes"/>
      <point x="493" y="468"/>
      <point x="508" y="447"/>
      <point x="542" y="447" type="curve" smooth="yes"/>
      <point x="550" y="447"/>
      <point x="564" y="448"/>
      <point x="575" y="448" type="curve" smooth="yes"/>
      <point x="652" y="448"/>
      <point x="711" y="396"/>
      <point x="711" y="308" type="curve" smooth="yes"/>
      <point x="711" y="178"/>
      <point x="579" y="92"/>
      <point x="413" y="92" type="curve" smooth="yes"/>
      <point x="239" y="92"/>
      <point x="122" y="184"/>
      <point x="122" y="299" type="curve" smooth="yes"/>
      <point x="122" y="364"/>
      <point x="153" y="444"/>
      <point x="237" y="482" type="curve"/>
      <point x="284" y="482" type="line"/>
      <point x="322" y="482"/>
      <point x="354" y="452"/>
      <point x="354" y="413" type="curve" smooth="yes"/>
      <point x="354" y="371"/>
      <point x="322" y="341"/>
      <point x="284" y="341" type="curve" smooth="yes"/>
      <point x="244" y="341"/>
      <point x="213" y="371"/>
      <point x="213" y="413" type="curve" smooth="yes"/>
      <point x="213" y="452"/>
      <point x="246" y="482"/>
      <point x="284" y="482" type="curve"/>
      <point x="288" y="509" type="line"/>
      <point x="150" y="457" type="line"/>
      <point x="178" y="438" type="line"/>
      <point x="173" y="426"/>
      <point x="171" y="416"/>
      <point x="171" y="403" type="curve" smooth="yes"/>
      <point x="171" y="346"/>
      <point x="220" y="296"/>
      <point x="293" y="296" type="curve" smooth="yes"/>
      <point x="368" y="296"/>
      <point x="416" y="348"/>
      <point x="416" y="410" type="curve" smooth="yes"/>
      <point x="416" y="470"/>
      <point x="368" y="525"/>
      <point x="290" y="525" type="curve" smooth="yes"/>
      <point x="182" y="525"/>
      <point x="73" y="430"/>
      <point x="73" y="287" type="curve" smooth="yes"/>
      <point x="73" y="124"/>
      <point x="219" y="-15"/>
    </contour>
  </outline>
</glyph>
<glyph name="tLla" format="2">
  <advance width="750"/>
  <unicode hex="0C33"/>
  <outline>
    <contour>
      <point x="379" y="-15" type="curve" smooth="yes"/>
      <point x="449" y="-15"/>
      <point x="501" y="36"/>
      <point x="501" y="101" type="curve" smooth="yes"/>
      <point x="501" y="151"/>
      <point x="471" y="182"/>
      <point x="425" y="205" type="curve"/>
      <point x="397" y="224"/>
      <point x="346" y="236"/>
      <point x="298" y="245" type="curve" smooth="yes"/>
      <point x="222" y="260"/>
      <point x="120" y="285"/>
      <point x="120" y="375" type="curve" smooth="yes"/>
      <point x="120" y="417"/>
      <point x="147" y="468"/>
      <point x="230" y="487" type="curve"/>
      <point x="296" y="479" type="line"/>
      <point x="331" y="479"/>
      <point x="357" y="453"/>
      <point x="357" y="415" type="curve" smooth="yes"/>
      <point x="357" y="379"/>
      <point x="333" y="351"/>
      <point x="297" y="351" type="curve" smooth="yes"/>
      <point x="263" y="351"/>
      <point x="235" y="377"/>
      <point x="235" y="415" type="curve" smooth="yes"/>
      <point x="235" y="449"/>
      <point x="260" y="479"/>
      <point x="296" y="479" type="curve"/>
      <point x="296" y="496" type="line"/>
      <point x="216" y="496" type="line"/>
      <point x="228" y="484" type="line"/>
      <point x="206" y="461"/>
      <point x="196" y="434"/>
      <point x="196" y="408" type="curve" smooth="yes"/>
      <point x="196" y="352"/>
      <point x="242" y="311"/>
      <point x="306" y="311" type="curve" smooth="yes"/>
      <point x="372" y="311"/>
      <point x="412" y="357"/>
      <point x="412" y="412" type="curve" smooth="yes"/>
      <point x="412" y="480"/>
      <point x="350" y="525"/>
      <point x="264" y="525" type="curve" smooth="yes"/>
      <point x="158" y="525"/>
      <point x="65" y="457"/>
      <point x="65" y="347" type="curve" smooth="yes"/>
      <point x="65" y="216"/>
      <point x="192" y="183"/>
      <point x="328" y="161" type="curve"/>
      <point x="401" y="142"/>
      <point x="435" y="122"/>
      <point x="435" y="82" type="curve" smooth="yes"/>
      <point x="435" y="47"/>
      <point x="405" y="23"/>
      <point x="373" y="23" type="curve" smooth="yes"/>
      <point x="339" y="23"/>
      <point x="310" y="47"/>
      <point x="310" y="86" type="curve" smooth="yes"/>
      <point x="310" y="120"/>
      <point x="333" y="143"/>
      <point x="368" y="161" type="curve"/>
      <point x="301" y="180" type="line"/>
      <point x="301" y="164" type="line"/>
      <point x="278" y="141"/>
      <point x="268" y="114"/>
      <point x="268" y="86" type="curve" smooth="yes"/>
      <point x="268" y="22"/>
      <point x="319" y="-15"/>
    </contour>
    <contour>
      <point x="456" y="188" type="line"/>
      <point x="465" y="191"/>
      <point x="498" y="199"/>
      <point x="507" y="201" type="curve" smooth="yes"/>
      <point x="557" y="212"/>
      <point x="690" y="247"/>
      <point x="690" y="367" type="curve" smooth="yes"/>
      <point x="690" y="441"/>
      <point x="638" y="509"/>
      <point x="537" y="528" type="curve"/>
      <point x="492" y="530" type="line"/>
      <point x="488" y="497" type="line"/>
      <point x="579" y="491"/>
      <point x="645" y="448"/>
      <point x="645" y="369" type="curve" smooth="yes"/>
      <point x="645" y="253"/>
      <point x="497" y="245"/>
      <point x="388" y="213" type="curve"/>
      <point x="456" y="171" type="line"/>
    </contour>
    <contour>
      <point x="505" y="508" type="line"/>
      <point x="428" y="642"/>
      <point x="410" y="659"/>
      <point x="382" y="659" type="curve" smooth="yes"/>
      <point x="354" y="659"/>
      <point x="337" y="642"/>
      <point x="337" y="615" type="curve" smooth="yes"/>
      <point x="337" y="583"/>
      <point x="363" y="566"/>
      <point x="488" y="497" type="curve"/>
    </contour>
    <contour>
      <point x="505" y="501" type="line"/>
      <point x="632" y="609"/>
      <point x="683" y="640"/>
      <point x="772" y="707" type="curve" smooth="yes"/>
      <point x="785" y="717"/>
      <point x="791" y="722"/>
      <point x="791" y="727" type="curve" smooth="yes"/>
      <point x="791" y="732"/>
      <point x="788" y="734"/>
      <point x="774" y="734" type="curve" smooth="yes"/>
      <point x="756" y="734"/>
      <point x="703" y="731"/>
      <point x="695" y="730" type="curve" smooth="yes"/>
      <point x="679" y="728"/>
      <point x="677" y="725"/>
      <point x="670" y="715" type="curve" smooth="yes"/>
      <point x="626" y="653"/>
      <point x="578" y="605"/>
      <point x="484" y="523" type="curve"/>
    </contour>
  </outline>
</glyph>
<glyph name="tLlla" format="2">
  <advance width="878"/>
  <unicode hex="0C34"/>
  <outline>
    <contour>
      <point x="284" y="-15" type="curve" smooth="yes"/>
      <point x="347" y="-15"/>
      <point x="411" y="21"/>
      <point x="440" y="86" type="curve"/>
      <point x="460" y="86" type="line"/>
      <point x="448" y="215" type="line"/>
      <point x="434" y="215" type="line"/>
      <point x="409" y="145"/>
      <point x="364" y="92"/>
      <point x="282" y="92" type="curve" smooth="yes"/>
      <point x="180" y="92"/>
      <point x="123" y="175"/>
      <point x="123" y="267" type="curve" smooth="yes"/>
      <point x="123" y="324"/>
      <point x="149" y="442"/>
      <point x="238" y="481" type="curve"/>
      <point x="288" y="482" type="line"/>
      <point x="325" y="482"/>
      <point x="356" y="452"/>
      <point x="356" y="412" type="curve" smooth="yes"/>
      <point x="356" y="372"/>
      <point x="327" y="341"/>
      <point x="287" y="341" type="curve" smooth="yes"/>
      <point x="245" y="341"/>
      <point x="219" y="373"/>
      <point x="219" y="411" type="curve" smooth="yes"/>
      <point x="219" y="453"/>
      <point x="251" y="482"/>
      <point x="288" y="482" type="curve"/>
      <point x="288" y="515" type="line"/>
      <point x="157" y="450" type="line"/>
      <point x="184" y="438" type="line"/>
      <point x="179" y="426"/>
      <point x="177" y="416"/>
      <point x="177" y="403" type="curve" smooth="yes"/>
      <point x="177" y="346"/>
      <point x="218" y="296"/>
      <point x="289" y="296" type="curve" smooth="yes"/>
      <point x="361" y="296"/>
      <point x="409" y="349"/>
      <point x="409" y="409" type="curve" smooth="yes"/>
      <point x="409" y="470"/>
      <point x="361" y="525"/>
      <point x="286" y="525" type="curve" smooth="yes"/>
      <point x="179" y="525"/>
      <point x="73" y="415"/>
      <point x="73" y="247" type="curve" smooth="yes"/>
      <point x="73" y="74"/>
      <point x="184" y="-15"/>
    </contour>
    <contour>
      <point x="605" y="-15" type="curve" smooth="yes"/>
      <point x="708" y="-15"/>
      <point x="805" y="77"/>
      <point x="805" y="242" type="curve" smooth="yes"/>
      <point x="805" y="415"/>
      <point x="699" y="525"/>
      <point x="592" y="525" type="curve" smooth="yes"/>
      <point x="517" y="525"/>
      <point x="469" y="470"/>
      <point x="469" y="409" type="curve" smooth="yes"/>
      <point x="469" y="349"/>
      <point x="517" y="296"/>
      <point x="589" y="296" type="curve" smooth="yes"/>
      <point x="660" y="296"/>
      <point x="701" y="346"/>
      <point x="701" y="403" type="curve" smooth="yes"/>
      <point x="701" y="416"/>
      <point x="699" y="426"/>
      <point x="694" y="438" type="curve"/>
      <point x="721" y="450" type="line"/>
      <point x="590" y="515" type="line"/>
      <point x="590" y="482" type="line"/>
      <point x="627" y="482"/>
      <point x="659" y="453"/>
      <point x="659" y="411" type="curve" smooth="yes"/>
      <point x="659" y="373"/>
      <point x="633" y="341"/>
      <point x="592" y="341" type="curve" smooth="yes"/>
      <point x="553" y="341"/>
      <point x="522" y="372"/>
      <point x="522" y="412" type="curve" smooth="yes"/>
      <point x="522" y="452"/>
      <point x="553" y="482"/>
      <point x="590" y="482" type="curve"/>
      <point x="640" y="481" type="line"/>
      <point x="729" y="442"/>
      <point x="755" y="324"/>
      <point x="755" y="267" type="curve" smooth="yes"/>
      <point x="755" y="176"/>
      <point x="699" y="92"/>
      <point x="604" y="92" type="curve" smooth="yes"/>
      <point x="526" y="92"/>
      <point x="470" y="148"/>
      <point x="448" y="215" type="curve"/>
      <point x="438" y="102" type="line"/>
      <point x="460" y="28"/>
      <point x="535" y="-15"/>
    </contour>
  </outline>
</glyph>
<glyph name="tVa" format="2">
  <advance width="769"/>
  <unicode hex="0C35"/>
  <outline>
    <contour>
      <point x="513" y="-15" type="curve" smooth="yes"/>
      <point x="617" y="-15"/>
      <point x="696" y="84"/>
      <point x="696" y="224" type="curve" smooth="yes"/>
      <point x="696" y="447"/>
      <point x="493" y="518"/>
      <point x="351" y="521" type="curve"/>
      <point x="351" y="523" type="line"/>
      <point x="307" y="530" type="line"/>
      <point x="306" y="485" type="line"/>
      <point x="545" y="482"/>
      <point x="646" y="367"/>
      <point x="646" y="248" type="curve" smooth="yes"/>
      <point x="646" y="171"/>
      <point x="608" y="92"/>
      <point x="498" y="92" type="curve" smooth="yes"/>
      <point x="398" y="92"/>
      <point x="355" y="158"/>
      <point x="345" y="181" type="curve"/>
      <point x="328" y="102" type="line"/>
      <point x="350" y="102" type="line"/>
      <point x="384" y="16"/>
      <point x="454" y="-15"/>
    </contour>
    <contour>
      <point x="207" y="-15" type="curve" smooth="yes"/>
      <point x="284" y="-15"/>
      <point x="345" y="41"/>
      <point x="347" y="119" type="curve"/>
      <point x="345" y="181" type="line"/>
      <point x="335" y="205"/>
      <point x="304" y="283"/>
      <point x="208" y="283" type="curve" smooth="yes"/>
      <point x="123" y="283"/>
      <point x="60" y="220"/>
      <point x="60" y="136" type="curve" smooth="yes"/>
      <point x="60" y="51"/>
      <point x="124" y="-15"/>
    </contour>
    <contour>
      <point x="206" y="86" type="curve" smooth="yes"/>
      <point x="142" y="86"/>
      <point x="109" y="122"/>
      <point x="109" y="158" type="curve" smooth="yes"/>
      <point x="109" y="197"/>
      <point x="147" y="244"/>
      <point x="204" y="244" type="curve" smooth="yes"/>
      <point x="258" y="244"/>
      <point x="304" y="204"/>
      <point x="304" y="159" type="curve" smooth="yes"/>
      <point x="304" y="118"/>
      <point x="264" y="86"/>
    </contour>
    <contour>
      <point x="328" y="494" type="line"/>
      <point x="242" y="642"/>
      <point x="224" y="659"/>
      <point x="197" y="659" type="curve" smooth="yes"/>
      <point x="169" y="659"/>
      <point x="152" y="642"/>
      <point x="152" y="615" type="curve" smooth="yes"/>
      <point x="152" y="579"/>
      <point x="198" y="551"/>
      <point x="306" y="485" type="curve"/>
    </contour>
    <contour>
      <point x="351" y="523" type="line"/>
      <point x="541" y="682"/>
      <point x="606" y="714"/>
      <point x="606" y="727" type="curve" smooth="yes"/>
      <point x="606" y="732"/>
      <point x="603" y="734"/>
      <point x="589" y="734" type="curve" smooth="yes"/>
      <point x="571" y="734"/>
      <point x="515" y="731"/>
      <point x="507" y="730" type="curve" smooth="yes"/>
      <point x="491" y="728"/>
      <point x="489" y="725"/>
      <point x="482" y="715" type="curve" smooth="yes"/>
      <point x="438" y="652"/>
      <point x="396" y="609"/>
      <point x="288" y="513" type="curve"/>
      <point x="351" y="500" type="line"/>
    </contour>
  </outline>
</glyph>
<glyph name="tSha" format="2">
  <advance width="557"/>
  <unicode hex="0C36"/>
  <outline>
    <contour>
      <point x="338" y="-15" type="curve" smooth="yes"/>
      <point x="425" y="-15"/>
      <point x="480" y="57"/>
      <point x="480" y="139" type="curve" smooth="yes"/>
      <point x="480" y="194"/>
      <point x="453" y="264"/>
      <point x="405" y="319" type="curve" smooth="yes"/>
      <point x="345" y="388"/>
      <point x="271" y="426"/>
      <point x="201" y="426" type="curve" smooth="yes"/>
      <point x="112" y="426"/>
      <point x="60" y="365"/>
      <point x="60" y="306" type="curve" smooth="yes"/>
      <point x="60" y="262"/>
      <point x="88" y="242"/>
      <point x="110" y="242" type="curve" smooth="yes"/>
      <point x="127" y="242"/>
      <point x="142" y="254"/>
      <point x="142" y="273" type="curve" smooth="yes"/>
      <point x="142" y="283"/>
      <point x="137" y="298"/>
      <point x="137" y="312" type="curve" smooth="yes"/>
      <point x="137" y="346"/>
      <point x="159" y="377"/>
      <point x="221" y="377" type="curve" smooth="yes"/>
      <point x="283" y="377"/>
      <point x="332" y="343"/>
      <point x="364" y="303" type="curve" smooth="yes"/>
      <point x="407" y="250"/>
      <point x="416" y="203"/>
      <point x="416" y="176" type="curve" smooth="yes"/>
      <point x="416" y="119"/>
      <point x="373" y="81"/>
      <point x="326" y="81" type="curve" smooth="yes"/>
      <point x="286" y="81"/>
      <point x="265" y="109"/>
      <point x="265" y="141" type="curve" smooth="yes"/>
      <point x="265" y="199"/>
      <point x="324" y="243"/>
      <point x="386" y="284" type="curve"/>
      <point x="410" y="303" type="line"/>
      <point x="454" y="337"/>
      <point x="494" y="370"/>
      <point x="494" y="424" type="curve" smooth="yes"/>
      <point x="494" y="480"/>
      <point x="451" y="523"/>
      <point x="350" y="529" type="curve"/>
      <point x="303" y="530" type="line"/>
      <point x="299" y="497" type="line"/>
      <point x="409" y="497"/>
      <point x="450" y="467"/>
      <point x="450" y="423" type="curve" smooth="yes"/>
      <point x="450" y="388"/>
      <point x="430" y="366"/>
      <point x="362" y="319" type="curve" smooth="yes"/>
      <point x="301" y="277"/>
      <point x="211" y="218"/>
      <point x="211" y="116" type="curve" smooth="yes"/>
      <point x="211" y="45"/>
      <point x="258" y="-15"/>
    </contour>
    <contour>
      <point x="320" y="501" type="line"/>
      <point x="235" y="649"/>
      <point x="219" y="659"/>
      <point x="193" y="659" type="curve" smooth="yes"/>
      <point x="165" y="659"/>
      <point x="148" y="642"/>
      <point x="148" y="615" type="curve" smooth="yes"/>
      <point x="148" y="584"/>
      <point x="174" y="566"/>
      <point x="299" y="497" type="curve"/>
    </contour>
    <contour>
      <point x="347" y="526" type="line"/>
      <point x="458" y="623"/>
      <point x="602" y="712"/>
      <point x="602" y="727" type="curve" smooth="yes"/>
      <point x="602" y="732"/>
      <point x="599" y="734"/>
      <point x="585" y="734" type="curve" smooth="yes"/>
      <point x="567" y="734"/>
      <point x="511" y="731"/>
      <point x="503" y="730" type="curve" smooth="yes"/>
      <point x="487" y="728"/>
      <point x="485" y="725"/>
      <point x="478" y="715" type="curve" smooth="yes"/>
      <point x="434" y="652"/>
      <point x="392" y="609"/>
      <point x="284" y="513" type="curve"/>
      <point x="347" y="500" type="line"/>
    </contour>
  </outline>
</glyph>
<glyph name="tSa" format="2">
  <advance width="734"/>
  <unicode hex="0C38"/>
  <outline>
    <contour>
      <point x="174" y="-24" type="curve" smooth="yes"/>
      <point x="203" y="-24"/>
      <point x="223" y="-7"/>
      <point x="223" y="19" type="curve" smooth="yes"/>
      <point x="223" y="56"/>
      <point x="188" y="64"/>
      <point x="174" y="70" type="curve" smooth="yes"/>
      <point x="161" y="75"/>
      <point x="105" y="97"/>
      <point x="105" y="154" type="curve" smooth="yes"/>
      <point x="105" y="194"/>
      <point x="133" y="240"/>
      <point x="192" y="240" type="curve" smooth="yes"/>
      <point x="250" y="240"/>
      <point x="272" y="198"/>
      <point x="308" y="132" type="curve" smooth="yes"/>
      <point x="338" y="77"/>
      <point x="393" y="-15"/>
      <point x="491" y="-15" type="curve" smooth="yes"/>
      <point x="592" y="-15"/>
      <point x="661" y="72"/>
      <point x="661" y="224" type="curve" smooth="yes"/>
      <point x="661" y="434"/>
      <point x="508" y="525"/>
      <point x="420" y="525" type="curve" smooth="yes"/>
      <point x="377" y="525"/>
      <point x="367" y="503"/>
      <point x="367" y="487" type="curve" smooth="yes"/>
      <point x="367" y="468"/>
      <point x="382" y="447"/>
      <point x="416" y="447" type="curve" smooth="yes"/>
      <point x="424" y="447"/>
      <point x="438" y="448"/>
      <point x="448" y="448" type="curve" smooth="yes"/>
      <point x="534" y="448"/>
      <point x="614" y="371"/>
      <point x="614" y="256" type="curve" smooth="yes"/>
      <point x="614" y="169"/>
      <point x="572" y="92"/>
      <point x="481" y="92" type="curve" smooth="yes"/>
      <point x="397" y="92"/>
      <point x="348" y="158"/>
      <point x="337" y="175" type="curve" smooth="yes"/>
      <point x="307" y="222"/>
      <point x="272" y="280"/>
      <point x="191" y="280" type="curve" smooth="yes"/>
      <point x="106" y="280"/>
      <point x="60" y="212"/>
      <point x="60" y="134" type="curve" smooth="yes"/>
      <point x="60" y="54"/>
      <point x="110" y="-24"/>
    </contour>
    <contour>
      <point x="212" y="508" type="line"/>
      <point x="135" y="642"/>
      <point x="117" y="659"/>
      <point x="89" y="659" type="curve" smooth="yes"/>
      <point x="61" y="659"/>
      <point x="44" y="642"/>
      <point x="44" y="615" type="curve" smooth="yes"/>
      <point x="44" y="584"/>
      <point x="70" y="566"/>
      <point x="195" y="497" type="curve"/>
    </contour>
    <contour>
      <point x="208" y="497" type="line"/>
      <point x="335" y="605"/>
      <point x="388" y="639"/>
      <point x="479" y="707" type="curve" smooth="yes"/>
      <point x="492" y="717"/>
      <point x="498" y="722"/>
      <point x="498" y="727" type="curve" smooth="yes"/>
      <point x="498" y="732"/>
      <point x="495" y="734"/>
      <point x="481" y="734" type="curve" smooth="yes"/>
      <point x="463" y="734"/>
      <point x="407" y="731"/>
      <point x="399" y="730" type="curve" smooth="yes"/>
      <point x="383" y="728"/>
      <point x="381" y="725"/>
      <point x="374" y="715" type="curve" smooth="yes"/>
      <point x="331" y="653"/>
      <point x="285" y="606"/>
      <point x="191" y="523" type="curve"/>
      <point x="195" y="497" type="line"/>
    </contour>
  </outline>
</glyph>
<glyph name="tNukta" format="2">
  <unicode hex="0C3C"/>
  <outline>
    <contour>
      <point x="0" y="-88" type="curve" smooth="yes"/>
      <point x="-59" y="-88"/>
      <point x="-104" y="-132"/>
      <point x="-104" y="-190" type="curve" smooth="yes"/>
      <point x="-104" y="-249"/>
      <point x="-58" y="-292"/>
      <point x="-1" y="-292" type="curve" smooth="yes"/>
      <point x="56" y="-292"/>
      <point x="103" y="-250"/>
      <point x="103" y="-191" type="curve" smooth="yes"/>
      <point x="103" y="-133"/>
      <point x="59" y="-88"/>
    </contour>
    <contour>
      <point x="-2" y="-126" type="curve" smooth="yes"/>
      <point x="32" y="-126"/>
      <point x="59" y="-150"/>
      <point x="59" y="-185" type="curve" smooth="yes"/>
      <point x="59" y="-220"/>
      <point x="32" y="-243"/>
      <point x="-1" y="-243" type="curve" smooth="yes"/>
      <point x="-34" y="-243"/>
      <point x="-60" y="-220"/>
      <point x="-60" y="-184" type="curve" smooth="yes"/>
      <point x="-60" y="-149"/>
      <point x="-34" y="-126"/>
    </contour>
  </outline>
  <guideline angle="90" x="-360" y="0"/>
</glyph>
<glyph name="tAvagraha" format="2">
  <advance width="719"/>
  <unicode hex="0C3D"/>
  <outline>
    <contour>
      <point x="709" y="-5" type="line"/>
      <point x="705" y="77" type="line"/>
      <point x="265" y="77" type="line" smooth="yes"/>
      <point x="174" y="77"/>
      <point x="130" y="99"/>
      <point x="130" y="150" type="curve" smooth="yes"/>
      <point x="130" y="210"/>
      <point x="193" y="231"/>
      <point x="253" y="251" type="curve" smooth="yes"/>
      <point x="327" y="276"/>
      <point x="398" y="302"/>
      <point x="398" y="387" type="curve" smooth="yes"/>
      <point x="398" y="470"/>
      <point x="332" y="525"/>
      <point x="244" y="525" type="curve" smooth="yes"/>
      <point x="151" y="525"/>
      <point x="92" y="462"/>
      <point x="92" y="372" type="curve"/>
      <point x="92" y="371"/>
      <point x="92" y="367"/>
      <point x="93" y="353" type="curve"/>
      <point x="127" y="353" type="line"/>
      <point x="131" y="392"/>
      <point x="152" y="452"/>
      <point x="250" y="452" type="curve" smooth="yes"/>
      <point x="321" y="452"/>
      <point x="351" y="420"/>
      <point x="351" y="379" type="curve" smooth="yes"/>
      <point x="351" y="313"/>
      <point x="267" y="301"/>
      <point x="192" y="273" type="curve" smooth="yes"/>
      <point x="131" y="250"/>
      <point x="73" y="216"/>
      <point x="73" y="133" type="curve" smooth="yes"/>
      <point x="73" y="31"/>
      <point x="159" y="-5"/>
      <point x="276" y="-5" type="curve" smooth="yes"/>
    </contour>
  </outline>
</glyph>
<glyph name="tSignAa" format="2">
  <unicode hex="0C3E"/>
  <outline>
    <contour>
      <point x="451" y="313" type="curve" smooth="yes"/>
      <point x="510" y="313"/>
      <point x="562" y="352"/>
      <point x="562" y="422" type="curve" smooth="yes"/>
      <point x="562" y="490"/>
      <point x="514" y="548"/>
      <point x="412" y="548" type="curve" smooth="yes"/>
      <point x="-238" y="548" type="line"/>
      <point x="-235" y="482" type="line"/>
      <point x="388" y="482" type="line"/>
      <point x="450" y="483" type="line"/>
      <point x="487" y="483"/>
      <point x="517" y="455"/>
      <point x="517" y="419" type="curve" smooth="yes"/>
      <point x="517" y="383"/>
      <point x="487" y="356"/>
      <point x="450" y="356" type="curve" smooth="yes"/>
      <point x="413" y="356"/>
      <point x="383" y="383"/>
      <point x="383" y="419" type="curve" smooth="yes"/>
      <point x="383" y="455"/>
      <point x="413" y="483"/>
      <point x="450" y="483" type="curve"/>
      <point x="399" y="510" type="line"/>
      <point x="352" y="478"/>
      <point x="342" y="440"/>
      <point x="342" y="414" type="curve" smooth="yes"/>
      <point x="342" y="360"/>
      <point x="386" y="313"/>
    </contour>
  </outline>
</glyph>
<glyph name="tSignI" format="2">
  <unicode hex="0C3F"/>
  <outline>
    <contour>
      <point x="-1" y="487" type="curve" smooth="yes"/>
      <point x="106" y="487"/>
      <point x="199" y="547"/>
      <point x="199" y="641" type="curve" smooth="yes"/>
      <point x="199" y="724"/>
      <point x="127" y="794"/>
      <point x="16" y="794" type="curve" smooth="yes"/>
      <point x="-83" y="794"/>
      <point x="-140" y="737"/>
      <point x="-140" y="678" type="curve" smooth="yes"/>
      <point x="-140" y="624"/>
      <point x="-91" y="574"/>
      <point x="-20" y="574" type="curve" smooth="yes"/>
      <point x="28" y="574"/>
      <point x="66" y="596"/>
      <point x="85" y="653" type="curve"/>
      <point x="52" y="666" type="line"/>
      <point x="35" y="627"/>
      <point x="15" y="615"/>
      <point x="-12" y="615" type="curve" smooth="yes"/>
      <point x="-47" y="615"/>
      <point x="-68" y="635"/>
      <point x="-68" y="666" type="curve" smooth="yes"/>
      <point x="-68" y="715"/>
      <point x="-20" y="738"/>
      <point x="34" y="738" type="curve" smooth="yes"/>
      <point x="98" y="738"/>
      <point x="151" y="698"/>
      <point x="151" y="638" type="curve" smooth="yes"/>
      <point x="151" y="566"/>
      <point x="74" y="525"/>
      <point x="-3" y="525" type="curve" smooth="yes"/>
      <point x="-54" y="525"/>
      <point x="-110" y="542"/>
      <point x="-156" y="571" type="curve"/>
      <point x="-176" y="539" type="line"/>
      <point x="-125" y="504"/>
      <point x="-58" y="487"/>
    </contour>
  </outline>
</glyph>
<glyph name="tSignIi" format="2">
  <unicode hex="0C40"/>
  <outline>
    <contour>
      <point x="-1" y="487" type="curve" smooth="yes"/>
      <point x="106" y="487"/>
      <point x="199" y="546"/>
      <point x="199" y="640" type="curve" smooth="yes"/>
      <point x="199" y="723"/>
      <point x="127" y="792"/>
      <point x="16" y="792" type="curve" smooth="yes"/>
      <point x="-83" y="792"/>
      <point x="-140" y="737"/>
      <point x="-140" y="678" type="curve" smooth="yes"/>
      <point x="-140" y="624"/>
      <point x="-91" y="574"/>
      <point x="-20" y="574" type="curve" smooth="yes"/>
      <point x="28" y="574"/>
      <point x="66" y="596"/>
      <point x="85" y="653" type="curve"/>
      <point x="52" y="666" type="line"/>
      <point x="35" y="627"/>
      <point x="15" y="615"/>
      <point x="-12" y="615" type="curve" smooth="yes"/>
      <point x="-47" y="615"/>
      <point x="-68" y="634"/>
      <point x="-68" y="665" type="curve" smooth="yes"/>
      <point x="-68" y="714"/>
      <point x="-20" y="738"/>
      <point x="34" y="738" type="curve" smooth="yes"/>
      <point x="98" y="738"/>
      <point x="151" y="697"/>
      <point x="151" y="637" type="curve" smooth="yes"/>
      <point x="151" y="565"/>
      <point x="74" y="525"/>
      <point x="-3" y="525" type="curve" smooth="yes"/>
      <point x="-54" y="525"/>
      <point x="-110" y="542"/>
      <point x="-156" y="571" type="curve"/>
      <point x="-176" y="539" type="line"/>
      <point x="-125" y="504"/>
      <point x="-58" y="487"/>
    </contour>
    <contour>
      <point x="22" y="792" type="line"/>
      <point x="1" y="793"/>
      <point x="-30" y="822"/>
      <point x="-30" y="857" type="curve" smooth="yes"/>
      <point x="-30" y="891"/>
      <point x="-2" y="908"/>
      <point x="30" y="908" type="curve" smooth="yes"/>
      <point x="81" y="908"/>
      <point x="89" y="864"/>
      <point x="91" y="852" type="curve"/>
      <point x="122" y="852" type="line"/>
      <point x="125" y="860"/>
      <point x="126" y="870"/>
      <point x="126" y="877" type="curve" smooth="yes"/>
      <point x="126" y="922"/>
      <point x="89" y="966"/>
      <point x="27" y="966" type="curve" smooth="yes"/>
      <point x="-33" y="966"/>
      <point x="-81" y="928"/>
      <point x="-81" y="872" type="curve" smooth="yes"/>
      <point x="-81" y="838"/>
      <point x="-62" y="811"/>
      <point x="-37" y="788" type="curve"/>
      <point x="-56" y="753" type="line"/>
    </contour>
  </outline>
</glyph>
<glyph name="tSignU" format="2">
  <advance width="365"/>
  <unicode hex="0C41"/>
  <outline>
    <contour>
      <point x="103" y="-15" type="curve" smooth="yes"/>
      <point x="212" y="-15"/>
      <point x="292" y="83"/>
      <point x="292" y="229" type="curve" smooth="yes"/>
      <point x="292" y="431"/>
      <point x="141" y="525"/>
      <point x="55" y="525" type="curve" smooth="yes"/>
      <point x="13" y="525"/>
      <point x="3" y="503"/>
      <point x="3" y="487" type="curve" smooth="yes"/>
      <point x="3" y="468"/>
      <point x="17" y="447"/>
      <point x="52" y="447" type="curve" smooth="yes"/>
      <point x="59" y="447"/>
      <point x="73" y="448"/>
      <point x="82" y="448" type="curve" smooth="yes"/>
      <point x="168" y="448"/>
      <point x="245" y="368"/>
      <point x="245" y="257" type="curve" smooth="yes"/>
      <point x="245" y="171"/>
      <point x="198" y="92"/>
      <point x="88" y="92" type="curve" smooth="yes"/>
      <point x="17" y="92"/>
      <point x="-51" y="126"/>
      <point x="-77" y="253" type="curve"/>
      <point x="-79" y="253" type="line"/>
      <point x="-89" y="170" type="line"/>
      <point x="-52" y="17"/>
      <point x="41" y="-15"/>
    </contour>
  </outline>
</glyph>
<glyph name="tSignUu" format="2">
  <advance width="642"/>
  <unicode hex="0C42"/>
  <outline>
    <contour>
      <point x="103" y="-15" type="curve" smooth="yes"/>
      <point x="211" y="-15"/>
      <point x="289" y="81"/>
      <point x="289" y="224" type="curve" smooth="yes"/>
      <point x="289" y="334"/>
      <point x="241" y="406"/>
      <point x="187" y="452" type="curve"/>
      <point x="207" y="492" type="line"/>
      <point x="77" y="454" type="line"/>
      <point x="159" y="454"/>
      <point x="242" y="364"/>
      <point x="242" y="250" type="curve" smooth="yes"/>
      <point x="242" y="161"/>
      <point x="193" y="92"/>
      <point x="88" y="92" type="curve" smooth="yes"/>
      <point x="17" y="92"/>
      <point x="-51" y="125"/>
      <point x="-77" y="253" type="curve"/>
      <point x="-79" y="253" type="line"/>
      <point x="-89" y="170" type="line"/>
      <point x="-52" y="17"/>
      <point x="41" y="-15"/>
    </contour>
    <contour>
      <point x="511" y="287" type="curve" smooth="yes"/>
      <point x="570" y="287"/>
      <point x="622" y="324"/>
      <point x="622" y="394" type="curve" smooth="yes"/>
      <point x="622" y="462"/>
      <point x="574" y="520"/>
      <point x="472" y="520" type="curve" smooth="yes"/>
      <point x="5" y="520" type="line"/>
      <point x="8" y="454" type="line"/>
      <point x="466" y="454" type="line"/>
      <point x="510" y="455" type="line"/>
      <point x="547" y="455"/>
      <point x="577" y="427"/>
      <point x="577" y="391" type="curve" smooth="yes"/>
      <point x="577" y="355"/>
      <point x="547" y="327"/>
      <point x="510" y="327" type="curve" smooth="yes"/>
      <point x="473" y="327"/>
      <point x="443" y="355"/>
      <point x="443" y="391" type="curve" smooth="yes"/>
      <point x="443" y="427"/>
      <point x="473" y="455"/>
      <point x="510" y="455" type="curve"/>
      <point x="444" y="467" type="line"/>
      <point x="414" y="444"/>
      <point x="404" y="412"/>
      <point x="404" y="386" type="curve" smooth="yes"/>
      <point x="404" y="332"/>
      <point x="446" y="287"/>
    </contour>
  </outline>
</glyph>
<glyph name="tSignVocalicRr" format="2">
  <unicode hex="0C44"/>
  <outline>
    <contour>
      <point x="127" y="-444" type="curve" smooth="yes"/>
      <point x="274" y="-444"/>
      <point x="372" y="-323"/>
      <point x="372" y="-95" type="curve" smooth="yes"/>
      <point x="372" y="165"/>
      <point x="251" y="349"/>
      <point x="146" y="437" type="curve"/>
      <point x="158" y="462" type="line"/>
      <point x="4" y="439" type="line"/>
      <point x="181" y="400"/>
      <point x="326" y="172"/>
      <point x="326" y="-87" type="curve" smooth="yes"/>
      <point x="326" y="-339"/>
      <point x="194" y="-361"/>
      <point x="122" y="-361" type="curve" smooth="yes"/>
      <point x="11" y="-361"/>
      <point x="-35" y="-307"/>
      <point x="-35" y="-247" type="curve" smooth="yes"/>
      <point x="-35" y="-182"/>
      <point x="9" y="-126"/>
      <point x="70" y="-126" type="curve" smooth="yes"/>
      <point x="104" y="-126"/>
      <point x="126" y="-150"/>
      <point x="126" y="-181" type="curve" smooth="yes"/>
      <point x="126" y="-213"/>
      <point x="101" y="-237"/>
      <point x="69" y="-237" type="curve" smooth="yes"/>
      <point x="35" y="-237"/>
      <point x="13" y="-210"/>
      <point x="13" y="-180" type="curve" smooth="yes"/>
      <point x="13" y="-147"/>
      <point x="40" y="-126"/>
      <point x="70" y="-126" type="curve"/>
      <point x="-7" y="-126" type="line"/>
      <point x="-39" y="-188" type="line"/>
      <point x="-21" y="-194" type="line"/>
      <point x="-15" y="-241"/>
      <point x="19" y="-277"/>
      <point x="75" y="-277" type="curve" smooth="yes"/>
      <point x="142" y="-277"/>
      <point x="175" y="-229"/>
      <point x="175" y="-182" type="curve" smooth="yes"/>
      <point x="175" y="-133"/>
      <point x="136" y="-88"/>
      <point x="74" y="-88" type="curve" smooth="yes"/>
      <point x="-5" y="-88"/>
      <point x="-75" y="-159"/>
      <point x="-75" y="-256" type="curve" smooth="yes"/>
      <point x="-75" y="-360"/>
      <point x="2" y="-444"/>
    </contour>
    <contour>
      <point x="476" y="270" type="curve" smooth="yes"/>
      <point x="535" y="270"/>
      <point x="587" y="310"/>
      <point x="587" y="379" type="curve" smooth="yes"/>
      <point x="587" y="447"/>
      <point x="539" y="505"/>
      <point x="437" y="505" type="curve" smooth="yes"/>
      <point x="1" y="505" type="line"/>
      <point x="4" y="439" type="line"/>
      <point x="424" y="439" type="line"/>
      <point x="475" y="440" type="line"/>
      <point x="512" y="440"/>
      <point x="542" y="412"/>
      <point x="542" y="376" type="curve" smooth="yes"/>
      <point x="542" y="341"/>
      <point x="512" y="313"/>
      <point x="475" y="313" type="curve" smooth="yes"/>
      <point x="438" y="313"/>
      <point x="408" y="341"/>
      <point x="408" y="376" type="curve" smooth="yes"/>
      <point x="408" y="412"/>
      <point x="438" y="440"/>
      <point x="475" y="440" type="curve"/>
      <point x="413" y="458" type="line"/>
      <point x="376" y="429"/>
      <point x="367" y="397"/>
      <point x="367" y="371" type="curve" smooth="yes"/>
      <point x="367" y="318"/>
      <point x="411" y="270"/>
    </contour>
  </outline>
</glyph>
<glyph name="tSignE" format="2">
  <unicode hex="0C46"/>
  <outline>
    <contour>
      <point x="171" y="482" type="line" smooth="yes"/>
      <point x="251" y="482"/>
      <point x="280" y="531"/>
      <point x="280" y="582" type="curve" smooth="yes"/>
      <point x="280" y="642"/>
      <point x="239" y="693"/>
      <point x="149" y="693" type="curve" smooth="yes"/>
      <point x="-305" y="693" type="line"/>
      <point x="-302" y="627" type="line"/>
      <point x="164" y="627" type="line" smooth="yes"/>
      <point x="214" y="627"/>
      <point x="235" y="605"/>
      <point x="235" y="576" type="curve" smooth="yes"/>
      <point x="235" y="552"/>
      <point x="222" y="525"/>
      <point x="170" y="525" type="curve" smooth="yes"/>
      <point x="-185" y="525" type="line"/>
      <point x="-183" y="482" type="line"/>
    </contour>
  </outline>
</glyph>
<glyph name="tSignEe" format="2">
  <unicode hex="0C47"/>
  <outline>
    <contour>
      <point x="171" y="482" type="line" smooth="yes"/>
      <point x="251" y="482"/>
      <point x="280" y="531"/>
      <point x="280" y="582" type="curve" smooth="yes"/>
      <point x="280" y="642"/>
      <point x="239" y="693"/>
      <point x="149" y="693" type="curve" smooth="yes"/>
      <point x="-305" y="693" type="line"/>
      <point x="-302" y="627" type="line"/>
      <point x="164" y="627" type="line" smooth="yes"/>
      <point x="214" y="627"/>
      <point x="235" y="605"/>
      <point x="235" y="576" type="curve" smooth="yes"/>
      <point x="235" y="552"/>
      <point x="222" y="525"/>
      <point x="170" y="525" type="curve" smooth="yes"/>
      <point x="-185" y="525" type="line"/>
      <point x="-183" y="482" type="line"/>
    </contour>
    <contour>
      <point x="220" y="679" type="line"/>
      <point x="170" y="703"/>
      <point x="120" y="729"/>
      <point x="120" y="776" type="curve" smooth="yes"/>
      <point x="120" y="806"/>
      <point x="148" y="823"/>
      <point x="180" y="823" type="curve" smooth="yes"/>
      <point x="231" y="823"/>
      <point x="239" y="779"/>
      <point x="241" y="767" type="curve"/>
      <point x="272" y="767" type="line"/>
      <point x="275" y="775"/>
      <point x="276" y="785"/>
      <point x="276" y="792" type="curve" smooth="yes"/>
      <point x="276" y="837"/>
      <point x="240" y="881"/>
      <point x="176" y="881" type="curve" smooth="yes"/>
      <point x="118" y="881"/>
      <point x="70" y="844"/>
      <point x="70" y="790" type="curve" smooth="yes"/>
      <point x="70" y="750"/>
      <point x="91" y="721"/>
      <point x="128" y="695" type="curve"/>
      <point x="106" y="652" type="line"/>
    </contour>
  </outline>
</glyph>
<glyph name="tSignAi" format="2">
  <unicode hex="0C48"/>
  <outline>
    <contour>
      <point x="308" y="-323" type="line"/>
      <point x="305" y="-257" type="line"/>
      <point x="-170" y="-257" type="line"/>
      <point x="-235" y="-258" type="line"/>
      <point x="-272" y="-258"/>
      <point x="-302" y="-230"/>
      <point x="-302" y="-194" type="curve" smooth="yes"/>
      <point x="-302" y="-158"/>
      <point x="-272" y="-131"/>
      <point x="-235" y="-131" type="curve" smooth="yes"/>
      <point x="-198" y="-131"/>
      <point x="-168" y="-158"/>
      <point x="-168" y="-194" type="curve" smooth="yes"/>
      <point x="-168" y="-230"/>
      <point x="-198" y="-258"/>
      <point x="-235" y="-258" type="curve"/>
      <point x="-178" y="-280" type="line"/>
      <point x="-137" y="-250"/>
      <point x="-127" y="-215"/>
      <point x="-127" y="-189" type="curve" smooth="yes"/>
      <point x="-127" y="-135"/>
      <point x="-171" y="-88"/>
      <point x="-236" y="-88" type="curve" smooth="yes"/>
      <point x="-295" y="-88"/>
      <point x="-347" y="-127"/>
      <point x="-347" y="-197" type="curve" smooth="yes"/>
      <point x="-347" y="-265"/>
      <point x="-299" y="-323"/>
      <point x="-197" y="-323" type="curve" smooth="yes"/>
    </contour>
    <contour>
      <point x="171" y="482" type="line" smooth="yes"/>
      <point x="251" y="482"/>
      <point x="280" y="531"/>
      <point x="280" y="582" type="curve" smooth="yes"/>
      <point x="280" y="642"/>
      <point x="239" y="693"/>
      <point x="149" y="693" type="curve" smooth="yes"/>
      <point x="-305" y="693" type="line"/>
      <point x="-302" y="627" type="line"/>
      <point x="164" y="627" type="line" smooth="yes"/>
      <point x="214" y="627"/>
      <point x="235" y="605"/>
      <point x="235" y="576" type="curve" smooth="yes"/>
      <point x="235" y="552"/>
      <point x="222" y="525"/>
      <point x="170" y="525" type="curve" smooth="yes"/>
      <point x="-185" y="525" type="line"/>
      <point x="-183" y="482" type="line"/>
    </contour>
  </outline>
  <guideline angle="90" x="280" y="0"/>
  <guideline angle="90" x="-316" y="0"/>
</glyph>
<glyph name="tSignO" format="2">
  <unicode hex="0C4A"/>
  <outline>
    <contour>
      <point x="292" y="490" type="curve" smooth="yes"/>
      <point x="349" y="490"/>
      <point x="400" y="529"/>
      <point x="400" y="597" type="curve" smooth="yes"/>
      <point x="400" y="684"/>
      <point x="321" y="729"/>
      <point x="219" y="729" type="curve" smooth="yes"/>
      <point x="152" y="729"/>
      <point x="82" y="709"/>
      <point x="34" y="666" type="curve"/>
      <point x="45" y="593" type="line"/>
      <point x="48" y="593" type="line"/>
      <point x="89" y="626"/>
      <point x="149" y="664"/>
      <point x="237" y="664" type="curve"/>
      <point x="290" y="657" type="line"/>
      <point x="325" y="657"/>
      <point x="355" y="631"/>
      <point x="355" y="595" type="curve" smooth="yes"/>
      <point x="355" y="559"/>
      <point x="327" y="532"/>
      <point x="292" y="532" type="curve" smooth="yes"/>
      <point x="257" y="532"/>
      <point x="229" y="559"/>
      <point x="229" y="595" type="curve" smooth="yes"/>
      <point x="229" y="631"/>
      <point x="255" y="657"/>
      <point x="290" y="657" type="curve"/>
      <point x="203" y="687" type="line"/>
      <point x="214" y="661" type="line"/>
      <point x="195" y="638"/>
      <point x="189" y="613"/>
      <point x="189" y="591" type="curve" smooth="yes"/>
      <point x="189" y="537"/>
      <point x="229" y="490"/>
    </contour>
    <contour>
      <point x="-104" y="485" type="curve" smooth="yes"/>
      <point x="-71" y="485"/>
      <point x="-36" y="498"/>
      <point x="-36" y="520" type="curve"/>
      <point x="-75" y="520" type="line" smooth="yes"/>
      <point x="-147" y="520"/>
      <point x="-182" y="559"/>
      <point x="-182" y="596" type="curve" smooth="yes"/>
      <point x="-182" y="632"/>
      <point x="-150" y="663"/>
      <point x="-97" y="663" type="curve" smooth="yes"/>
      <point x="-47" y="663"/>
      <point x="5" y="634"/>
      <point x="45" y="593" type="curve"/>
      <point x="64" y="676" type="line"/>
      <point x="43" y="676" type="line"/>
      <point x="3" y="709"/>
      <point x="-47" y="729"/>
      <point x="-97" y="729" type="curve" smooth="yes"/>
      <point x="-170" y="729"/>
      <point x="-237" y="685"/>
      <point x="-237" y="613" type="curve" smooth="yes"/>
      <point x="-237" y="543"/>
      <point x="-173" y="485"/>
    </contour>
  </outline>
</glyph>
<glyph name="tSignOo" format="2">
  <unicode hex="0C4B"/>
  <outline>
    <contour>
      <point x="292" y="490" type="curve" smooth="yes"/>
      <point x="349" y="490"/>
      <point x="400" y="528"/>
      <point x="400" y="598" type="curve" smooth="yes"/>
      <point x="400" y="667"/>
      <point x="350" y="695"/>
      <point x="321" y="709" type="curve"/>
      <point x="289" y="725"/>
      <point x="225" y="729"/>
      <point x="218" y="729" type="curve" smooth="yes"/>
      <point x="140" y="729"/>
      <point x="77" y="703"/>
      <point x="36" y="668" type="curve"/>
      <point x="45" y="593" type="line"/>
      <point x="48" y="593" type="line"/>
      <point x="87" y="625"/>
      <point x="149" y="664"/>
      <point x="235" y="664" type="curve"/>
      <point x="290" y="657" type="line"/>
      <point x="325" y="657"/>
      <point x="355" y="631"/>
      <point x="355" y="595" type="curve" smooth="yes"/>
      <point x="355" y="559"/>
      <point x="327" y="532"/>
      <point x="292" y="532" type="curve" smooth="yes"/>
      <point x="257" y="532"/>
      <point x="229" y="559"/>
      <point x="229" y="595" type="curve" smooth="yes"/>
      <point x="229" y="631"/>
      <point x="255" y="657"/>
      <point x="290" y="657" type="curve"/>
      <point x="204" y="680" type="line"/>
      <point x="214" y="661" type="line"/>
      <point x="195" y="638"/>
      <point x="188" y="613"/>
      <point x="188" y="591" type="curve" smooth="yes"/>
      <point x="188" y="537"/>
      <point x="229" y="490"/>
    </contour>
    <contour>
      <point x="-104" y="485" type="curve" smooth="yes"/>
      <point x="-71" y="485"/>
      <point x="-36" y="498"/>
      <point x="-36" y="520" type="curve"/>
      <point x="-75" y="520" type="line" smooth="yes"/>
      <point x="-147" y="520"/>
      <point x="-182" y="559"/>
      <point x="-182" y="596" type="curve" smooth="yes"/>
      <point x="-182" y="632"/>
      <point x="-150" y="663"/>
      <point x="-97" y="663" type="curve" smooth="yes"/>
      <point x="-47" y="663"/>
      <point x="5" y="634"/>
      <point x="45" y="593" type="curve"/>
      <point x="72" y="676" type="line"/>
      <point x="43" y="676" type="line"/>
      <point x="3" y="709"/>
      <point x="-47" y="729"/>
      <point x="-97" y="729" type="curve" smooth="yes"/>
      <point x="-170" y="729"/>
      <point x="-237" y="685"/>
      <point x="-237" y="613" type="curve" smooth="yes"/>
      <point x="-237" y="543"/>
      <point x="-173" y="485"/>
    </contour>
    <contour>
      <point x="321" y="696" type="line"/>
      <point x="321" y="709" type="line"/>
      <point x="308" y="715"/>
      <point x="241" y="747"/>
      <point x="241" y="797" type="curve" smooth="yes"/>
      <point x="241" y="830"/>
      <point x="269" y="846"/>
      <point x="301" y="846" type="curve" smooth="yes"/>
      <point x="352" y="846"/>
      <point x="360" y="802"/>
      <point x="362" y="790" type="curve"/>
      <point x="393" y="790" type="line"/>
      <point x="396" y="798"/>
      <point x="397" y="808"/>
      <point x="397" y="815" type="curve" smooth="yes"/>
      <point x="397" y="860"/>
      <point x="361" y="904"/>
      <point x="297" y="904" type="curve" smooth="yes"/>
      <point x="239" y="904"/>
      <point x="191" y="868"/>
      <point x="191" y="811" type="curve" smooth="yes"/>
      <point x="191" y="779"/>
      <point x="206" y="751"/>
      <point x="232" y="730" type="curve"/>
      <point x="220" y="696" type="line"/>
    </contour>
  </outline>
</glyph>
<glyph name="tSignAu" format="2">
  <unicode hex="0C4C"/>
  <outline>
    <contour>
      <point x="451" y="458" type="curve" smooth="yes"/>
      <point x="510" y="458"/>
      <point x="562" y="497"/>
      <point x="562" y="567" type="curve" smooth="yes"/>
      <point x="562" y="635"/>
      <point x="514" y="693"/>
      <point x="412" y="693" type="curve" smooth="yes"/>
      <point x="-228" y="693" type="line"/>
      <point x="-225" y="627" type="line"/>
      <point x="388" y="627" type="line"/>
      <point x="449" y="628" type="line"/>
      <point x="486" y="628"/>
      <point x="517" y="600"/>
      <point x="517" y="564" type="curve" smooth="yes"/>
      <point x="517" y="528"/>
      <point x="487" y="501"/>
      <point x="450" y="501" type="curve" smooth="yes"/>
      <point x="413" y="501"/>
      <point x="383" y="528"/>
      <point x="383" y="564" type="curve" smooth="yes"/>
      <point x="383" y="600"/>
      <point x="413" y="628"/>
      <point x="449" y="628" type="curve"/>
      <point x="398" y="653" type="line"/>
      <point x="350" y="620"/>
      <point x="342" y="585"/>
      <point x="342" y="559" type="curve" smooth="yes"/>
      <point x="342" y="505"/>
      <point x="386" y="458"/>
    </contour>
    <contour>
      <point x="115" y="482" type="line" smooth="yes"/>
      <point x="197" y="482"/>
      <point x="225" y="526"/>
      <point x="225" y="566" type="curve" smooth="yes"/>
      <point x="225" y="589"/>
      <point x="215" y="610"/>
      <point x="198" y="625" type="curve"/>
      <point x="215" y="660" type="line"/>
      <point x="109" y="627" type="line"/>
      <point x="169" y="627"/>
      <point x="180" y="590"/>
      <point x="180" y="572" type="curve" smooth="yes"/>
      <point x="180" y="549"/>
      <point x="168" y="525"/>
      <point x="114" y="525" type="curve" smooth="yes"/>
      <point x="-221" y="525" type="line"/>
      <point x="-219" y="482" type="line"/>
    </contour>
  </outline>
  <guideline angle="92.4851" x="-207" y="0"/>
</glyph>
<glyph name="tVirama" format="2">
  <unicode hex="0C4D"/>
  <outline>
    <contour>
      <point x="-148" y="662" type="line"/>
      <point x="-195" y="662"/>
      <point x="-216" y="681"/>
      <point x="-216" y="707" type="curve" smooth="yes"/>
      <point x="-216" y="728"/>
      <point x="-203" y="752"/>
      <point x="-148" y="752" type="curve" smooth="yes"/>
      <point x="273" y="752" type="line"/>
      <point x="270" y="818" type="line"/>
      <point x="-137" y="818" type="line" smooth="yes"/>
      <point x="-232" y="818"/>
      <point x="-261" y="769"/>
      <point x="-261" y="721" type="curve" smooth="yes"/>
      <point x="-261" y="676"/>
      <point x="-236" y="643"/>
      <point x="-194" y="631" type="curve"/>
    </contour>
    <contour>
      <point x="5" y="482" type="line"/>
      <point x="3" y="525" type="line"/>
      <point x="-131" y="525" type="line" smooth="yes"/>
      <point x="-181" y="525"/>
      <point x="-202" y="544"/>
      <point x="-202" y="570" type="curve" smooth="yes"/>
      <point x="-202" y="591"/>
      <point x="-189" y="615"/>
      <point x="-137" y="615" type="curve" smooth="yes"/>
      <point x="126" y="615" type="line"/>
      <point x="124" y="662" type="line"/>
      <point x="-210" y="662" type="line"/>
      <point x="-210" y="635" type="line"/>
      <point x="-235" y="618"/>
      <point x="-245" y="595"/>
      <point x="-245" y="568" type="curve" smooth="yes"/>
      <point x="-245" y="527"/>
      <point x="-220" y="482"/>
      <point x="-126" y="482" type="curve" smooth="yes"/>
    </contour>
  </outline>
</glyph>
<glyph name="tLengthMark" format="2">
  <unicode hex="0C55"/>
  <outline>
    <contour>
      <point x="220" y="679" type="line"/>
      <point x="171" y="701"/>
      <point x="120" y="729"/>
      <point x="120" y="776" type="curve" smooth="yes"/>
      <point x="120" y="806"/>
      <point x="148" y="823"/>
      <point x="180" y="823" type="curve" smooth="yes"/>
      <point x="231" y="823"/>
      <point x="239" y="779"/>
      <point x="241" y="767" type="curve"/>
      <point x="272" y="767" type="line"/>
      <point x="275" y="775"/>
      <point x="276" y="785"/>
      <point x="276" y="792" type="curve" smooth="yes"/>
      <point x="276" y="837"/>
      <point x="240" y="881"/>
      <point x="176" y="881" type="curve" smooth="yes"/>
      <point x="118" y="881"/>
      <point x="70" y="844"/>
      <point x="70" y="790" type="curve" smooth="yes"/>
      <point x="70" y="750"/>
      <point x="91" y="721"/>
      <point x="128" y="695" type="curve"/>
      <point x="128" y="690" type="line"/>
      <point x="219" y="674" type="line"/>
    </contour>
  </outline>
</glyph>
<glyph name="tAiLengthMark" format="2">
  <unicode hex="0C56"/>
  <outline>
    <contour>
      <point x="308" y="-323" type="line"/>
      <point x="305" y="-257" type="line"/>
      <point x="-170" y="-257" type="line"/>
      <point x="-235" y="-258" type="line"/>
      <point x="-272" y="-258"/>
      <point x="-302" y="-230"/>
      <point x="-302" y="-194" type="curve" smooth="yes"/>
      <point x="-302" y="-158"/>
      <point x="-272" y="-131"/>
      <point x="-235" y="-131" type="curve" smooth="yes"/>
      <point x="-198" y="-131"/>
      <point x="-168" y="-158"/>
      <point x="-168" y="-194" type="curve" smooth="yes"/>
      <point x="-168" y="-230"/>
      <point x="-198" y="-258"/>
      <point x="-235" y="-258" type="curve"/>
      <point x="-178" y="-280" type="line"/>
      <point x="-137" y="-250"/>
      <point x="-127" y="-215"/>
      <point x="-127" y="-189" type="curve" smooth="yes"/>
      <point x="-127" y="-135"/>
      <point x="-171" y="-88"/>
      <point x="-236" y="-88" type="curve" smooth="yes"/>
      <point x="-295" y="-88"/>
      <point x="-347" y="-127"/>
      <point x="-347" y="-197" type="curve" smooth="yes"/>
      <point x="-347" y="-265"/>
      <point x="-299" y="-323"/>
      <point x="-197" y="-323" type="curve" smooth="yes"/>
    </contour>
  </outline>
</glyph>
<glyph name="tDza" format="2">
  <advance width="802"/>
  <unicode hex="0C59"/>
  <outline>
    <contour>
      <point x="244" y="-15" type="curve" smooth="yes"/>
      <point x="333" y="-15"/>
      <point x="419" y="49"/>
      <point x="421" y="153" type="curve"/>
      <point x="415" y="215" type="line"/>
      <point x="401" y="215" type="line"/>
      <point x="371" y="142"/>
      <point x="335" y="92"/>
      <point x="242" y="92" type="curve" smooth="yes"/>
      <point x="178" y="92"/>
      <point x="127" y="115"/>
      <point x="127" y="163" type="curve" smooth="yes"/>
      <point x="127" y="211"/>
      <point x="177" y="229"/>
      <point x="240" y="247" type="curve" smooth="yes"/>
      <point x="325" y="271"/>
      <point x="390" y="298"/>
      <point x="390" y="382" type="curve"/>
      <point x="379" y="446" type="line"/>
      <point x="356" y="481"/>
      <point x="321" y="525"/>
      <point x="238" y="525" type="curve" smooth="yes"/>
      <point x="143" y="525"/>
      <point x="85" y="462"/>
      <point x="85" y="372" type="curve"/>
      <point x="85" y="371"/>
      <point x="85" y="367"/>
      <point x="86" y="353" type="curve"/>
      <point x="120" y="353" type="line"/>
      <point x="124" y="392"/>
      <point x="145" y="452"/>
      <point x="243" y="452" type="curve" smooth="yes"/>
      <point x="313" y="452"/>
      <point x="345" y="420"/>
      <point x="345" y="378" type="curve" smooth="yes"/>
      <point x="345" y="319"/>
      <point x="286" y="303"/>
      <point x="223" y="285" type="curve" smooth="yes"/>
      <point x="151" y="264"/>
      <point x="73" y="238"/>
      <point x="73" y="140" type="curve" smooth="yes"/>
      <point x="73" y="34"/>
      <point x="163" y="-15"/>
    </contour>
    <contour>
      <point x="569" y="-15" type="curve" smooth="yes"/>
      <point x="649" y="-15"/>
      <point x="734" y="43"/>
      <point x="734" y="153" type="curve" smooth="yes"/>
      <point x="734" y="177"/>
      <point x="730" y="213"/>
      <point x="709" y="247" type="curve"/>
      <point x="675" y="232" type="line"/>
      <point x="683" y="216"/>
      <point x="686" y="196"/>
      <point x="686" y="183" type="curve" smooth="yes"/>
      <point x="686" y="132"/>
      <point x="640" y="92"/>
      <point x="571" y="92" type="curve" smooth="yes"/>
      <point x="489" y="92"/>
      <point x="438" y="147"/>
      <point x="415" y="215" type="curve"/>
      <point x="397" y="86" type="line"/>
      <point x="411" y="86" type="line"/>
      <point x="439" y="22"/>
      <point x="506" y="-15"/>
    </contour>
    <contour>
      <point x="562" y="279" type="curve" smooth="yes"/>
      <point x="643" y="279"/>
      <point x="690" y="335"/>
      <point x="690" y="399" type="curve" smooth="yes"/>
      <point x="690" y="470"/>
      <point x="634" y="529"/>
      <point x="567" y="529" type="curve" smooth="yes"/>
      <point x="541" y="529"/>
      <point x="528" y="515"/>
      <point x="528" y="501" type="curve" smooth="yes"/>
      <point x="528" y="487"/>
      <point x="538" y="473"/>
      <point x="566" y="471" type="curve" smooth="yes"/>
      <point x="603" y="468"/>
      <point x="645" y="456"/>
      <point x="645" y="416" type="curve" smooth="yes"/>
      <point x="645" y="374"/>
      <point x="597" y="352"/>
      <point x="547" y="352" type="curve" smooth="yes"/>
      <point x="457" y="352"/>
      <point x="391" y="428"/>
      <point x="379" y="446" type="curve"/>
      <point x="370" y="370" type="line"/>
      <point x="392" y="380" type="line"/>
      <point x="443" y="316"/>
      <point x="497" y="279"/>
    </contour>
    <contour>
      <point x="529" y="589" type="line" smooth="yes"/>
      <point x="631" y="589"/>
      <point x="679" y="645"/>
      <point x="679" y="713" type="curve" smooth="yes"/>
      <point x="679" y="783"/>
      <point x="627" y="822"/>
      <point x="568" y="822" type="curve" smooth="yes"/>
      <point x="503" y="822"/>
      <point x="459" y="775"/>
      <point x="459" y="721" type="curve" smooth="yes"/>
      <point x="459" y="695"/>
      <point x="469" y="663"/>
      <point x="499" y="640" type="curve"/>
      <point x="567" y="652" type="line"/>
      <point x="530" y="652"/>
      <point x="501" y="680"/>
      <point x="501" y="716" type="curve" smooth="yes"/>
      <point x="501" y="752"/>
      <point x="530" y="779"/>
      <point x="567" y="779" type="curve" smooth="yes"/>
      <point x="604" y="779"/>
      <point x="634" y="752"/>
      <point x="634" y="716" type="curve" smooth="yes"/>
      <point x="634" y="676"/>
      <point x="601" y="652"/>
      <point x="567" y="652" type="curve"/>
      <point x="527" y="653" type="line"/>
      <point x="131" y="653" type="line"/>
      <point x="134" y="589" type="line"/>
    </contour>
  </outline>
</glyph>
<glyph name="tRrra" format="2">
  <advance width="818"/>
  <unicode hex="0C5A"/>
  <outline>
    <contour>
      <point x="250" y="-15" type="curve" smooth="yes"/>
      <point x="311" y="-15"/>
      <point x="375" y="21"/>
      <point x="404" y="86" type="curve"/>
      <point x="424" y="86" type="line"/>
      <point x="412" y="215" type="line"/>
      <point x="398" y="215" type="line"/>
      <point x="375" y="148"/>
      <point x="331" y="92"/>
      <point x="257" y="92" type="curve" smooth="yes"/>
      <point x="175" y="92"/>
      <point x="128" y="163"/>
      <point x="128" y="240" type="curve" smooth="yes"/>
      <point x="128" y="371"/>
      <point x="264" y="482"/>
      <point x="404" y="482" type="curve" smooth="yes"/>
      <point x="543" y="482"/>
      <point x="691" y="374"/>
      <point x="691" y="233" type="curve" smooth="yes"/>
      <point x="691" y="146"/>
      <point x="634" y="92"/>
      <point x="564" y="92" type="curve" smooth="yes"/>
      <point x="492" y="92"/>
      <point x="432" y="150"/>
      <point x="412" y="215" type="curve"/>
      <point x="402" y="102" type="line"/>
      <point x="424" y="28"/>
      <point x="496" y="-15"/>
      <point x="562" y="-15" type="curve" smooth="yes"/>
      <point x="651" y="-15"/>
      <point x="745" y="62"/>
      <point x="745" y="199" type="curve" smooth="yes"/>
      <point x="745" y="377"/>
      <point x="581" y="525"/>
      <point x="405" y="525" type="curve" smooth="yes"/>
      <point x="230" y="525"/>
      <point x="73" y="383"/>
      <point x="73" y="199" type="curve" smooth="yes"/>
      <point x="73" y="56"/>
      <point x="166" y="-15"/>
    </contour>
    <contour>
      <point x="708" y="250" type="line"/>
      <point x="708" y="291" type="line"/>
      <point x="112" y="291" type="line"/>
      <point x="112" y="250" type="line"/>
    </contour>
  </outline>
</glyph>
<glyph name="tNakaaraPollu" format="2">
  <advance width="656"/>
  <unicode hex="0C5D"/>
  <outline>
    <contour>
      <point x="220" y="356" type="line"/>
      <point x="162" y="356"/>
      <point x="131" y="377"/>
      <point x="131" y="409" type="curve" smooth="yes"/>
      <point x="131" y="436"/>
      <point x="154" y="459"/>
      <point x="218" y="459" type="curve" smooth="yes"/>
      <point x="641" y="459" type="line"/>
      <point x="637" y="529" type="line"/>
      <point x="220" y="529" type="line" smooth="yes"/>
      <point x="114" y="529"/>
      <point x="73" y="477"/>
      <point x="73" y="423" type="curve" smooth="yes"/>
      <point x="73" y="376"/>
      <point x="103" y="336"/>
      <point x="163" y="321" type="curve"/>
    </contour>
    <contour>
      <point x="330" y="-11" type="line"/>
      <point x="327" y="40" type="line"/>
      <point x="226" y="40" type="line" smooth="yes"/>
      <point x="176" y="40"/>
      <point x="146" y="57"/>
      <point x="146" y="90" type="curve" smooth="yes"/>
      <point x="146" y="117"/>
      <point x="167" y="143"/>
      <point x="235" y="143" type="curve" smooth="yes"/>
      <point x="450" y="143" type="line"/>
      <point x="447" y="197" type="line"/>
      <point x="145" y="197" type="line"/>
      <point x="145" y="166" type="line"/>
      <point x="108" y="151"/>
      <point x="90" y="120"/>
      <point x="90" y="86" type="curve" smooth="yes"/>
      <point x="90" y="26"/>
      <point x="149" y="-11"/>
      <point x="227" y="-11" type="curve" smooth="yes"/>
    </contour>
    <contour>
      <point x="223" y="197" type="line"/>
      <point x="168" y="197"/>
      <point x="138" y="216"/>
      <point x="138" y="248" type="curve" smooth="yes"/>
      <point x="138" y="276"/>
      <point x="163" y="300"/>
      <point x="230" y="300" type="curve" smooth="yes"/>
      <point x="470" y="300" type="line"/>
      <point x="467" y="356" type="line"/>
      <point x="144" y="356" type="line"/>
      <point x="144" y="325" type="line"/>
      <point x="103" y="311"/>
      <point x="82" y="282"/>
      <point x="82" y="247" type="curve" smooth="yes"/>
      <point x="82" y="208"/>
      <point x="107" y="177"/>
      <point x="166" y="161" type="curve"/>
    </contour>
  </outline>
  <guideline angle="0" x="0" y="-5"/>
  <guideline angle="0" x="0" y="143"/>
  <guideline angle="0" x="0" y="300"/>
  <guideline angle="90" x="450" y="0"/>
</glyph>
<glyph name="tVocalicRr" format="2">
  <advance width="1743"/>
  <unicode hex="0C60"/>
  <outline>
    <contour>
      <point x="908" y="-15" type="curve" smooth="yes"/>
      <point x="1025" y="-15"/>
      <point x="1084" y="107"/>
      <point x="1084" y="233" type="curve" smooth="yes"/>
      <point x="1084" y="443"/>
      <point x="926" y="525"/>
      <point x="853" y="525" type="curve" smooth="yes"/>
      <point x="812" y="525"/>
      <point x="802" y="503"/>
      <point x="802" y="487" type="curve" smooth="yes"/>
      <point x="802" y="468"/>
      <point x="816" y="447"/>
      <point x="849" y="447" type="curve" smooth="yes"/>
      <point x="856" y="447"/>
      <point x="870" y="448"/>
      <point x="879" y="448" type="curve" smooth="yes"/>
      <point x="962" y="448"/>
      <point x="1038" y="369"/>
      <point x="1038" y="259" type="curve" smooth="yes"/>
      <point x="1038" y="167"/>
      <point x="991" y="92"/>
      <point x="896" y="92" type="curve" smooth="yes"/>
      <point x="826" y="92"/>
      <point x="743" y="132"/>
      <point x="737" y="266" type="curve"/>
      <point x="700" y="132" type="line"/>
      <point x="730" y="132" type="line"/>
      <point x="771" y="23"/>
      <point x="848" y="-15"/>
    </contour>
    <contour>
      <point x="244" y="-15" type="curve" smooth="yes"/>
      <point x="328" y="-15"/>
      <point x="410" y="40"/>
      <point x="425" y="148" type="curve"/>
      <point x="415" y="215" type="line"/>
      <point x="401" y="215" type="line"/>
      <point x="371" y="142"/>
      <point x="335" y="92"/>
      <point x="242" y="92" type="curve" smooth="yes"/>
      <point x="178" y="92"/>
      <point x="127" y="115"/>
      <point x="127" y="163" type="curve" smooth="yes"/>
      <point x="127" y="211"/>
      <point x="177" y="229"/>
      <point x="240" y="247" type="curve" smooth="yes"/>
      <point x="325" y="271"/>
      <point x="391" y="300"/>
      <point x="391" y="385" type="curve" smooth="yes"/>
      <point x="391" y="470"/>
      <point x="325" y="525"/>
      <point x="238" y="525" type="curve" smooth="yes"/>
      <point x="143" y="525"/>
      <point x="85" y="462"/>
      <point x="85" y="372" type="curve"/>
      <point x="85" y="371"/>
      <point x="85" y="367"/>
      <point x="86" y="353" type="curve"/>
      <point x="120" y="353" type="line"/>
      <point x="124" y="392"/>
      <point x="145" y="452"/>
      <point x="243" y="452" type="curve" smooth="yes"/>
      <point x="313" y="452"/>
      <point x="345" y="420"/>
      <point x="345" y="378" type="curve" smooth="yes"/>
      <point x="345" y="319"/>
      <point x="286" y="303"/>
      <point x="223" y="285" type="curve" smooth="yes"/>
      <point x="151" y="264"/>
      <point x="73" y="238"/>
      <point x="73" y="140" type="curve" smooth="yes"/>
      <point x="73" y="34"/>
      <point x="163" y="-15"/>
    </contour>
    <contour>
      <point x="565" y="-15" type="curve" smooth="yes"/>
      <point x="672" y="-15"/>
      <point x="733" y="83"/>
      <point x="733" y="203" type="curve"/>
      <point x="737" y="266" type="line"/>
      <point x="719" y="440"/>
      <point x="591" y="525"/>
      <point x="515" y="525" type="curve" smooth="yes"/>
      <point x="474" y="525"/>
      <point x="463" y="503"/>
      <point x="463" y="487" type="curve" smooth="yes"/>
      <point x="463" y="468"/>
      <point x="478" y="447"/>
      <point x="512" y="447" type="curve" smooth="yes"/>
      <point x="519" y="447"/>
      <point x="532" y="448"/>
      <point x="540" y="448" type="curve" smooth="yes"/>
      <point x="620" y="448"/>
      <point x="692" y="365"/>
      <point x="692" y="256" type="curve" smooth="yes"/>
      <point x="692" y="160"/>
      <point x="635" y="92"/>
      <point x="557" y="92" type="curve" smooth="yes"/>
      <point x="487" y="92"/>
      <point x="437" y="147"/>
      <point x="415" y="215" type="curve"/>
      <point x="391" y="86" type="line"/>
      <point x="411" y="86" type="line"/>
      <point x="439" y="22"/>
      <point x="502" y="-15"/>
    </contour>
    <contour>
      <point x="1249" y="-15" type="curve" smooth="yes"/>
      <point x="1346" y="-15"/>
      <point x="1420" y="82"/>
      <point x="1420" y="223" type="curve" smooth="yes"/>
      <point x="1420" y="334"/>
      <point x="1373" y="405"/>
      <point x="1318" y="452" type="curve"/>
      <point x="1331" y="478" type="line"/>
      <point x="1208" y="478" type="line"/>
      <point x="1208" y="454" type="line"/>
      <point x="1290" y="454"/>
      <point x="1373" y="364"/>
      <point x="1373" y="250" type="curve" smooth="yes"/>
      <point x="1373" y="161"/>
      <point x="1326" y="92"/>
      <point x="1236" y="92" type="curve" smooth="yes"/>
      <point x="1196" y="92"/>
      <point x="1147" y="106"/>
      <point x="1117" y="147" type="curve" smooth="yes"/>
      <point x="1096" y="175"/>
      <point x="1091" y="203"/>
      <point x="1087" y="235" type="curve"/>
      <point x="1084" y="268"/>
      <point x="1080" y="308"/>
      <point x="1065" y="350" type="curve"/>
      <point x="1044" y="132" type="line"/>
      <point x="1074" y="132" type="line"/>
      <point x="1106" y="10"/>
      <point x="1197" y="-15"/>
    </contour>
    <contour>
      <point x="1612" y="287" type="curve" smooth="yes"/>
      <point x="1671" y="287"/>
      <point x="1723" y="324"/>
      <point x="1723" y="394" type="curve" smooth="yes"/>
      <point x="1723" y="462"/>
      <point x="1675" y="520"/>
      <point x="1573" y="520" type="curve" smooth="yes"/>
      <point x="1136" y="520" type="line"/>
      <point x="1139" y="454" type="line"/>
      <point x="1544" y="454" type="line"/>
      <point x="1611" y="455" type="line"/>
      <point x="1648" y="455"/>
      <point x="1678" y="427"/>
      <point x="1678" y="391" type="curve" smooth="yes"/>
      <point x="1678" y="355"/>
      <point x="1648" y="327"/>
      <point x="1611" y="327" type="curve" smooth="yes"/>
      <point x="1574" y="327"/>
      <point x="1544" y="355"/>
      <point x="1544" y="391" type="curve" smooth="yes"/>
      <point x="1544" y="427"/>
      <point x="1574" y="455"/>
      <point x="1611" y="455" type="curve"/>
      <point x="1570" y="484" type="line"/>
      <point x="1516" y="456"/>
      <point x="1505" y="412"/>
      <point x="1505" y="386" type="curve" smooth="yes"/>
      <point x="1505" y="332"/>
      <point x="1547" y="287"/>
    </contour>
  </outline>
</glyph>
<glyph name="tVocalicLl" format="2">
  <advance width="1262"/>
  <unicode hex="0C61"/>
  <outline>
    <contour>
      <point x="518" y="-250" type="curve" smooth="yes"/>
      <point x="768" y="-250"/>
      <point x="892" y="-22"/>
      <point x="892" y="192" type="curve" smooth="yes"/>
      <point x="892" y="291"/>
      <point x="866" y="387"/>
      <point x="813" y="457" type="curve"/>
      <point x="823" y="480" type="line"/>
      <point x="737" y="459" type="line"/>
      <point x="813" y="389"/>
      <point x="849" y="294"/>
      <point x="849" y="199" type="curve" smooth="yes"/>
      <point x="849" y="20"/>
      <point x="746" y="-143"/>
      <point x="508" y="-143" type="curve" smooth="yes"/>
      <point x="373" y="-143"/>
      <point x="318" y="-92"/>
      <point x="318" y="-36" type="curve" smooth="yes"/>
      <point x="318" y="125"/>
      <point x="687" y="37"/>
      <point x="687" y="326" type="curve" smooth="yes"/>
      <point x="687" y="452"/>
      <point x="614" y="525"/>
      <point x="522" y="525" type="curve" smooth="yes"/>
      <point x="467" y="525"/>
      <point x="407" y="498"/>
      <point x="369" y="425" type="curve"/>
      <point x="334" y="425" type="line"/>
      <point x="373" y="296" type="line"/>
      <point x="397" y="376"/>
      <point x="457" y="434"/>
      <point x="524" y="434" type="curve" smooth="yes"/>
      <point x="582" y="434"/>
      <point x="639" y="391"/>
      <point x="639" y="305" type="curve" smooth="yes"/>
      <point x="639" y="78"/>
      <point x="262" y="167"/>
      <point x="262" y="-50" type="curve" smooth="yes"/>
      <point x="262" y="-151"/>
      <point x="349" y="-250"/>
    </contour>
    <contour>
      <point x="107" y="301" type="line"/>
      <point x="105" y="310"/>
      <point x="103" y="322"/>
      <point x="103" y="333" type="curve" smooth="yes"/>
      <point x="103" y="387"/>
      <point x="150" y="434"/>
      <point x="215" y="434" type="curve" smooth="yes"/>
      <point x="290" y="434"/>
      <point x="336" y="371"/>
      <point x="358" y="296" type="curve"/>
      <point x="373" y="296" type="line"/>
      <point x="372" y="408" type="line"/>
      <point x="344" y="483"/>
      <point x="286" y="525"/>
      <point x="217" y="525" type="curve" smooth="yes"/>
      <point x="131" y="525"/>
      <point x="60" y="462"/>
      <point x="60" y="364" type="curve" smooth="yes"/>
      <point x="60" y="343"/>
      <point x="63" y="318"/>
      <point x="71" y="294" type="curve"/>
    </contour>
    <contour>
      <point x="1131" y="290" type="curve" smooth="yes"/>
      <point x="1190" y="290"/>
      <point x="1242" y="329"/>
      <point x="1242" y="399" type="curve" smooth="yes"/>
      <point x="1242" y="467"/>
      <point x="1194" y="525"/>
      <point x="1092" y="525" type="curve" smooth="yes"/>
      <point x="734" y="525" type="line"/>
      <point x="737" y="459" type="line"/>
      <point x="1070" y="459" type="line"/>
      <point x="1130" y="460" type="line"/>
      <point x="1167" y="460"/>
      <point x="1197" y="432"/>
      <point x="1197" y="396" type="curve" smooth="yes"/>
      <point x="1197" y="360"/>
      <point x="1167" y="333"/>
      <point x="1130" y="333" type="curve" smooth="yes"/>
      <point x="1093" y="333"/>
      <point x="1063" y="360"/>
      <point x="1063" y="396" type="curve" smooth="yes"/>
      <point x="1063" y="432"/>
      <point x="1093" y="460"/>
      <point x="1130" y="460" type="curve"/>
      <point x="1075" y="482" type="line"/>
      <point x="1032" y="454"/>
      <point x="1022" y="417"/>
      <point x="1022" y="391" type="curve" smooth="yes"/>
      <point x="1022" y="337"/>
      <point x="1066" y="290"/>
    </contour>
  </outline>
</glyph>
<glyph name="tSignVocalicL" format="2">
  <unicode hex="0C62"/>
  <outline>
    <contour>
      <point x="30" y="-560" type="curve" smooth="yes"/>
      <point x="183" y="-560"/>
      <point x="290" y="-437"/>
      <point x="290" y="-289" type="curve" smooth="yes"/>
      <point x="290" y="-176"/>
      <point x="228" y="-88"/>
      <point x="181" y="-88" type="curve" smooth="yes"/>
      <point x="165" y="-88"/>
      <point x="154" y="-99"/>
      <point x="154" y="-113" type="curve" smooth="yes"/>
      <point x="154" y="-139"/>
      <point x="187" y="-148"/>
      <point x="215" y="-180" type="curve" smooth="yes"/>
      <point x="234" y="-202"/>
      <point x="251" y="-232"/>
      <point x="251" y="-287" type="curve" smooth="yes"/>
      <point x="251" y="-420"/>
      <point x="149" y="-488"/>
      <point x="24" y="-488" type="curve" smooth="yes"/>
      <point x="-19" y="-488"/>
      <point x="-96" y="-479"/>
      <point x="-96" y="-428" type="curve" smooth="yes"/>
      <point x="-96" y="-389"/>
      <point x="-52" y="-376"/>
      <point x="-1" y="-360" type="curve" smooth="yes"/>
      <point x="64" y="-340"/>
      <point x="149" y="-316"/>
      <point x="149" y="-213" type="curve" smooth="yes"/>
      <point x="149" y="-134"/>
      <point x="98" y="-88"/>
      <point x="35" y="-88" type="curve" smooth="yes"/>
      <point x="-3" y="-88"/>
      <point x="-44" y="-105"/>
      <point x="-70" y="-154" type="curve"/>
      <point x="-99" y="-154" type="line"/>
      <point x="-64" y="-242" type="line"/>
      <point x="-47" y="-192"/>
      <point x="-10" y="-158"/>
      <point x="37" y="-158" type="curve" smooth="yes"/>
      <point x="73" y="-158"/>
      <point x="106" y="-180"/>
      <point x="106" y="-225" type="curve" smooth="yes"/>
      <point x="106" y="-286"/>
      <point x="49" y="-304"/>
      <point x="-14" y="-323" type="curve" smooth="yes"/>
      <point x="-74" y="-341"/>
      <point x="-143" y="-361"/>
      <point x="-143" y="-437" type="curve" smooth="yes"/>
      <point x="-143" y="-521"/>
      <point x="-53" y="-560"/>
    </contour>
    <contour>
      <point x="-242" y="-243" type="line"/>
      <point x="-244" y="-236"/>
      <point x="-245" y="-230"/>
      <point x="-245" y="-224" type="curve" smooth="yes"/>
      <point x="-245" y="-188"/>
      <point x="-218" y="-158"/>
      <point x="-174" y="-158" type="curve" smooth="yes"/>
      <point x="-126" y="-158"/>
      <point x="-96" y="-196"/>
      <point x="-81" y="-242" type="curve"/>
      <point x="-64" y="-242" type="line"/>
      <point x="-61" y="-212" type="line"/>
      <point x="-63" y="-133"/>
      <point x="-116" y="-88"/>
      <point x="-173" y="-88" type="curve" smooth="yes"/>
      <point x="-232" y="-88"/>
      <point x="-280" y="-129"/>
      <point x="-280" y="-194" type="curve" smooth="yes"/>
      <point x="-280" y="-211"/>
      <point x="-277" y="-230"/>
      <point x="-271" y="-249" type="curve"/>
    </contour>
  </outline>
</glyph>
<glyph name="tSignVocalicLl" format="2">
  <unicode hex="0C63"/>
  <outline>
    <contour>
      <point x="-40" y="-560" type="curve" smooth="yes"/>
      <point x="113" y="-560"/>
      <point x="220" y="-437"/>
      <point x="220" y="-289" type="curve" smooth="yes"/>
      <point x="220" y="-222"/>
      <point x="198" y="-170"/>
      <point x="171" y="-140" type="curve"/>
      <point x="171" y="-112" type="line"/>
      <point x="100" y="-135" type="line"/>
      <point x="144" y="-164"/>
      <point x="181" y="-204"/>
      <point x="181" y="-287" type="curve" smooth="yes"/>
      <point x="181" y="-420"/>
      <point x="79" y="-488"/>
      <point x="-46" y="-488" type="curve" smooth="yes"/>
      <point x="-89" y="-488"/>
      <point x="-166" y="-479"/>
      <point x="-166" y="-428" type="curve" smooth="yes"/>
      <point x="-166" y="-389"/>
      <point x="-122" y="-376"/>
      <point x="-71" y="-360" type="curve" smooth="yes"/>
      <point x="-6" y="-340"/>
      <point x="79" y="-316"/>
      <point x="79" y="-213" type="curve" smooth="yes"/>
      <point x="79" y="-134"/>
      <point x="28" y="-88"/>
      <point x="-35" y="-88" type="curve" smooth="yes"/>
      <point x="-73" y="-88"/>
      <point x="-114" y="-105"/>
      <point x="-140" y="-154" type="curve"/>
      <point x="-179" y="-154" type="line"/>
      <point x="-134" y="-242" type="line"/>
      <point x="-117" y="-192"/>
      <point x="-80" y="-158"/>
      <point x="-33" y="-158" type="curve" smooth="yes"/>
      <point x="3" y="-158"/>
      <point x="36" y="-180"/>
      <point x="36" y="-225" type="curve" smooth="yes"/>
      <point x="36" y="-286"/>
      <point x="-21" y="-304"/>
      <point x="-84" y="-323" type="curve" smooth="yes"/>
      <point x="-144" y="-341"/>
      <point x="-213" y="-361"/>
      <point x="-213" y="-437" type="curve" smooth="yes"/>
      <point x="-213" y="-521"/>
      <point x="-123" y="-560"/>
    </contour>
    <contour>
      <point x="-312" y="-243" type="line"/>
      <point x="-314" y="-236"/>
      <point x="-315" y="-230"/>
      <point x="-315" y="-224" type="curve" smooth="yes"/>
      <point x="-315" y="-188"/>
      <point x="-288" y="-158"/>
      <point x="-244" y="-158" type="curve" smooth="yes"/>
      <point x="-196" y="-158"/>
      <point x="-166" y="-196"/>
      <point x="-151" y="-242" type="curve"/>
      <point x="-134" y="-242" type="line"/>
      <point x="-134" y="-173" type="line"/>
      <point x="-157" y="-116"/>
      <point x="-194" y="-88"/>
      <point x="-243" y="-88" type="curve" smooth="yes"/>
      <point x="-302" y="-88"/>
      <point x="-350" y="-129"/>
      <point x="-350" y="-194" type="curve" smooth="yes"/>
      <point x="-350" y="-211"/>
      <point x="-347" y="-230"/>
      <point x="-341" y="-249" type="curve"/>
    </contour>
    <contour>
      <point x="387" y="-265" type="curve" smooth="yes"/>
      <point x="432" y="-265"/>
      <point x="471" y="-234"/>
      <point x="471" y="-180" type="curve" smooth="yes"/>
      <point x="471" y="-129"/>
      <point x="437" y="-88"/>
      <point x="363" y="-88" type="curve" smooth="yes"/>
      <point x="97" y="-88" type="line"/>
      <point x="100" y="-135" type="line"/>
      <point x="148" y="-138" type="line"/>
      <point x="338" y="-138" type="line"/>
      <point x="388" y="-139" type="line"/>
      <point x="414" y="-139"/>
      <point x="432" y="-158"/>
      <point x="432" y="-184" type="curve" smooth="yes"/>
      <point x="432" y="-210"/>
      <point x="414" y="-229"/>
      <point x="387" y="-229" type="curve" smooth="yes"/>
      <point x="361" y="-229"/>
      <point x="343" y="-210"/>
      <point x="343" y="-184" type="curve" smooth="yes"/>
      <point x="343" y="-158"/>
      <point x="361" y="-139"/>
      <point x="388" y="-139" type="curve"/>
      <point x="322" y="-112" type="line"/>
      <point x="322" y="-140" type="line"/>
      <point x="309" y="-154"/>
      <point x="305" y="-172"/>
      <point x="305" y="-186" type="curve" smooth="yes"/>
      <point x="305" y="-228"/>
      <point x="338" y="-265"/>
    </contour>
  </outline>
</glyph>
<glyph name="tZero" format="2">
  <advance width="660"/>
  <unicode hex="0C66"/>
  <outline>
    <contour>
      <point x="333" y="-15" type="curve" smooth="yes"/>
      <point x="476" y="-15"/>
      <point x="587" y="103"/>
      <point x="587" y="256" type="curve" smooth="yes"/>
      <point x="587" y="409"/>
      <point x="474" y="525"/>
      <point x="332" y="525" type="curve" smooth="yes"/>
      <point x="196" y="525"/>
      <point x="73" y="416"/>
      <point x="73" y="262" type="curve" smooth="yes"/>
      <point x="73" y="115"/>
      <point x="185" y="-15"/>
    </contour>
    <contour>
      <point x="331" y="90" type="curve" smooth="yes"/>
      <point x="214" y="90"/>
      <point x="127" y="174"/>
      <point x="127" y="282" type="curve" smooth="yes"/>
      <point x="127" y="393"/>
      <point x="219" y="482"/>
      <point x="332" y="482" type="curve" smooth="yes"/>
      <point x="447" y="482"/>
      <point x="534" y="388"/>
      <point x="534" y="281" type="curve" smooth="yes"/>
      <point x="534" y="169"/>
      <point x="444" y="90"/>
    </contour>
  </outline>
</glyph>
<glyph name="tOne" format="2">
  <advance width="794"/>
  <unicode hex="0C67"/>
  <outline>
    <contour>
      <point x="268" y="-19" type="curve" smooth="yes"/>
      <point x="307" y="-19"/>
      <point x="329" y="6"/>
      <point x="329" y="35" type="curve" smooth="yes"/>
      <point x="329" y="75"/>
      <point x="286" y="87"/>
      <point x="256" y="94" type="curve" smooth="yes"/>
      <point x="214" y="104"/>
      <point x="120" y="123"/>
      <point x="120" y="235" type="curve" smooth="yes"/>
      <point x="120" y="331"/>
      <point x="189" y="434"/>
      <point x="396" y="434" type="curve" smooth="yes"/>
      <point x="603" y="434"/>
      <point x="674" y="330"/>
      <point x="674" y="235" type="curve" smooth="yes"/>
      <point x="674" y="131"/>
      <point x="592" y="106"/>
      <point x="538" y="94" type="curve" smooth="yes"/>
      <point x="516" y="89"/>
      <point x="465" y="78"/>
      <point x="465" y="35" type="curve" smooth="yes"/>
      <point x="465" y="6"/>
      <point x="487" y="-19"/>
      <point x="526" y="-19" type="curve" smooth="yes"/>
      <point x="600" y="-19"/>
      <point x="721" y="72"/>
      <point x="721" y="234" type="curve" smooth="yes"/>
      <point x="721" y="412"/>
      <point x="575" y="525"/>
      <point x="398" y="525" type="curve" smooth="yes"/>
      <point x="220" y="525"/>
      <point x="73" y="412"/>
      <point x="73" y="233" type="curve" smooth="yes"/>
      <point x="73" y="72"/>
      <point x="194" y="-19"/>
    </contour>
  </outline>
  <guideline angle="0" x="0" y="434"/>
</glyph>
<glyph name="tTwo" format="2">
  <advance width="790"/>
  <unicode hex="0C68"/>
  <outline>
    <contour>
      <point x="450" y="-3" type="line" smooth="yes"/>
      <point x="607" y="-3"/>
      <point x="717" y="98"/>
      <point x="717" y="249" type="curve" smooth="yes"/>
      <point x="717" y="418"/>
      <point x="583" y="525"/>
      <point x="458" y="525" type="curve" smooth="yes"/>
      <point x="369" y="525"/>
      <point x="318" y="470"/>
      <point x="318" y="405" type="curve" smooth="yes"/>
      <point x="318" y="336"/>
      <point x="374" y="294"/>
      <point x="437" y="294" type="curve" smooth="yes"/>
      <point x="506" y="294"/>
      <point x="560" y="344"/>
      <point x="560" y="404" type="curve" smooth="yes"/>
      <point x="560" y="421"/>
      <point x="555" y="435"/>
      <point x="549" y="451" type="curve"/>
      <point x="569" y="470" type="line"/>
      <point x="485" y="481" type="line"/>
      <point x="505" y="461"/>
      <point x="514" y="437"/>
      <point x="514" y="414" type="curve" smooth="yes"/>
      <point x="514" y="367"/>
      <point x="479" y="340"/>
      <point x="437" y="340" type="curve" smooth="yes"/>
      <point x="387" y="340"/>
      <point x="370" y="378"/>
      <point x="370" y="403" type="curve" smooth="yes"/>
      <point x="370" y="441"/>
      <point x="410" y="466"/>
      <point x="480" y="466" type="curve" smooth="yes"/>
      <point x="590" y="466"/>
      <point x="667" y="371"/>
      <point x="667" y="264" type="curve" smooth="yes"/>
      <point x="667" y="147"/>
      <point x="582" y="77"/>
      <point x="451" y="77" type="curve" smooth="yes"/>
      <point x="10" y="77" type="line"/>
      <point x="14" y="-3" type="line"/>
    </contour>
  </outline>
</glyph>
<glyph name="tThree" format="2">
  <advance width="546"/>
  <unicode hex="0C69"/>
  <outline>
    <contour>
      <point x="276" y="-15" type="curve" smooth="yes"/>
      <point x="391" y="-15"/>
      <point x="483" y="56"/>
      <point x="483" y="149" type="curve" smooth="yes"/>
      <point x="483" y="281"/>
      <point x="305" y="314"/>
      <point x="255" y="314" type="curve" smooth="yes"/>
      <point x="222" y="314"/>
      <point x="188" y="303"/>
      <point x="188" y="272" type="curve" smooth="yes"/>
      <point x="188" y="239"/>
      <point x="226" y="229"/>
      <point x="261" y="229" type="curve" smooth="yes"/>
      <point x="363" y="229"/>
      <point x="469" y="287"/>
      <point x="469" y="387" type="curve" smooth="yes"/>
      <point x="469" y="483"/>
      <point x="372" y="525"/>
      <point x="283" y="525" type="curve" smooth="yes"/>
      <point x="183" y="525"/>
      <point x="82" y="472"/>
      <point x="82" y="413" type="curve" smooth="yes"/>
      <point x="82" y="385"/>
      <point x="106" y="375"/>
      <point x="123" y="375" type="curve" smooth="yes"/>
      <point x="191" y="375"/>
      <point x="180" y="479"/>
      <point x="298" y="479" type="curve" smooth="yes"/>
      <point x="369" y="479"/>
      <point x="418" y="441"/>
      <point x="418" y="383" type="curve" smooth="yes"/>
      <point x="418" y="334"/>
      <point x="385" y="306"/>
      <point x="345" y="290" type="curve"/>
      <point x="345" y="254" type="line"/>
      <point x="402" y="235"/>
      <point x="432" y="197"/>
      <point x="432" y="152" type="curve" smooth="yes"/>
      <point x="432" y="92"/>
      <point x="376" y="31"/>
      <point x="289" y="31" type="curve" smooth="yes"/>
      <point x="166" y="31"/>
      <point x="180" y="153"/>
      <point x="109" y="153" type="curve" smooth="yes"/>
      <point x="80" y="153"/>
      <point x="63" y="133"/>
      <point x="63" y="109" type="curve" smooth="yes"/>
      <point x="63" y="53"/>
      <point x="166" y="-15"/>
    </contour>
  </outline>
</glyph>
<glyph name="tFour" format="2">
  <advance width="602"/>
  <unicode hex="0C6A"/>
  <outline>
    <contour>
      <point x="344" y="194" type="line"/>
      <point x="344" y="209" type="line"/>
      <point x="449" y="256"/>
      <point x="544" y="337"/>
      <point x="544" y="438" type="curve" smooth="yes"/>
      <point x="544" y="506"/>
      <point x="503" y="548"/>
      <point x="468" y="548" type="curve" smooth="yes"/>
      <point x="447" y="548"/>
      <point x="432" y="533"/>
      <point x="432" y="513" type="curve" smooth="yes"/>
      <point x="432" y="474"/>
      <point x="487" y="472"/>
      <point x="487" y="410" type="curve" smooth="yes"/>
      <point x="487" y="316"/>
      <point x="372" y="256"/>
      <point x="296" y="225" type="curve"/>
      <point x="218" y="251"/>
      <point x="125" y="270"/>
      <point x="125" y="350" type="curve" smooth="yes"/>
      <point x="125" y="398"/>
      <point x="159" y="398"/>
      <point x="159" y="430" type="curve" smooth="yes"/>
      <point x="159" y="452"/>
      <point x="142" y="466"/>
      <point x="121" y="466" type="curve" smooth="yes"/>
      <point x="99" y="466"/>
      <point x="58" y="445"/>
      <point x="58" y="382" type="curve" smooth="yes"/>
      <point x="58" y="272"/>
      <point x="167" y="227"/>
      <point x="248" y="203" type="curve"/>
      <point x="248" y="194" type="line"/>
    </contour>
    <contour>
      <point x="301" y="-15" type="curve" smooth="yes"/>
      <point x="375" y="-15"/>
      <point x="427" y="36"/>
      <point x="427" y="99" type="curve" smooth="yes"/>
      <point x="427" y="169"/>
      <point x="361" y="213"/>
      <point x="307" y="213" type="curve" smooth="yes"/>
      <point x="242" y="213"/>
      <point x="173" y="168"/>
      <point x="173" y="98" type="curve" smooth="yes"/>
      <point x="173" y="33"/>
      <point x="228" y="-15"/>
    </contour>
    <contour>
      <point x="300" y="73" type="curve" smooth="yes"/>
      <point x="251" y="73"/>
      <point x="222" y="94"/>
      <point x="222" y="119" type="curve" smooth="yes"/>
      <point x="222" y="146"/>
      <point x="255" y="179"/>
      <point x="301" y="179" type="curve" smooth="yes"/>
      <point x="344" y="179"/>
      <point x="378" y="150"/>
      <point x="378" y="120" type="curve" smooth="yes"/>
      <point x="378" y="92"/>
      <point x="346" y="73"/>
    </contour>
  </outline>
</glyph>
<glyph name="tFive" format="2">
  <advance width="752"/>
  <unicode hex="0C6B"/>
  <outline>
    <contour>
      <point x="145" y="-6" type="line"/>
      <point x="200" y="148"/>
      <point x="285" y="216"/>
      <point x="375" y="239" type="curve" smooth="yes"/>
      <point x="405" y="247"/>
      <point x="435" y="251"/>
      <point x="471" y="263" type="curve" smooth="yes"/>
      <point x="551" y="289"/>
      <point x="591" y="335"/>
      <point x="591" y="403" type="curve" smooth="yes"/>
      <point x="591" y="479"/>
      <point x="538" y="525"/>
      <point x="471" y="525" type="curve" smooth="yes"/>
      <point x="399" y="525"/>
      <point x="349" y="473"/>
      <point x="349" y="408" type="curve" smooth="yes"/>
      <point x="349" y="349"/>
      <point x="379" y="315"/>
      <point x="414" y="289" type="curve"/>
      <point x="404" y="267" type="line"/>
      <point x="467" y="289" type="line"/>
      <point x="435" y="310"/>
      <point x="412" y="341"/>
      <point x="412" y="394" type="curve" smooth="yes"/>
      <point x="412" y="448"/>
      <point x="446" y="472"/>
      <point x="481" y="472" type="curve" smooth="yes"/>
      <point x="518" y="472"/>
      <point x="544" y="442"/>
      <point x="544" y="398" type="curve" smooth="yes"/>
      <point x="544" y="334"/>
      <point x="508" y="310"/>
      <point x="421" y="288" type="curve"/>
      <point x="392" y="285"/>
      <point x="373" y="280"/>
      <point x="314" y="266" type="curve"/>
      <point x="220" y="240"/>
      <point x="116" y="187"/>
      <point x="58" y="28" type="curve"/>
    </contour>
    <contour>
      <point x="342" y="259" type="line"/>
      <point x="278" y="451"/>
      <point x="199" y="518"/>
      <point x="131" y="518" type="curve" smooth="yes"/>
      <point x="102" y="518"/>
      <point x="87" y="499"/>
      <point x="87" y="481" type="curve" smooth="yes"/>
      <point x="87" y="460"/>
      <point x="103" y="446"/>
      <point x="129" y="441" type="curve" smooth="yes"/>
      <point x="204" y="425"/>
      <point x="275" y="365"/>
      <point x="311" y="255" type="curve"/>
    </contour>
    <contour>
      <point x="588" y="-39" type="curve" smooth="yes"/>
      <point x="670" y="-39"/>
      <point x="709" y="14"/>
      <point x="709" y="81" type="curve" smooth="yes"/>
      <point x="709" y="102"/>
      <point x="705" y="118"/>
      <point x="705" y="121" type="curve"/>
      <point x="670" y="121" type="line"/>
      <point x="666" y="60"/>
      <point x="650" y="26"/>
      <point x="606" y="26" type="curve" smooth="yes"/>
      <point x="573" y="26"/>
      <point x="557" y="46"/>
      <point x="557" y="91" type="curve" smooth="yes"/>
      <point x="557" y="117"/>
      <point x="561" y="155"/>
      <point x="561" y="172" type="curve" smooth="yes"/>
      <point x="561" y="221"/>
      <point x="534" y="249"/>
      <point x="484" y="280" type="curve"/>
      <point x="438" y="269" type="line"/>
      <point x="474" y="240"/>
      <point x="478" y="218"/>
      <point x="478" y="196" type="curve" smooth="yes"/>
      <point x="478" y="165"/>
      <point x="467" y="124"/>
      <point x="467" y="78" type="curve" smooth="yes"/>
      <point x="467" y="-8"/>
      <point x="525" y="-39"/>
    </contour>
  </outline>
</glyph>
<glyph name="tSix" format="2">
  <advance width="749"/>
  <unicode hex="0C6C"/>
  <outline>
    <contour>
      <point x="739" y="-3" type="line"/>
      <point x="735" y="77" type="line"/>
      <point x="287" y="77" type="line" smooth="yes"/>
      <point x="246" y="77"/>
      <point x="133" y="80"/>
      <point x="133" y="161" type="curve" smooth="yes"/>
      <point x="133" y="208"/>
      <point x="171" y="247"/>
      <point x="272" y="247" type="curve" smooth="yes"/>
      <point x="472" y="247" type="line"/>
      <point x="470" y="305" type="line"/>
      <point x="162" y="305" type="line"/>
      <point x="162" y="273" type="line"/>
      <point x="103" y="248"/>
      <point x="75" y="201"/>
      <point x="75" y="146" type="curve" smooth="yes"/>
      <point x="75" y="65"/>
      <point x="134" y="-3"/>
      <point x="278" y="-3" type="curve" smooth="yes"/>
    </contour>
    <contour>
      <point x="266" y="305" type="line"/>
      <point x="161" y="305"/>
      <point x="129" y="350"/>
      <point x="129" y="395" type="curve" smooth="yes"/>
      <point x="129" y="448"/>
      <point x="176" y="474"/>
      <point x="264" y="474" type="curve" smooth="yes"/>
      <point x="322" y="474" type="line"/>
      <point x="320" y="525" type="line"/>
      <point x="254" y="525" type="line" smooth="yes"/>
      <point x="148" y="525"/>
      <point x="73" y="479"/>
      <point x="73" y="396" type="curve" smooth="yes"/>
      <point x="73" y="338"/>
      <point x="111" y="289"/>
      <point x="180" y="269" type="curve"/>
    </contour>
  </outline>
</glyph>
<glyph name="tSeven" format="2">
  <advance width="552"/>
  <unicode hex="0C6D"/>
  <outline>
    <contour>
      <point x="279" y="-15" type="curve" smooth="yes"/>
      <point x="392" y="-15"/>
      <point x="482" y="60"/>
      <point x="482" y="159" type="curve" smooth="yes"/>
      <point x="482" y="169"/>
      <point x="481" y="179"/>
      <point x="480" y="188" type="curve"/>
      <point x="444" y="188" type="line"/>
      <point x="440" y="146"/>
      <point x="416" y="85"/>
      <point x="279" y="85" type="curve" smooth="yes"/>
      <point x="172" y="85"/>
      <point x="120" y="117"/>
      <point x="120" y="166" type="curve" smooth="yes"/>
      <point x="120" y="214"/>
      <point x="170" y="242"/>
      <point x="275" y="253" type="curve" smooth="yes"/>
      <point x="347" y="261"/>
      <point x="462" y="276"/>
      <point x="462" y="380" type="curve" smooth="yes"/>
      <point x="462" y="468"/>
      <point x="379" y="525"/>
      <point x="276" y="525" type="curve" smooth="yes"/>
      <point x="162" y="525"/>
      <point x="89" y="461"/>
      <point x="89" y="372" type="curve"/>
      <point x="89" y="371"/>
      <point x="89" y="368"/>
      <point x="90" y="357" type="curve"/>
      <point x="124" y="357" type="line"/>
      <point x="129" y="390"/>
      <point x="152" y="451"/>
      <point x="270" y="451" type="curve" smooth="yes"/>
      <point x="363" y="451"/>
      <point x="416" y="418"/>
      <point x="416" y="371" type="curve" smooth="yes"/>
      <point x="416" y="319"/>
      <point x="348" y="304"/>
      <point x="243" y="291" type="curve" smooth="yes"/>
      <point x="200" y="285"/>
      <point x="70" y="268"/>
      <point x="70" y="151" type="curve" smooth="yes"/>
      <point x="70" y="55"/>
      <point x="159" y="-15"/>
    </contour>
  </outline>
</glyph>
<glyph name="tEight" format="2">
  <advance width="729"/>
  <unicode hex="0C6E"/>
  <outline>
    <contour>
      <point x="320" y="-15" type="curve" smooth="yes"/>
      <point x="457" y="-15"/>
      <point x="560" y="87"/>
      <point x="560" y="226" type="curve" smooth="yes"/>
      <point x="560" y="318"/>
      <point x="516" y="396"/>
      <point x="440" y="451" type="curve"/>
      <point x="448" y="467" type="line"/>
      <point x="334" y="454" type="line"/>
      <point x="424" y="439"/>
      <point x="509" y="345"/>
      <point x="509" y="245" type="curve" smooth="yes"/>
      <point x="509" y="151"/>
      <point x="428" y="90"/>
      <point x="315" y="90" type="curve" smooth="yes"/>
      <point x="211" y="90"/>
      <point x="121" y="145"/>
      <point x="121" y="243" type="curve" smooth="yes"/>
      <point x="121" y="337"/>
      <point x="204" y="353"/>
      <point x="204" y="392" type="curve" smooth="yes"/>
      <point x="204" y="407"/>
      <point x="193" y="422"/>
      <point x="175" y="422" type="curve" smooth="yes"/>
      <point x="135" y="422"/>
      <point x="73" y="346"/>
      <point x="73" y="234" type="curve" smooth="yes"/>
      <point x="73" y="80"/>
      <point x="188" y="-15"/>
    </contour>
    <contour>
      <point x="739" y="453" type="line"/>
      <point x="736" y="520" type="line"/>
      <point x="331" y="520" type="line"/>
      <point x="334" y="454" type="line"/>
      <point x="394" y="453" type="line"/>
    </contour>
  </outline>
</glyph>
